<svg width="56" height="56" viewBox="0 0 56 56" fill="none" xmlns="http://www.w3.org/2000/svg">
<path d="M52.387 13.5488C52.6272 13.5488 52.8567 13.454 53.0256 13.2842L55.7352 10.5745C55.9656 10.3442 56.0541 10.0082 55.9674 9.69475C55.8798 9.38134 55.6314 9.13837 55.3152 9.05979L52.228 8.28844L51.4567 5.20032C51.3781 4.88419 51.136 4.63581 50.8217 4.5491C50.5074 4.46058 50.1723 4.5509 49.942 4.78123L47.2323 7.49089C47.0625 7.65979 46.9677 7.89012 46.9677 8.12947V12.2716L46.2803 12.959C42.4172 9.40301 37.2652 7.22625 31.6129 7.22625C19.6605 7.22625 9.93555 16.9512 9.93555 28.9036C9.93555 37.1726 14.5917 44.3731 21.4182 48.0275L17.2986 54.6192C17.1243 54.8974 17.1153 55.2488 17.2742 55.536C17.4341 55.8223 17.7367 56.0002 18.0645 56.0002H26.1935C26.4338 56.0002 26.6632 55.9054 26.8321 55.7356L28.3739 54.1938H34.8518L36.3936 55.7356C36.5625 55.9054 36.792 56.0002 37.0322 56.0002H45.1612C45.4891 56.0002 45.7917 55.8223 45.9515 55.5351C46.1105 55.2479 46.1015 54.8965 45.9271 54.6183L41.8075 48.0266C48.6341 44.3731 53.2902 37.1726 53.2902 28.9036C53.2902 23.2512 51.1134 18.0992 47.5575 14.2362L48.2448 13.5488H52.387ZM48.7741 8.5034L50.091 7.18651L50.6076 9.25218C50.688 9.57553 50.9409 9.82843 51.2652 9.90972L53.33 10.4264L52.0131 11.7424H48.7741V8.5034ZM43.5309 54.1938H37.4061L35.8643 52.652C35.6954 52.4822 35.466 52.3874 35.2258 52.3874H28C27.7597 52.3874 27.5303 52.4822 27.3614 52.652L25.8196 54.1938H19.6949L23.0548 48.8169C25.6814 49.9505 28.5744 50.5809 31.6129 50.5809C34.6513 50.5809 37.5443 49.9505 40.1709 48.8169L43.5309 54.1938ZM51.4838 28.9036C51.4838 39.8606 42.5699 48.7745 31.6129 48.7745C20.6559 48.7745 11.742 39.8606 11.742 28.9036C11.742 17.9466 20.6559 9.03269 31.6129 9.03269C36.7667 9.03269 41.4688 11.0062 45.0032 14.2362L42.4344 16.8049C39.5567 14.228 35.7704 12.6456 31.6129 12.6456C22.6484 12.6456 15.3549 19.9391 15.3549 28.9036C15.3549 37.8681 22.6484 45.1616 31.6129 45.1616C40.5774 45.1616 47.8709 37.8681 47.8709 28.9036C47.8709 24.746 46.2884 20.9597 43.7115 18.0821L46.2803 15.5133C49.5102 19.0476 51.4838 23.7498 51.4838 28.9036ZM32.5161 25.4189C32.844 25.5039 33.152 25.6339 33.4365 25.8028L32.5161 26.7232V25.4189ZM31.6129 29.8068H35.0975C34.6938 31.3603 33.292 32.5165 31.6129 32.5165C29.6204 32.5165 28 30.8961 28 28.9036C28 27.2254 29.1552 25.8227 30.7097 25.4189V28.9036C30.7097 29.4022 31.1134 29.8068 31.6129 29.8068ZM33.7933 28.0004L34.7136 27.08C34.8816 27.3654 35.0117 27.6725 35.0975 28.0004H33.7933ZM34.748 24.4913C34.0958 24.0262 33.3371 23.7046 32.5161 23.5655V22.581H30.7097V23.5655C28.1508 23.9973 26.1935 26.2228 26.1935 28.9036C26.1935 31.8923 28.6241 34.3229 31.6129 34.3229C34.2927 34.3229 36.5183 32.3656 36.9509 29.8068H37.9354V28.0004H36.9509C36.8118 27.1793 36.4903 26.4206 36.0251 25.7685L38.602 23.1916C39.8774 24.7488 40.6451 26.7377 40.6451 28.9036C40.6451 33.8839 36.5932 37.9358 31.6129 37.9358C26.6325 37.9358 22.5807 33.8839 22.5807 28.9036C22.5807 23.9232 26.6325 19.8714 31.6129 19.8714C33.7788 19.8714 35.7677 20.6391 37.3249 21.9144L34.748 24.4913ZM38.6047 20.6346C36.7152 19.035 34.2765 18.0649 31.6129 18.0649C25.6363 18.0649 20.7742 22.927 20.7742 28.9036C20.7742 34.8802 25.6363 39.7422 31.6129 39.7422C37.5895 39.7422 42.4515 34.8802 42.4515 28.9036C42.4515 26.24 41.4815 23.8013 39.8819 21.9117L42.4353 19.3583C44.6861 21.9072 46.0644 25.2437 46.0644 28.9036C46.0644 36.8718 39.5811 43.3551 31.6129 43.3551C23.6447 43.3551 17.1613 36.8718 17.1613 28.9036C17.1613 20.9354 23.6447 14.452 31.6129 14.452C35.2727 14.452 38.6092 15.8303 41.1581 18.0812L38.6047 20.6346Z" fill="#916AFF"/>
<path d="M10.7702 20.2167C10.9102 19.8789 10.8325 19.4905 10.5742 19.2322L6.05808 14.716C5.70492 14.3629 5.13409 14.3629 4.78093 14.716L0.264815 19.2322C0.00649349 19.4905 -0.0711836 19.8789 0.0688158 20.2167C0.207912 20.5536 0.538491 20.774 0.903393 20.774H2.70984V27.9997C2.70984 28.4983 3.11358 28.903 3.61306 28.903H7.22595C7.72543 28.903 8.12917 28.4983 8.12917 27.9997V20.774H9.93561C10.3005 20.774 10.6311 20.5536 10.7702 20.2167ZM7.22595 18.9675C6.72647 18.9675 6.32273 19.3722 6.32273 19.8707V27.0965H4.51628V19.8707C4.51628 19.3722 4.11254 18.9675 3.61306 18.9675H3.08377L5.4195 16.6318L7.75524 18.9675H7.22595Z" fill="#916AFF"/>
<path d="M0.903393 6.32278H2.70984V11.7421C2.70984 12.2407 3.11358 12.6453 3.61306 12.6453H7.22595C7.72543 12.6453 8.12917 12.2407 8.12917 11.7421V6.32278H9.93561C10.3005 6.32278 10.6311 6.10239 10.7702 5.76549C10.9102 5.42769 10.8325 5.0393 10.5742 4.78098L6.05808 0.26487C5.70492 -0.08829 5.13409 -0.08829 4.78093 0.26487L0.264815 4.78098C0.00649349 5.0393 -0.0711836 5.42769 0.0688158 5.76549C0.207912 6.10239 0.538491 6.32278 0.903393 6.32278ZM5.4195 2.1806L7.75524 4.51634H7.22595C6.72647 4.51634 6.32273 4.92098 6.32273 5.41956V10.8389H4.51628V5.41956C4.51628 4.92098 4.11254 4.51634 3.61306 4.51634H3.08377L5.4195 2.1806Z" fill="#916AFF"/>
</svg>
