<svg width="56" height="56" viewBox="0 0 56 56" fill="none" xmlns="http://www.w3.org/2000/svg">
<path d="M18.8429 55.1797H3.63069C2.85741 55.1797 2.23047 54.5528 2.23047 53.7795V35.0625H31.4952V53.7795C31.4952 54.5528 30.8682 55.1797 30.095 55.1797H22.7804" stroke="#916AFF" stroke-width="1.5" stroke-miterlimit="10" stroke-linecap="round" stroke-linejoin="round"/>
<path d="M24.1505 29.9121H4.06622C3.05242 29.9121 2.23047 30.734 2.23047 31.7479V35.0618" stroke="#916AFF" stroke-width="1.5" stroke-miterlimit="10" stroke-linecap="round" stroke-linejoin="round"/>
<path d="M11.9078 43.3499H6.95384C6.57966 43.3499 6.27637 43.0466 6.27637 42.6724V39.1267C6.27637 38.7525 6.57966 38.4492 6.95384 38.4492H11.9078C12.2819 38.4492 12.5852 38.7525 12.5852 39.1267V42.6724C12.5852 43.0466 12.2819 43.3499 11.9078 43.3499Z" stroke="#916AFF" stroke-width="1.5" stroke-miterlimit="10" stroke-linecap="round" stroke-linejoin="round"/>
<path d="M26.9168 51.471H17.5408C17.1666 51.471 16.8633 51.1677 16.8633 50.7935V47.2478C16.8633 46.8736 17.1666 46.5703 17.5408 46.5703H26.9168C27.291 46.5703 27.5943 46.8736 27.5943 47.2478V50.7935C27.5943 51.1677 27.291 51.471 26.9168 51.471Z" stroke="#916AFF" stroke-width="1.5" stroke-miterlimit="10" stroke-linecap="round" stroke-linejoin="round"/>
<path d="M16.8633 39.0449H19.3856" stroke="#916AFF" stroke-width="1.5" stroke-miterlimit="10" stroke-linecap="round" stroke-linejoin="round"/>
<path d="M22.6836 39.0449H27.5938" stroke="#916AFF" stroke-width="1.5" stroke-miterlimit="10" stroke-linecap="round" stroke-linejoin="round"/>
<path d="M6.27637 47.5938H12.5852" stroke="#916AFF" stroke-width="1.5" stroke-miterlimit="10" stroke-linecap="round" stroke-linejoin="round"/>
<path d="M6.27637 50.6914H12.5852" stroke="#916AFF" stroke-width="1.5" stroke-miterlimit="10" stroke-linecap="round" stroke-linejoin="round"/>
<path d="M27.5945 42.4316H25.0723" stroke="#916AFF" stroke-width="1.5" stroke-miterlimit="10" stroke-linecap="round" stroke-linejoin="round"/>
<path d="M21.7735 42.4316H16.8633" stroke="#916AFF" stroke-width="1.5" stroke-miterlimit="10" stroke-linecap="round" stroke-linejoin="round"/>
<path d="M6.60547 9.51106V5.9707H35.8702V9.35695" stroke="#916AFF" stroke-width="1.5" stroke-miterlimit="10" stroke-linecap="round" stroke-linejoin="round"/>
<path d="M24.1504 26.0866H8.00569C7.23241 26.0866 6.60547 25.4597 6.60547 24.6864V13.3379" stroke="#916AFF" stroke-width="1.5" stroke-miterlimit="10" stroke-linecap="round" stroke-linejoin="round"/>
<path d="M34.0345 0.820312H8.44122C7.42742 0.820312 6.60547 1.64216 6.60547 2.65606V5.97002H35.8702V2.65606C35.8703 1.64216 35.0484 0.820312 34.0345 0.820312Z" stroke="#916AFF" stroke-width="1.5" stroke-miterlimit="10" stroke-linecap="round" stroke-linejoin="round"/>
<path d="M16.2828 14.2561H11.3288C10.9547 14.2561 10.6514 13.9528 10.6514 13.5787V10.0329C10.6514 9.65877 10.9547 9.35547 11.3288 9.35547H16.2828C16.6569 9.35547 16.9602 9.65877 16.9602 10.0329V13.5787C16.9602 13.9527 16.6569 14.2561 16.2828 14.2561Z" stroke="#916AFF" stroke-width="1.5" stroke-miterlimit="10" stroke-linecap="round" stroke-linejoin="round"/>
<path d="M24.1509 22.3772H21.9158C21.5416 22.3772 21.2383 22.0739 21.2383 21.6997V18.154C21.2383 17.7799 21.5416 17.4766 21.9158 17.4766H23.9211" stroke="#916AFF" stroke-width="1.5" stroke-miterlimit="10" stroke-linecap="round" stroke-linejoin="round"/>
<path d="M10.6514 18.502H16.9602" stroke="#916AFF" stroke-width="1.5" stroke-miterlimit="10" stroke-linecap="round" stroke-linejoin="round"/>
<path d="M10.6514 21.5996H16.9602" stroke="#916AFF" stroke-width="1.5" stroke-miterlimit="10" stroke-linecap="round" stroke-linejoin="round"/>
<path d="M24.3235 13.3379H21.2383" stroke="#916AFF" stroke-width="1.5" stroke-miterlimit="10" stroke-linecap="round" stroke-linejoin="round"/>
<path d="M52.3705 35.0118H25.9061C25.1328 35.0118 24.5059 34.3848 24.5059 33.6115V14.8945H53.7707V33.6115C53.7707 34.3848 53.1438 35.0118 52.3705 35.0118Z" stroke="#916AFF" stroke-width="1.5" stroke-miterlimit="10" stroke-linecap="round" stroke-linejoin="round"/>
<path d="M51.9348 9.74414H26.3416C25.3278 9.74414 24.5059 10.566 24.5059 11.5799V14.8938H53.7706V11.5799C53.7706 10.566 52.9487 9.74414 51.9348 9.74414Z" stroke="#916AFF" stroke-width="1.5" stroke-miterlimit="10" stroke-linecap="round" stroke-linejoin="round"/>
<path d="M34.1831 23.18H29.2292C28.8551 23.18 28.5518 22.8767 28.5518 22.5025V18.9568C28.5518 18.5826 28.8551 18.2793 29.2292 18.2793H34.1831C34.5573 18.2793 34.8606 18.5826 34.8606 18.9568V22.5025C34.8606 22.8767 34.5573 23.18 34.1831 23.18Z" stroke="#916AFF" stroke-width="1.5" stroke-miterlimit="10" stroke-linecap="round" stroke-linejoin="round"/>
<path d="M49.1912 31.301H39.8152C39.441 31.301 39.1377 30.9977 39.1377 30.6236V27.0779C39.1377 26.7037 39.441 26.4004 39.8152 26.4004H49.1912C49.5654 26.4004 49.8687 26.7037 49.8687 27.0779V30.6236C49.8687 30.9977 49.5654 31.301 49.1912 31.301Z" stroke="#916AFF" stroke-width="1.5" stroke-miterlimit="10" stroke-linecap="round" stroke-linejoin="round"/>
<path d="M39.1377 18.877H41.6599" stroke="#916AFF" stroke-width="1.5" stroke-miterlimit="10" stroke-linecap="round" stroke-linejoin="round"/>
<path d="M44.959 18.877H49.8692" stroke="#916AFF" stroke-width="1.5" stroke-miterlimit="10" stroke-linecap="round" stroke-linejoin="round"/>
<path d="M28.5518 27.4258H34.8606" stroke="#916AFF" stroke-width="1.5" stroke-miterlimit="10" stroke-linecap="round" stroke-linejoin="round"/>
<path d="M28.5518 30.5234H34.8606" stroke="#916AFF" stroke-width="1.5" stroke-miterlimit="10" stroke-linecap="round" stroke-linejoin="round"/>
<path d="M49.8689 22.2617H47.3467" stroke="#916AFF" stroke-width="1.5" stroke-miterlimit="10" stroke-linecap="round" stroke-linejoin="round"/>
<path d="M44.0479 22.2617H39.1377" stroke="#916AFF" stroke-width="1.5" stroke-miterlimit="10" stroke-linecap="round" stroke-linejoin="round"/>
</svg>
