<svg width="56" height="56" viewBox="0 0 56 56" fill="none" xmlns="http://www.w3.org/2000/svg">
<path d="M28 0C12.5612 0 0 12.5603 0 28C0 43.4397 12.5612 56 28 56C43.4388 56 56 43.4397 56 28C56 12.5603 43.4388 0 28 0ZM54.171 27.0968H50.5355C50.1272 20.9485 45.6138 15.9076 39.7085 14.7199C39.3409 13.8654 38.9471 13.0263 38.5135 12.2107C40.8014 11.1422 42.9213 9.70335 44.8063 7.92942C50.3241 12.5566 53.9081 19.4112 54.171 27.0968ZM28.9032 14.4381C31.6545 14.3766 34.328 13.8564 36.8372 12.9116C37.1145 13.4265 37.3791 13.9494 37.6284 14.4814C37.4297 14.4733 37.2337 14.4516 37.0323 14.4516C33.9803 14.4516 31.1703 15.4777 28.9032 17.1866V14.4381ZM28.9032 12.6316V3.08361L31.3302 5.51058C33.0969 7.27729 34.6279 9.22645 35.9213 11.3292C33.6939 12.133 31.3311 12.5738 28.9032 12.6316ZM32.6074 4.23342L30.287 1.91303C35.1463 2.33574 39.6272 4.0889 43.3675 6.80761C41.6387 8.39368 39.7004 9.67626 37.6175 10.6319C36.2184 8.31239 34.5448 6.17084 32.6074 4.23342ZM24.6698 5.51058L27.0968 3.08361V12.6316C24.6653 12.5729 22.2997 12.1312 20.0706 11.3255C21.3595 9.24 22.8932 7.28723 24.6698 5.51058ZM18.3743 10.6274C16.2942 9.67174 14.3595 8.39097 12.6334 6.80671C16.3728 4.088 20.8546 2.33484 25.7139 1.91213L23.3935 4.23252C21.4444 6.18168 19.7671 8.32955 18.3743 10.6274ZM27.0968 14.4381V18.8196C25.0546 21.028 23.7413 23.9102 23.5299 27.0968H15.3774C15.5174 22.0649 16.8126 17.2317 19.1511 12.9071C21.663 13.8546 24.341 14.3766 27.0968 14.4381ZM23.5299 28.9032C23.7413 32.0889 25.0546 34.9711 27.0968 37.1804V41.5619C24.341 41.6234 21.663 42.1454 19.1502 43.0929C16.8126 38.7683 15.5165 33.9351 15.3765 28.9032H23.5299ZM27.0968 43.3684V52.9164L24.6698 50.4894C22.8932 48.7128 21.3586 46.7591 20.0706 44.6744C22.2997 43.8688 24.6653 43.4271 27.0968 43.3684ZM23.3926 51.7666L25.713 54.087C20.8537 53.6643 16.3728 51.9111 12.6325 49.1924C14.3586 47.6081 16.2933 46.3274 18.3734 45.3717C19.7671 47.6705 21.4444 49.8183 23.3926 51.7666ZM31.3302 50.4894L28.9032 52.9164V43.3684C31.3311 43.4271 33.6948 43.8679 35.9213 44.6717C34.6279 46.7745 33.096 48.7236 31.3302 50.4894ZM37.6175 45.369C39.7004 46.3246 41.6387 47.6072 43.3666 49.1933C39.6272 51.912 35.1454 53.6652 30.2861 54.0879L32.6064 51.7675C34.5448 49.8301 36.2184 47.6885 37.6175 45.369ZM28.9032 41.5619V38.8134C31.1703 40.5223 33.9803 41.5484 37.0323 41.5484C37.2337 41.5484 37.4288 41.5267 37.6275 41.5186C37.3782 42.0506 37.1144 42.5735 36.8381 43.0893C34.3289 42.1436 31.6554 41.6234 28.9032 41.5619ZM37.0323 39.7419C34.3063 39.7419 31.8017 38.7999 29.8064 37.2364V35.2258C29.8064 33.0418 31.3654 31.2164 33.4284 30.8C33.4781 32.7501 35.0714 34.3226 37.0323 34.3226C38.9932 34.3226 40.5865 32.7501 40.6361 30.8C42.6991 31.2164 44.2581 33.0418 44.2581 35.2258V37.2364C42.2628 38.7999 39.7582 39.7419 37.0323 39.7419ZM38.8387 30.7097C38.8387 31.7059 38.0285 32.5161 37.0323 32.5161C36.036 32.5161 35.2258 31.7059 35.2258 30.7097H38.8387ZM40.6452 25.2903C40.6452 27.2828 39.0248 28.9032 37.0323 28.9032C35.0397 28.9032 33.4194 27.2828 33.4194 25.2903V23.4839C33.4194 21.4914 35.0397 19.871 37.0323 19.871C39.0248 19.871 40.6452 21.4914 40.6452 23.4839V25.2903ZM40.9523 29.0225C41.879 28.0497 42.4516 26.7373 42.4516 25.2903V23.4839C42.4516 20.4951 40.021 18.0645 37.0323 18.0645C34.0435 18.0645 31.6129 20.4951 31.6129 23.4839V25.2903C31.6129 26.7373 32.1855 28.0497 33.1123 29.0225C30.2039 29.5888 28 32.1539 28 35.2258V35.4923C26.3092 33.4573 25.2903 30.8461 25.2903 28C25.2903 21.5257 30.5579 16.2581 37.0323 16.2581C43.5066 16.2581 48.7742 21.5257 48.7742 28C48.7742 30.8461 47.7554 33.4573 46.0645 35.4923V35.2258C46.0645 32.1539 43.8606 29.5888 40.9523 29.0225ZM11.1937 7.92942C13.0751 9.69974 15.1905 11.1377 17.4738 12.2044C15.0477 16.7494 13.7092 21.821 13.5701 27.0968H1.82903C2.09187 19.4112 5.67587 12.5566 11.1937 7.92942ZM1.82903 28.9032H13.5701C13.7083 34.179 15.0477 39.2506 17.4729 43.7956C15.1905 44.8632 13.0742 46.3003 11.1928 48.0706C5.67587 43.4434 2.09187 36.5888 1.82903 28.9032ZM44.8063 48.0706C42.9213 46.2966 40.8005 44.8569 38.5126 43.7893C38.9462 42.9737 39.3409 42.1355 39.7085 41.2801C45.6129 40.0924 50.1263 35.0515 50.5346 28.9032H54.1701C53.9081 36.5888 50.3241 43.4434 44.8063 48.0706Z" fill="#916AFF"/>
</svg>
