<svg width="56" height="52" viewBox="0 0 56 52" fill="none" xmlns="http://www.w3.org/2000/svg">
<path d="M52.5 42.3993V16.2977C52.5061 15.6451 52.2331 15.0169 51.741 14.551C51.2489 14.085 50.5778 13.8194 49.875 13.8123H42.6029C43.6214 12.7617 44.2901 11.4594 44.5282 10.0632C44.7662 8.667 44.5633 7.23664 43.944 5.94527C43.3247 4.65391 42.3156 3.5569 41.0388 2.78703C39.7621 2.01715 38.2724 1.60742 36.75 1.60742C35.2276 1.60742 33.7379 2.01715 32.4612 2.78703C31.1844 3.5569 30.1753 4.65391 29.556 5.94527C28.9367 7.23664 28.7338 8.667 28.9718 10.0632C29.2099 11.4594 29.8786 12.7617 30.8971 13.8123H6.125C5.42221 13.8194 4.75114 14.085 4.25902 14.551C3.7669 15.0169 3.49393 15.6451 3.5 16.2977V42.3993C2.98996 42.5667 2.54808 42.8764 2.23483 43.286C1.92157 43.6955 1.75224 44.185 1.75 44.6873V45.4998C1.75139 46.7923 2.30496 48.0316 3.28922 48.9455C4.27349 49.8595 5.60804 50.3735 7 50.3748H49C50.392 50.3735 51.7265 49.8595 52.7108 48.9455C53.695 48.0316 54.2486 46.7923 54.25 45.4998V44.6873C54.2478 44.185 54.0784 43.6955 53.7652 43.286C53.4519 42.8764 53.01 42.5667 52.5 42.3993ZM36.75 3.24981C37.9614 3.24981 39.1456 3.58338 40.1529 4.20833C41.1601 4.83328 41.9452 5.72154 42.4088 6.7608C42.8723 7.80005 42.9936 8.94362 42.7573 10.0469C42.521 11.1502 41.9376 12.1636 41.081 12.959C40.2244 13.7544 39.1331 14.2961 37.9449 14.5155C36.7568 14.735 35.5253 14.6223 34.4061 14.1919C33.2869 13.7614 32.3303 13.0324 31.6572 12.0971C30.9842 11.1618 30.625 10.0622 30.625 8.93731C30.6271 7.42949 31.2731 5.98397 32.4213 4.91778C33.5695 3.85158 35.1262 3.25175 36.75 3.24981ZM40.25 38.9998H33.25V26.8123H40.25V38.9998ZM24.5 38.9998V30.0623H31.5V38.9998H24.5ZM15.75 38.9998V34.1248H22.75V38.9998H15.75ZM5.25 16.2977C5.24364 16.076 5.33214 15.861 5.49613 15.6997C5.66013 15.5385 5.88625 15.4441 6.125 15.4373H33.1625C34.0088 15.8438 34.9281 16.103 35.875 16.2019V25.1873H32.375C32.1429 25.1873 31.9204 25.2729 31.7563 25.4253C31.5922 25.5777 31.5 25.7843 31.5 25.9998V28.4373H23.625C23.3929 28.4373 23.1704 28.5229 23.0063 28.6753C22.8422 28.8277 22.75 29.0343 22.75 29.2498V32.4998H14.875C14.6429 32.4998 14.4204 32.5854 14.2563 32.7378C14.0922 32.8902 14 33.0968 14 33.3123V38.9998H10.5V40.6248H46.375V38.9998H42V25.9998C42 25.7843 41.9078 25.5777 41.7437 25.4253C41.5796 25.2729 41.3571 25.1873 41.125 25.1873H37.625V23.5623C39.2488 23.5604 40.8055 22.9605 41.9537 21.8943C43.1019 20.8281 43.7479 19.3826 43.75 17.8748C43.75 17.6593 43.6578 17.4527 43.4937 17.3003C43.3296 17.1479 43.1071 17.0623 42.875 17.0623H42C41.1843 17.0621 40.3769 17.2138 39.6254 17.5084C38.874 17.803 38.1937 18.2346 37.625 18.7775V16.2019C38.5719 16.103 39.4912 15.8438 40.3375 15.4373H49.875C50.1138 15.4441 50.3399 15.5385 50.5039 15.6997C50.6679 15.861 50.7564 16.076 50.75 16.2977V42.2498H5.25V16.2977ZM37.7125 21.9373C37.9125 21.0339 38.437 20.2203 39.2 19.6299C39.9631 19.0394 40.9195 18.7071 41.9125 18.6873C41.7125 19.5907 41.188 20.4043 40.425 20.9948C39.6619 21.5852 38.7055 21.9175 37.7125 21.9373ZM22.75 43.8748H33.25V44.6873C33.25 44.9028 33.1578 45.1095 32.9937 45.2618C32.8296 45.4142 32.6071 45.4998 32.375 45.4998H23.625C23.3929 45.4998 23.1704 45.4142 23.0063 45.2618C22.8422 45.1095 22.75 44.9028 22.75 44.6873V43.8748ZM52.5 45.4998C52.5 46.3618 52.1312 47.1884 51.4749 47.7979C50.8185 48.4074 49.9283 48.7498 49 48.7498H7C6.07174 48.7498 5.1815 48.4074 4.52513 47.7979C3.86875 47.1884 3.5 46.3618 3.5 45.4998V44.6873C3.5 44.4718 3.59219 44.2652 3.75628 44.1128C3.92038 43.9604 4.14294 43.8748 4.375 43.8748H21V44.6873C21 45.3338 21.2766 45.9538 21.7688 46.4109C22.2611 46.868 22.9288 47.1248 23.625 47.1248H32.375C33.0712 47.1248 33.7389 46.868 34.2312 46.4109C34.7234 45.9538 35 45.3338 35 44.6873V43.8748H51.625C51.8571 43.8748 52.0796 43.9604 52.2437 44.1128C52.4078 44.2652 52.5 44.4718 52.5 44.6873V45.4998Z" fill="#916AFF"/>
<path d="M37.625 11.3756H35.875C35.6429 11.3756 35.4203 11.29 35.2563 11.1376C35.0922 10.9853 35 10.7786 35 10.5631H33.25C33.25 11.2096 33.5265 11.8296 34.0188 12.2867C34.5111 12.7438 35.1788 13.0006 35.875 13.0006V13.8131H37.625V13.0006C38.3212 13.0006 38.9888 12.7438 39.4811 12.2867C39.9734 11.8296 40.25 11.2096 40.25 10.5631C40.25 9.91666 39.9734 9.29667 39.4811 8.83955C38.9888 8.38243 38.3212 8.12562 37.625 8.12562H35.875C35.6429 8.12562 35.4203 8.04002 35.2563 7.88765C35.0922 7.73528 35 7.52861 35 7.31312C35 7.09764 35.0922 6.89097 35.2563 6.7386C35.4203 6.58623 35.6429 6.50062 35.875 6.50062H37.625C37.857 6.50062 38.0796 6.58623 38.2437 6.7386C38.4078 6.89097 38.5 7.09764 38.5 7.31312H40.25C40.25 6.66666 39.9734 6.04667 39.4811 5.58955C38.9888 5.13243 38.3212 4.87562 37.625 4.87562H37.6083L37.625 4.07937L35.875 4.04688L35.8575 4.87562C35.1613 4.87778 34.4945 5.13665 34.0039 5.5953C33.5132 6.05394 33.2389 6.67478 33.2412 7.32125C33.2435 7.96771 33.5223 8.58685 34.0163 9.04244C34.5102 9.49804 35.1788 9.75278 35.875 9.75062H37.625C37.857 9.75062 38.0796 9.83623 38.2437 9.9886C38.4078 10.141 38.5 10.3476 38.5 10.5631C38.5 10.7786 38.4078 10.9853 38.2437 11.1376C38.0796 11.29 37.857 11.3756 37.625 11.3756Z" fill="#916AFF"/>
<path d="M11.375 17.0625H7.875C7.64294 17.0625 7.42038 17.1481 7.25628 17.3005C7.09219 17.4528 7 17.6595 7 17.875V21.125H8.75V18.6875H11.375V17.0625Z" fill="#916AFF"/>
</svg>
