<svg width="56" height="56" viewBox="0 0 56 56" fill="none" xmlns="http://www.w3.org/2000/svg">
<g clip-path="url(#clip0_2733_11668)">
<path d="M22.832 9.77039C26.2128 8.8139 29.8398 8.81882 33.2178 9.78472" stroke="#916AFF" stroke-width="1.5" stroke-miterlimit="10" stroke-linecap="round" stroke-linejoin="round"/>
<path d="M9.7811 33.2061C8.82855 29.8661 8.79584 26.2043 9.79893 22.7324" stroke="#916AFF" stroke-width="1.5" stroke-miterlimit="10" stroke-linecap="round" stroke-linejoin="round"/>
<path d="M33.2571 46.2041C29.8415 47.1887 26.1702 47.1897 22.7539 46.2071" stroke="#916AFF" stroke-width="1.5" stroke-miterlimit="10" stroke-linecap="round" stroke-linejoin="round"/>
<path d="M46.2021 22.7354C47.1733 26.099 47.1907 29.7132 46.2528 33.0862" stroke="#916AFF" stroke-width="1.5" stroke-miterlimit="10" stroke-linecap="round" stroke-linejoin="round"/>
<path d="M6.62645 14.0703C6.34663 15.7567 6.62973 17.0034 6.62973 17.0796" stroke="#916AFF" stroke-width="1.5" stroke-miterlimit="10" stroke-linecap="round" stroke-linejoin="round"/>
<path d="M14.071 6.62686C16.8682 6.15551 19.8365 7.0223 21.9699 9.157L23.1349 10.322C24.0997 11.2868 24.0997 12.851 23.1349 13.8158C22.1701 14.7806 20.6058 14.7806 19.641 13.8158L18.8031 12.9779C18.2234 12.3982 17.3067 12.3391 16.6504 12.8313C15.2032 13.9165 13.9168 15.2029 12.8316 16.65C12.3394 17.3064 12.3985 18.223 12.9782 18.8028L13.8161 19.6407C14.7809 20.6055 14.7809 22.1697 13.8161 23.1345C12.8506 24.1001 11.2879 24.1001 10.3223 23.1345C9.15349 21.9657 8.65435 21.5221 8.05469 20.6339" stroke="#916AFF" stroke-width="1.5" stroke-miterlimit="10" stroke-linecap="round" stroke-linejoin="round"/>
<path d="M7.40928 13.9982C11.0483 13.9982 13.9982 11.0483 13.9982 7.40928C13.9982 3.77029 11.0483 0.820312 7.40928 0.820312C3.77029 0.820312 0.820312 3.77029 0.820312 7.40928C0.820312 11.0483 3.77029 13.9982 7.40928 13.9982Z" stroke="#916AFF" stroke-width="1.5" stroke-miterlimit="10" stroke-linecap="round" stroke-linejoin="round"/>
<path d="M49.3816 14.1197C49.8268 16.8927 48.9802 19.8319 46.8428 21.9694L45.6778 23.1343C44.7122 24.0999 43.1495 24.0999 42.1839 23.1343C41.2191 22.1695 41.2191 20.6053 42.1839 19.6405L43.0218 18.8026C43.6016 18.2228 43.6607 17.3062 43.1684 16.6499C42.0833 15.2027 40.7969 13.9163 39.3497 12.8311C38.6934 12.3389 37.7767 12.398 37.197 12.9777L36.359 13.8156C35.3942 14.7804 33.83 14.7804 32.8652 13.8156C31.9004 12.8508 31.9004 11.2866 32.8652 10.3218L34.0302 9.1568C36.1444 7.04124 39.0742 6.16844 41.8798 6.61791" stroke="#916AFF" stroke-width="1.5" stroke-miterlimit="10" stroke-linecap="round" stroke-linejoin="round"/>
<path d="M55.1788 7.35075C55.1646 5.68478 54.5214 4.02209 53.2503 2.74991C50.6764 0.177113 46.5054 0.177113 43.9316 2.74991C41.3588 5.3238 41.3588 9.49475 43.9316 12.0686C46.8742 15.01 51.793 14.5285 54.1002 11.0262" stroke="#916AFF" stroke-width="1.5" stroke-miterlimit="10" stroke-linecap="round" stroke-linejoin="round"/>
<path d="M14.0641 49.3735C16.9275 49.8475 19.866 48.9482 21.9695 46.8433L23.1345 45.6783C24.0993 44.7135 24.0993 43.1493 23.1345 42.1845C22.1697 41.2197 20.6055 41.2197 19.6407 42.1845L18.8028 43.0224C18.223 43.6022 17.3063 43.6612 16.65 43.169C15.2028 42.0839 13.9164 40.7975 12.8313 39.3503C12.3391 38.6939 12.3981 37.7773 12.9779 37.1975L13.8158 36.3596C14.7806 35.3948 14.7806 33.8306 13.8158 32.8658C12.8502 31.9002 11.2875 31.9002 10.3219 32.8658L9.15697 34.0308C7.00531 36.1824 6.16193 39.1468 6.62683 41.9362" stroke="#916AFF" stroke-width="1.5" stroke-miterlimit="10" stroke-linecap="round" stroke-linejoin="round"/>
<path d="M7.40928 55.1799C11.0483 55.1799 13.9982 52.2299 13.9982 48.5909C13.9982 44.9519 11.0483 42.002 7.40928 42.002C3.77029 42.002 0.820312 44.9519 0.820312 48.5909C0.820312 52.2299 3.77029 55.1799 7.40928 55.1799Z" stroke="#916AFF" stroke-width="1.5" stroke-miterlimit="10" stroke-linecap="round" stroke-linejoin="round"/>
<path d="M41.8962 49.3789C39.0657 49.8411 36.1311 48.9454 34.0302 46.8433L32.8652 45.6783C31.9004 44.7135 31.9004 43.1493 32.8652 42.1845C33.83 41.2197 35.3942 41.2197 36.359 42.1845L37.197 43.0224C37.7767 43.6022 38.6934 43.6612 39.3497 43.169C40.7969 42.0839 42.0833 40.7975 43.1684 39.3503C43.6607 38.6939 43.6016 37.7773 43.0218 37.1975L42.1839 36.3596C41.2191 35.3948 41.2191 33.8306 42.1839 32.8658C43.1495 31.9002 44.7122 31.9002 45.6778 32.8658C46.8618 34.0498 47.2128 34.3662 47.7102 35.0349" stroke="#916AFF" stroke-width="1.5" stroke-miterlimit="10" stroke-linecap="round" stroke-linejoin="round"/>
<path d="M49.2959 38.5361C49.5333 39.642 49.5606 40.783 49.379 41.8965" stroke="#916AFF" stroke-width="1.5" stroke-miterlimit="10" stroke-linecap="round" stroke-linejoin="round"/>
<path d="M48.5909 55.1799C52.2299 55.1799 55.1799 52.2299 55.1799 48.5909C55.1799 44.9519 52.2299 42.002 48.5909 42.002C44.9519 42.002 42.002 44.9519 42.002 48.5909C42.002 52.2299 44.9519 55.1799 48.5909 55.1799Z" stroke="#916AFF" stroke-width="1.5" stroke-miterlimit="10" stroke-linecap="round" stroke-linejoin="round"/>
<path d="M20.6308 37.7083L18.2921 35.3696C17.6513 34.7288 17.6513 33.6899 18.2921 33.0491L21.2132 30.1281C21.854 29.4873 22.8929 29.4873 23.5336 30.1281L25.8724 32.4668C26.5131 33.1076 26.5131 34.1464 25.8724 34.7872L22.9513 37.7083C22.3106 38.3491 21.2716 38.3491 20.6308 37.7083Z" stroke="#916AFF" stroke-width="1.5" stroke-miterlimit="10" stroke-linecap="round" stroke-linejoin="round"/>
<path d="M35.3696 37.7083L37.7083 35.3696C38.3491 34.7288 38.3491 33.6899 37.7083 33.0491L34.7872 30.1281C34.1464 29.4873 33.1076 29.4873 32.4668 30.1281L30.1281 32.4668C29.4873 33.1076 29.4873 34.1464 30.1281 34.7872L33.0491 37.7083C33.6898 38.3491 34.7288 38.3491 35.3696 37.7083Z" stroke="#916AFF" stroke-width="1.5" stroke-miterlimit="10" stroke-linecap="round" stroke-linejoin="round"/>
<path d="M20.6308 18.2921L18.2921 20.6308C17.6513 21.2716 17.6513 22.3105 18.2921 22.9513L21.2132 25.8724C21.854 26.5131 22.8929 26.5131 23.5336 25.8724L25.8724 23.5336C26.5131 22.8929 26.5131 21.854 25.8724 21.2132L22.9513 18.2921C22.3106 17.6513 21.2716 17.6513 20.6308 18.2921Z" stroke="#916AFF" stroke-width="1.5" stroke-miterlimit="10" stroke-linecap="round" stroke-linejoin="round"/>
<path d="M35.3696 18.2921L37.7083 20.6308C38.3491 21.2716 38.3491 22.3105 37.7083 22.9513L34.7872 25.8724C34.1464 26.5131 33.1076 26.5131 32.4668 25.8724L30.1281 23.5336C29.4873 22.8929 29.4873 21.854 30.1281 21.2132L33.0491 18.2921C33.6898 17.6513 34.7288 17.6513 35.3696 18.2921Z" stroke="#916AFF" stroke-width="1.5" stroke-miterlimit="10" stroke-linecap="round" stroke-linejoin="round"/>
</g>
<defs>
<clipPath id="clip0_2733_11668">
<rect width="56" height="56" fill="white"/>
</clipPath>
</defs>
</svg>
