<svg width="56" height="56" viewBox="0 0 56 56" fill="none" xmlns="http://www.w3.org/2000/svg">
<path d="M27.9997 46.9668C26.5058 46.9668 25.29 48.1825 25.29 49.6765C25.29 51.1704 26.5058 52.3862 27.9997 52.3862C29.4937 52.3862 30.7094 51.1704 30.7094 49.6765C30.7094 48.1825 29.4937 46.9668 27.9997 46.9668ZM27.9997 50.5797C27.5011 50.5797 27.0965 50.1751 27.0965 49.6765C27.0965 49.1779 27.5011 48.7732 27.9997 48.7732C28.4983 48.7732 28.9029 49.1779 28.9029 49.6765C28.9029 50.1751 28.4983 50.5797 27.9997 50.5797Z" fill="#916AFF"/>
<path d="M25.29 3.61328H30.7094V5.41973H25.29V3.61328Z" fill="#916AFF"/>
<path d="M46.9677 28H43.3548H39.7419C38.248 28 37.0322 29.2157 37.0322 30.7097V36.129C37.0322 36.6285 37.436 37.0323 37.9355 37.0323H48.7742C49.2736 37.0323 49.6774 36.6285 49.6774 36.129V30.7097C49.6774 29.2157 48.4616 28 46.9677 28ZM47.8709 35.2258H38.8387V30.7097C38.8387 30.2111 39.2433 29.8065 39.7419 29.8065H46.9677C47.4663 29.8065 47.8709 30.2111 47.8709 30.7097V35.2258Z" fill="#916AFF"/>
<path d="M46.968 24.3871V22.5807C46.968 20.5882 45.3476 18.9678 43.3551 18.9678C41.3626 18.9678 39.7422 20.5882 39.7422 22.5807V24.3871C39.7422 26.3796 41.3626 28 43.3551 28C45.3476 28 46.968 26.3796 46.968 24.3871ZM45.1615 24.3871C45.1615 25.3834 44.3513 26.1936 43.3551 26.1936C42.3588 26.1936 41.5486 25.3834 41.5486 24.3871V22.5807C41.5486 21.5844 42.3588 20.7742 43.3551 20.7742C44.3513 20.7742 45.1615 21.5844 45.1615 22.5807V24.3871Z" fill="#916AFF"/>
<path d="M56 28.9032C56 22.2356 50.8092 16.7702 44.2581 16.3041V5.41935C44.2581 2.43058 41.8275 0 38.8387 0H17.1613C14.1725 0 11.7419 2.43058 11.7419 5.41935V14.4516H13.5484V9.03226H42.4516V16.3041C35.9005 16.7702 30.7097 22.2356 30.7097 28.9032C30.7097 35.5708 35.9005 41.0363 42.4516 41.5023V43.3548H13.5484V36.129H25.2903V34.3226H22.5806V28C22.5806 27.5005 22.1769 27.0968 21.6774 27.0968H18.0645C17.565 27.0968 17.1613 27.5005 17.1613 28V34.3226H15.3548V25.2903C15.3548 24.7908 14.9511 24.3871 14.4516 24.3871H10.8387C10.3392 24.3871 9.93548 24.7908 9.93548 25.2903V34.3226H8.12903V20.7742C8.12903 20.2747 7.72529 19.871 7.22581 19.871H3.6129C3.11342 19.871 2.70968 20.2747 2.70968 20.7742V34.3226H0V36.129H11.7419V50.5806C11.7419 53.5694 14.1725 56 17.1613 56H38.8387C41.8275 56 44.2581 53.5694 44.2581 50.5806V41.5023C50.8092 41.0363 56 35.5708 56 28.9032ZM18.9677 28.9032H20.7742V34.3226H18.9677V28.9032ZM11.7419 26.1935H13.5484V34.3226H11.7419V26.1935ZM4.51613 21.6774H6.32258V34.3226H4.51613V21.6774ZM13.5484 7.22581V5.41935C13.5484 3.42684 15.1688 1.80645 17.1613 1.80645H38.8387C40.8312 1.80645 42.4516 3.42684 42.4516 5.41935V7.22581H13.5484ZM38.8387 54.1935H17.1613C15.1688 54.1935 13.5484 52.5732 13.5484 50.5806V45.1613H42.4516V50.5806C42.4516 52.5732 40.8312 54.1935 38.8387 54.1935ZM43.3548 39.7419C37.3782 39.7419 32.5161 34.8799 32.5161 28.9032C32.5161 22.9266 37.3782 18.0645 43.3548 18.0645C49.3315 18.0645 54.1935 22.9266 54.1935 28.9032C54.1935 34.8799 49.3315 39.7419 43.3548 39.7419Z" fill="#916AFF"/>
<path d="M5.41973 15.7291L7.49083 17.8002C7.65973 17.97 7.88915 18.0649 8.12941 18.0649H16.7877L21.0392 22.3163L22.3164 21.0392L17.8003 16.5231C17.6313 16.3532 17.4019 16.2584 17.1617 16.2584H8.50335L6.69689 14.452H8.12941V12.6455H4.51651C4.01702 12.6455 3.61328 13.0492 3.61328 13.5487V17.1616H5.41973V15.7291Z" fill="#916AFF"/>
</svg>
