<svg width="56" height="56" viewBox="0 0 56 56" fill="none" xmlns="http://www.w3.org/2000/svg">
<path d="M36.6299 11.4597V8.34517H38.9711C40.2611 8.34517 41.3112 7.29523 41.3112 6.00485V2.34033C41.3112 1.04995 40.2612 0 38.9711 0H26.8331C25.5431 0 24.493 1.04995 24.493 2.34033V6.00496C24.493 7.29534 25.543 8.34529 26.8331 8.34529H29.1742V11.4675C26.5996 11.9014 24.1749 12.7736 21.9754 14.0075C21.81 12.6888 20.6945 11.6615 19.3321 11.6615H12.3054C10.8297 11.6615 9.62865 12.8625 9.62865 14.3385C9.62865 15.8144 10.8297 17.0153 12.3054 17.0153H17.8199C17.3314 17.4623 16.8624 17.9297 16.4145 18.4179C16.2111 18.3683 16.0016 18.3347 15.783 18.3347H2.67678C1.20104 18.3347 0 19.5357 0 21.0117C0 22.4877 1.20104 23.6885 2.67678 23.6885H12.7943C12.5819 24.1209 12.3828 24.5605 12.1982 25.0082H8.66997C7.19424 25.0082 5.9932 26.2088 5.9932 27.6849C5.9932 29.161 7.19424 30.3617 8.66997 30.3617H10.7064C10.5547 31.4104 10.4744 32.482 10.4744 33.5723C10.4744 45.9389 20.5352 56 32.9021 56C45.2689 56 55.3298 45.9389 55.3298 33.5723C55.3298 22.4757 47.2279 13.2409 36.6299 11.4597ZM25.8589 6.00485V2.34033C25.8589 1.80303 26.2959 1.36581 26.8332 1.36581H38.9712C39.5085 1.36581 39.9455 1.80303 39.9455 2.34033V6.00496C39.9455 6.54226 39.5085 6.97947 38.9712 6.97947C34.6186 6.97947 31.3444 6.97947 26.8332 6.97947C26.2958 6.97936 25.8589 6.54215 25.8589 6.00485ZM30.5402 8.34517H35.2641V11.2692C34.4876 11.1875 33.7 11.1441 32.9022 11.1441C32.1032 11.1441 31.3178 11.199 30.5403 11.2812L30.5402 8.34517ZM10.9946 14.3385C10.9946 13.6155 11.5825 13.0273 12.3054 13.0273H19.3321C20.0551 13.0273 20.6429 13.6155 20.6429 14.3385C20.6429 15.0615 20.0549 15.6493 19.3321 15.6493H12.3054C11.5825 15.6493 10.9946 15.0614 10.9946 14.3385ZM1.36581 21.0116C1.36581 20.2886 1.95378 19.7004 2.67666 19.7004H15.783C16.506 19.7004 17.0944 20.2886 17.0944 21.0116C17.0944 21.7346 16.5059 22.3224 15.783 22.3224H2.67678C1.95378 22.3226 1.36581 21.7346 1.36581 21.0116ZM7.35901 27.6848C7.35901 26.9618 7.94698 26.374 8.66986 26.374H18.8028C19.5258 26.374 20.1136 26.9619 20.1136 27.6848C20.1136 28.4077 19.5257 28.9957 18.8028 28.9957H8.66997C7.94698 28.9958 7.35901 28.4078 7.35901 27.6848ZM21.227 22.8603L23.3288 24.9625C23.4622 25.0958 23.6367 25.1625 23.8118 25.1625C23.9867 25.1625 24.1612 25.0958 24.2947 24.9625C24.5614 24.696 24.5614 24.2636 24.2947 23.9968L22.1889 21.8907C24.8559 19.4412 28.3609 17.8979 32.2192 17.7328V20.7147C32.2192 21.0919 32.5249 21.3977 32.9022 21.3977C33.2794 21.3977 33.5852 21.092 33.5852 20.7147V17.7266C37.4447 17.8909 40.9511 19.4395 43.6193 21.8893L41.5108 23.9978C41.244 24.2646 41.244 24.6967 41.5108 24.9635C41.6441 25.0968 41.8186 25.1635 41.9937 25.1635C42.1686 25.1635 42.3431 25.0968 42.4766 24.9635L44.5851 22.855C47.0347 25.5235 48.5831 29.0298 48.7475 32.8894L45.7594 32.8892C45.3822 32.8892 45.0764 33.1949 45.0764 33.5722C45.0764 33.9494 45.3821 34.2551 45.7594 34.2551L48.7475 34.2553C48.583 38.1147 47.0345 41.6208 44.5848 44.2893L42.4766 42.1808C42.2098 41.9141 41.7777 41.9141 41.5109 42.1808C41.2441 42.4474 41.2441 42.8797 41.5109 43.1465L43.619 45.255C40.9508 47.7045 37.4445 49.253 33.5852 49.4174V46.4293C33.5852 46.0521 33.2795 45.7463 32.9022 45.7463C32.525 45.7463 32.2192 46.052 32.2192 46.4293V49.4174C28.3596 49.253 24.8532 47.7041 22.1849 45.2545L24.2935 43.1456C24.5603 42.8788 24.5603 42.4464 24.2935 42.1799C24.0267 41.9131 23.5946 41.9131 23.3278 42.1799L21.2192 44.2888C18.7694 41.6202 17.221 38.1136 17.0569 34.2538L20.0456 34.254C20.4227 34.254 20.7285 33.9483 20.7285 33.571C20.7285 33.1937 20.4228 32.8881 20.0456 32.8881L17.0629 32.8878C17.1003 32.0268 17.2008 31.1821 17.3712 30.3616H18.803C20.2788 30.3616 21.4798 29.1609 21.4798 27.6848C21.4798 26.4508 20.6359 25.4195 19.4982 25.1113C20.0064 24.3086 20.5873 23.5574 21.227 22.8603ZM32.9021 54.634C21.2886 54.634 11.8402 45.1856 11.8402 33.572C11.8402 32.4801 11.9263 31.4086 12.0882 30.3615H15.9778C15.78 31.4021 15.6736 32.4748 15.6736 33.572C15.6736 43.0259 23.3555 50.8005 32.9021 50.8005C42.3587 50.8005 50.1304 43.116 50.1305 33.5724V33.5722C50.1305 28.8381 48.2106 24.5445 45.1092 21.4275C45.0991 21.4158 45.0954 21.4009 45.0844 21.3899C45.0733 21.3789 45.0585 21.3752 45.0469 21.3651C41.9298 18.2637 37.6362 16.3435 32.9022 16.3435C28.185 16.3435 23.9109 18.2549 20.7976 21.3376C20.7729 21.3565 20.7436 21.3659 20.7209 21.3886C20.6947 21.4148 20.6831 21.4484 20.6619 21.4774C19.6208 22.5317 18.7123 23.7156 17.9683 25.008H13.6846C13.8839 24.5593 14.0984 24.1197 14.3276 23.6884H15.7829C17.2592 23.6884 18.4601 22.4877 18.4601 21.0116C18.4601 20.2556 18.1421 19.5748 17.6364 19.0877C18.3846 18.2994 19.1924 17.5692 20.0536 16.9036C20.6606 16.7324 21.1836 16.3616 21.5336 15.8549C24.8153 13.741 28.7166 12.5099 32.9019 12.5099C44.5154 12.5099 53.9638 21.9583 53.9638 33.572C53.964 45.1856 44.5156 54.634 32.9021 54.634Z" fill="#916AFF"/>
<path d="M32.5405 37.1155C32.6376 37.1232 32.7347 37.1269 32.8307 37.1269C33.6923 37.1269 34.5172 36.8236 35.1798 36.2581C35.1798 36.2581 35.1798 36.2581 35.1798 36.2578C36.077 35.4916 36.5033 34.379 36.4385 33.2831L41.1724 29.2397C41.6153 28.8612 41.8847 28.3332 41.9306 27.7524C41.9765 27.1713 41.793 26.6077 41.4147 26.1646C41.0364 25.7217 40.5083 25.4526 39.9272 25.407C39.3504 25.3624 38.7827 25.5444 38.3399 25.9227L33.6058 29.9661C32.5335 29.7307 31.3677 29.9781 30.4708 30.7445C29.734 31.3735 29.2868 32.2514 29.2106 33.2167C29.1348 34.1824 29.4395 35.1196 30.0685 35.8556C30.6971 36.5921 31.5753 37.0398 32.5405 37.1155ZM39.2268 26.9616C39.3922 26.8196 39.6051 26.7527 39.8207 26.7687C40.0378 26.7858 40.2353 26.8864 40.3766 27.052C40.518 27.2174 40.5863 27.4282 40.5692 27.6451C40.5521 27.8622 40.4513 28.0597 40.2859 28.201L36.0388 31.8286C35.9144 31.5895 35.7645 31.3598 35.5822 31.1464C35.3999 30.933 35.1966 30.7492 34.9801 30.5889L39.2268 26.9616ZM31.3576 31.7829C31.7829 31.4201 32.3047 31.2424 32.8238 31.2424C33.4624 31.2424 34.0973 31.511 34.5439 32.0334C35.3527 32.981 35.2402 34.41 34.2932 35.2194C33.8344 35.6113 33.2554 35.8034 32.6478 35.754C32.0465 35.7067 31.4991 35.4277 31.1069 34.9687C30.7148 34.5099 30.5254 33.9259 30.5723 33.3241C30.6197 32.7225 30.8988 32.175 31.3576 31.7829Z" fill="#916AFF"/>
</svg>
