<svg width="56" height="56" viewBox="0 0 56 56" fill="none" xmlns="http://www.w3.org/2000/svg">
<path d="M55.0966 50.581H52.3869V38.8391C52.3869 38.3397 51.9831 37.9359 51.4837 37.9359H46.0643C45.5648 37.9359 45.1611 38.3397 45.1611 38.8391V50.581H43.3547V29.8069C43.3547 29.3074 42.9509 28.9037 42.4514 28.9037H37.0321C36.5326 28.9037 36.1289 29.3074 36.1289 29.8069V50.581H34.3224V24.3876C34.3224 23.8881 33.9187 23.4844 33.4192 23.4844H27.9999C27.5004 23.4844 27.0967 23.8881 27.0967 24.3876V50.581H25.2902V18.9683C25.2902 18.4688 24.8865 18.065 24.387 18.065H18.9677C18.4682 18.065 18.0644 18.4688 18.0644 18.9683V50.581H16.258V13.5489C16.258 13.0494 15.8543 12.6457 15.3548 12.6457H9.93544C9.43596 12.6457 9.03222 13.0494 9.03222 13.5489V50.581H5.41933V6.32314C5.41933 5.82366 5.01559 5.41992 4.51611 5.41992H0.903222C0.40374 5.41992 0 5.82366 0 6.32314V55.0971C0 55.5966 0.40374 56.0004 0.903222 56.0004H55.0966C55.596 56.0004 55.9998 55.5966 55.9998 55.0971V51.4843C55.9998 50.9848 55.596 50.581 55.0966 50.581ZM46.9676 39.7424H50.5804V50.581H46.9676V39.7424ZM37.9353 30.7101H41.5482V50.581H37.9353V30.7101ZM28.9031 25.2908H32.516V50.581H28.9031V25.2908ZM19.8709 19.8715H23.4838V50.581H19.8709V19.8715ZM10.8387 14.4521H14.4516V50.581H10.8387V14.4521ZM54.1933 54.1939H1.80644V7.22637H3.61289V51.4843C3.61289 51.9837 4.01663 52.3875 4.51611 52.3875H54.1933V54.1939Z" fill="#916AFF"/>
<path d="M20.7742 4.89024L49.942 34.058L51.2191 32.7808L22.0514 3.61308H25.2903V1.80664H19.871C19.3715 1.80664 18.9678 2.21038 18.9678 2.70986V8.1292H20.7742V4.89024Z" fill="#916AFF"/>
<path d="M46.0645 6.32278H47.871V13.5486C47.871 14.048 48.2747 14.4518 48.7742 14.4518H52.3871C52.8866 14.4518 53.2903 14.048 53.2903 13.5486V6.32278H55.0967C55.4616 6.32278 55.7922 6.1033 55.9313 5.76549C56.0713 5.42769 55.9936 5.0393 55.7353 4.78098L51.2192 0.26487C50.8661 -0.08829 50.2952 -0.08829 49.9421 0.26487L45.4259 4.78098C45.1676 5.0393 45.0899 5.42769 45.2299 5.76549C45.369 6.1033 45.6996 6.32278 46.0645 6.32278ZM50.5806 2.1806L52.9164 4.51634H52.3871C51.8876 4.51634 51.4839 4.92008 51.4839 5.41956V12.6453H49.6774V5.41956C49.6774 4.92008 49.2737 4.51634 48.7742 4.51634H48.2449L50.5806 2.1806Z" fill="#916AFF"/>
<path d="M47.8711 16.2578H53.2904V18.0643H47.8711V16.2578Z" fill="#916AFF"/>
<path d="M47.8711 19.8711H53.2904V21.6775H47.8711V19.8711Z" fill="#916AFF"/>
</svg>
