<svg width="56" height="56" viewBox="0 0 56 56" fill="none" xmlns="http://www.w3.org/2000/svg">
<path d="M9.93548 48.7744H6.32258H2.70968C1.21574 48.7744 0 49.9902 0 51.4841V55.097C0 55.5965 0.404645 56.0002 0.903226 56.0002H11.7419C12.2405 56.0002 12.6452 55.5965 12.6452 55.097V51.4841C12.6452 49.9902 11.4294 48.7744 9.93548 48.7744ZM10.8387 54.1938H9.93548V52.3873H8.12903V54.1938H4.51613V52.3873H2.70968V54.1938H1.80645V51.4841C1.80645 50.9855 2.212 50.5809 2.70968 50.5809H9.93548C10.4332 50.5809 10.8387 50.9855 10.8387 51.4841V54.1938Z" fill="#916AFF"/>
<path d="M9.93577 45.1615V43.3551C9.93577 41.3626 8.31538 39.7422 6.32286 39.7422C4.33035 39.7422 2.70996 41.3626 2.70996 43.3551V45.1615C2.70996 47.1541 4.33035 48.7744 6.32286 48.7744C8.31538 48.7744 9.93577 47.1541 9.93577 45.1615ZM8.12932 45.1615C8.12932 46.1578 7.31912 46.968 6.32286 46.968C5.32661 46.968 4.51641 46.1578 4.51641 45.1615V43.3551C4.51641 42.3588 5.32661 41.5486 6.32286 41.5486C7.31912 41.5486 8.12932 42.3588 8.12932 43.3551V45.1615Z" fill="#916AFF"/>
<path d="M24.3867 48.7744H20.7738H17.1608C15.6669 48.7744 14.4512 49.9902 14.4512 51.4841V55.097C14.4512 55.5965 14.8558 56.0002 15.3544 56.0002H26.1931C26.6917 56.0002 27.0963 55.5965 27.0963 55.097V51.4841C27.0963 49.9902 25.8806 48.7744 24.3867 48.7744ZM25.2899 54.1938H24.3867V52.3873H22.5802V54.1938H18.9673V52.3873H17.1608V54.1938H16.2576V51.4841C16.2576 50.9855 16.6632 50.5809 17.1608 50.5809H24.3867C24.8843 50.5809 25.2899 50.9855 25.2899 51.4841V54.1938Z" fill="#916AFF"/>
<path d="M24.3869 45.1615V43.3551C24.3869 41.3626 22.7666 39.7422 20.774 39.7422C18.7815 39.7422 17.1611 41.3626 17.1611 43.3551V45.1615C17.1611 47.1541 18.7815 48.7744 20.774 48.7744C22.7666 48.7744 24.3869 47.1541 24.3869 45.1615ZM22.5805 45.1615C22.5805 46.1578 21.7703 46.968 20.774 46.968C19.7778 46.968 18.9676 46.1578 18.9676 45.1615V43.3551C18.9676 42.3588 19.7778 41.5486 20.774 41.5486C21.7703 41.5486 22.5805 42.3588 22.5805 43.3551V45.1615Z" fill="#916AFF"/>
<path d="M38.8388 48.7744H35.2259H31.613C30.1191 48.7744 28.9033 49.9902 28.9033 51.4841V55.097C28.9033 55.5965 29.308 56.0002 29.8065 56.0002H40.6453C41.1438 56.0002 41.5485 55.5965 41.5485 55.097V51.4841C41.5485 49.9902 40.3327 48.7744 38.8388 48.7744ZM39.742 54.1938H38.8388V52.3873H37.0324V54.1938H33.4194V52.3873H31.613V54.1938H30.7098V51.4841C30.7098 50.9855 31.1153 50.5809 31.613 50.5809H38.8388C39.3365 50.5809 39.742 50.9855 39.742 51.4841V54.1938Z" fill="#916AFF"/>
<path d="M38.8391 45.1615V43.3551C38.8391 41.3626 37.2187 39.7422 35.2262 39.7422C33.2337 39.7422 31.6133 41.3626 31.6133 43.3551V45.1615C31.6133 47.1541 33.2337 48.7744 35.2262 48.7744C37.2187 48.7744 38.8391 47.1541 38.8391 45.1615ZM37.0326 45.1615C37.0326 46.1578 36.2224 46.968 35.2262 46.968C34.2299 46.968 33.4197 46.1578 33.4197 45.1615V43.3551C33.4197 42.3588 34.2299 41.5486 35.2262 41.5486C36.2224 41.5486 37.0326 42.3588 37.0326 43.3551V45.1615Z" fill="#916AFF"/>
<path d="M53.29 48.7744H49.6771H46.0642C44.5702 48.7744 43.3545 49.9902 43.3545 51.4841V55.097C43.3545 55.5965 43.7591 56.0002 44.2577 56.0002H55.0964C55.595 56.0002 55.9997 55.5965 55.9997 55.097V51.4841C55.9997 49.9902 54.7839 48.7744 53.29 48.7744ZM54.1932 54.1938H53.29V52.3873H51.4835V54.1938H47.8706V52.3873H46.0642V54.1938H45.1609V51.4841C45.1609 50.9855 45.5665 50.5809 46.0642 50.5809H53.29C53.7877 50.5809 54.1932 50.9855 54.1932 51.4841V54.1938Z" fill="#916AFF"/>
<path d="M53.2903 45.1615V43.3551C53.2903 41.3626 51.6699 39.7422 49.6774 39.7422C47.6848 39.7422 46.0645 41.3626 46.0645 43.3551V45.1615C46.0645 47.1541 47.6848 48.7744 49.6774 48.7744C51.6699 48.7744 53.2903 47.1541 53.2903 45.1615ZM51.4838 45.1615C51.4838 46.1578 50.6736 46.968 49.6774 46.968C48.6811 46.968 47.8709 46.1578 47.8709 45.1615V43.3551C47.8709 42.3588 48.6811 41.5486 49.6774 41.5486C50.6736 41.5486 51.4838 42.3588 51.4838 43.3551V45.1615Z" fill="#916AFF"/>
<path d="M7.2254 35.2258H19.8706V37.9355H21.677V35.2258H34.3222V37.9355H36.1286V35.2258H48.7738V37.9355H50.5802V34.3226C50.5802 33.8231 50.1756 33.4194 49.677 33.4194H28.9028V31.6129H39.7415C40.2401 31.6129 40.6448 31.2092 40.6448 30.7097V25.2903C40.6448 21.8048 37.8086 18.9677 34.3222 18.9677H34.0413C34.744 18.1855 35.2949 17.2688 35.6544 16.2581H37.0318C38.5258 16.2581 39.7415 15.0423 39.7415 13.5484C39.7415 12.3724 38.9837 11.3788 37.9351 11.0049V7.22581C37.9351 3.24168 34.6934 0 30.7093 0H25.2899C21.3058 0 18.0641 3.24168 18.0641 7.22581V11.0049C17.0155 11.3788 16.2577 12.3724 16.2577 13.5484C16.2577 15.0423 17.4734 16.2581 18.9673 16.2581H20.3448C20.7033 17.2688 21.2552 18.1855 21.9579 18.9677H21.677C18.1906 18.9677 15.3544 21.8048 15.3544 25.2903V30.7097C15.3544 31.2092 15.7591 31.6129 16.2577 31.6129H27.0964V33.4194H6.32217C5.82359 33.4194 5.41895 33.8231 5.41895 34.3226V37.9355H7.2254V35.2258ZM27.9996 23.6618L26.5897 21.5464C27.0485 21.6277 27.5182 21.6774 27.9996 21.6774C28.481 21.6774 28.9507 21.6277 29.4095 21.5464L27.9996 23.6618ZM26.6809 24.9399L24.7913 25.8846L22.2352 20.7742H23.9035L26.6809 24.9399ZM32.0957 20.7742H33.764L31.2088 25.8846L29.3192 24.9399L32.0957 20.7742ZM37.0318 14.4516H36.0753C36.1088 14.1545 36.1286 13.8537 36.1286 13.5484V12.6452H37.0318C37.5295 12.6452 37.9351 13.0498 37.9351 13.5484C37.9351 14.047 37.5295 14.4516 37.0318 14.4516ZM25.2899 1.80645H30.7093C33.698 1.80645 36.1286 4.23703 36.1286 7.22581V10.8387H35.2254H32.5157C31.5195 10.8387 30.7093 10.0285 30.7093 9.03226V6.32258V5.41935H28.9028V6.32258C28.9028 8.81277 26.8769 10.8387 24.3867 10.8387H20.7738H19.8706V7.22581C19.8706 4.23703 22.3011 1.80645 25.2899 1.80645ZM18.9673 14.4516C18.4697 14.4516 18.0641 14.047 18.0641 13.5484C18.0641 13.0498 18.4697 12.6452 18.9673 12.6452H19.8706V13.5484C19.8706 13.8537 19.8904 14.1545 19.9238 14.4516H18.9673ZM21.677 12.6452H24.3867C26.3051 12.6452 28.024 11.7826 29.1846 10.4286C29.732 11.7293 31.0182 12.6452 32.5157 12.6452H34.3222V13.5484C34.3222 17.0339 31.486 19.871 27.9996 19.871C24.5131 19.871 21.677 17.0339 21.677 13.5484V12.6452ZM17.1609 25.2903C17.1609 23.2725 18.5004 21.5799 20.3294 21.0027L23.5783 27.5014C23.7373 27.8175 24.0561 28 24.3876 28C24.5231 28 24.6613 27.9693 24.7904 27.9052L27.9996 26.3001L31.2088 27.9043C31.3379 27.9693 31.4761 28 31.6116 28C31.9431 28 32.2619 27.8175 32.4209 27.5005L35.6698 21.0018C37.4988 21.5799 38.8383 23.2725 38.8383 25.2903V29.8064H17.1609V25.2903Z" fill="#916AFF"/>
</svg>
