<svg xmlns="http://www.w3.org/2000/svg" width="235" height="60" viewBox="0 0 235 60" fill="none"><g clip-path="url(#clip0_1432_8373)"><path d="M26.8897 14.5601C2.11033 7.68936 0.13615 0.886639 0 0.0703125C0.204225 1.36283 2.723 16.6009 18.4484 19.5941V30.6826C18.4484 32.6553 18.3122 34.1519 18.108 35.1043C17.9038 36.0567 17.4953 36.873 16.8826 37.4853C16.338 38.0295 15.7254 38.4377 15.0446 38.7098C14.3639 38.9819 13.4108 39.1179 12.3216 39.186V39.8662H30.9742V39.186C29.8169 39.1179 28.9319 38.9819 28.2512 38.7098C27.5704 38.4377 26.9577 38.0295 26.4131 37.4853C25.8005 36.873 25.392 36.0567 25.1878 35.1043C24.9836 34.1519 24.8474 32.6553 24.8474 30.6826V20.8186C39.6878 24.1519 51.6009 31.3628 58.0681 39.8662C58.0681 39.7982 53.3028 21.907 26.8897 14.5601Z" fill="#1F1F1F"></path><path d="M87.3394 33.6699C86.999 34.5543 86.5225 35.3706 85.9098 36.0509C85.0929 37.0713 84.0037 37.8196 82.7103 38.2958C81.4169 38.7719 79.7831 39.0441 77.8769 39.0441C75.9708 39.0441 74.5413 38.7719 73.4521 38.2277C72.3629 37.6835 71.4779 36.8672 70.9333 35.7107C70.5929 35.0305 70.3887 34.2141 70.2525 33.1937C70.1164 32.1733 70.0483 30.6087 70.0483 28.3638V22.8536H71.4098C72.6352 22.8536 73.5882 22.9896 74.337 23.1937C75.0859 23.4658 75.7666 23.806 76.2431 24.3502C76.7197 24.8944 77.1281 25.5066 77.4004 26.2549C77.6727 27.0032 77.8769 28.0237 78.0131 29.2481H78.5577L78.6258 16.323H78.0812C77.945 17.5475 77.7408 18.4998 77.5366 19.1121C77.3323 19.7243 76.992 20.2685 76.5154 20.7447C76.0389 21.2209 75.4262 21.5611 74.6774 21.7651C73.9286 21.9692 72.8394 22.0373 71.3417 22.0373H70.1164V7.61549H75.6305C77.3323 7.61549 78.6938 7.75154 79.715 7.95562C80.7361 8.1597 81.6211 8.56787 82.3699 9.18011C83.2549 9.86038 84.0037 10.6087 84.4802 11.493C84.9568 12.3774 85.2971 13.4658 85.5014 14.8264H86.046L85.6375 6.86719H59.7009V7.4114C60.6539 7.47943 61.4028 7.61549 61.9474 7.81957C62.492 8.02365 63.0366 8.36379 63.445 8.83998C63.9215 9.38419 64.2619 9.99644 64.4661 10.8128C64.6704 11.6291 64.7384 12.8536 64.7384 14.4862V32.3094C64.7384 33.942 64.6704 35.1665 64.4661 35.9828C64.2619 36.7992 63.9215 37.4114 63.445 37.9556C62.9685 38.4318 62.492 38.7719 61.8793 38.976C61.3347 39.1801 60.5859 39.3162 59.6328 39.3842V39.9284H88.4286L88.769 30.3366H88.2244C88.0201 31.6291 87.6798 32.7856 87.3394 33.6699Z" fill="#1F1F1F"></path><path d="M118.994 37.8219C118.518 37.2096 117.905 36.1892 117.156 34.8967C116.408 33.5361 115.318 31.3593 113.889 28.4341C113.276 27.1416 112.8 26.2572 112.527 25.713C112.187 25.2368 111.915 24.7606 111.506 24.4205C111.03 24.0123 110.349 23.5361 109.328 23.196C110.485 22.9239 111.438 22.6518 112.119 22.3797C112.8 22.1076 113.48 21.6994 114.025 21.2912C115.931 19.7946 116.884 17.7538 116.884 15.2368C116.884 13.5361 116.476 12.0395 115.591 10.8151C114.706 9.52253 113.48 8.57015 111.847 7.95791C110.417 7.41369 108.443 7.07355 105.992 6.9375H90.5391V7.48172C91.424 7.54975 92.1729 7.6858 92.7855 7.88988C93.3301 8.09396 93.8747 8.4341 94.2832 8.91029C94.8278 9.45451 95.1682 10.0668 95.3043 10.8831C95.5085 11.6994 95.5766 12.9239 95.5766 14.5565V32.3797C95.5766 34.0123 95.5085 35.2368 95.3043 36.0531C95.1001 36.8695 94.7597 37.4817 94.2832 38.0259C93.8747 38.5021 93.3301 38.8423 92.7855 39.0463C92.2409 39.2504 91.4921 39.3865 90.5391 39.4545V39.9987H105.992V39.4545C105.039 39.3865 104.29 39.2504 103.746 39.0463C103.201 38.8423 102.656 38.5021 102.248 38.0259C101.771 37.4817 101.431 36.8695 101.227 36.0531C101.023 35.2368 100.955 34.0123 100.955 32.3797V23.6722H102.112C102.861 23.6722 103.473 23.7402 103.95 23.8763C104.426 24.0123 104.903 24.2164 105.379 24.5565C106.264 25.1688 107.149 26.3933 108.239 28.162C109.26 29.9307 110.281 31.9715 111.302 34.2844L113.004 38.094C113.14 38.3661 113.344 38.9103 113.753 39.7946H121.786V39.2504C121.105 39.1824 120.628 39.0463 120.22 38.8423C119.811 38.7062 119.403 38.3661 118.994 37.8219ZM106.128 22.7878C105.243 22.9919 103.814 23.128 101.84 23.128H100.955V7.61777H101.976C103.678 7.61777 105.039 7.75383 105.992 7.95791C106.945 8.16199 107.762 8.57015 108.375 9.11437C109.26 9.86267 109.94 10.747 110.417 11.9035C110.894 12.9919 111.166 14.2164 111.166 15.5089C111.166 17.8899 110.349 19.8627 108.647 21.4953C107.83 22.1076 107.013 22.5838 106.128 22.7878Z" fill="#1F1F1F"></path><path d="M145.137 32.6527L134.653 6.87043H124.17V7.41465C125.327 7.48267 126.28 7.68676 126.961 8.02689C127.641 8.36703 128.186 8.97927 128.595 9.72757C128.867 10.2718 129.071 11.1561 129.139 12.3126C129.207 12.9929 129.207 13.6732 129.207 14.4215V32.2446C129.207 33.8772 129.139 35.1017 128.935 35.918C128.731 36.7344 128.39 37.3466 127.914 37.8908C127.437 38.367 126.961 38.7072 126.348 38.9112C125.735 39.1153 125.055 39.2514 124.102 39.3194V39.8636H135.266V39.3194C134.313 39.2514 133.632 39.1153 133.019 38.9112C132.475 38.7072 131.93 38.367 131.522 37.8908C131.045 37.3466 130.705 36.7344 130.501 35.918C130.296 35.1017 130.228 33.8772 130.228 32.2446V11.0881L142.618 39.7956H143.163L155.62 10.6119V32.1766C155.62 33.8092 155.552 35.0337 155.348 35.85C155.144 36.6663 154.803 37.2786 154.327 37.8228C153.85 38.299 153.374 38.6391 152.761 38.8432C152.217 39.0473 151.468 39.1834 150.515 39.2514V39.7956H165.968V39.2514C164.334 39.1834 163.109 38.7072 162.224 37.8228C161.747 37.3466 161.407 36.6663 161.203 35.918C160.998 35.1017 160.93 33.8772 160.93 32.2446V14.4215C160.93 13.265 160.998 12.3126 161.066 11.4283C161.134 10.816 161.271 10.2718 161.407 9.86363C161.611 9.45546 161.883 9.0473 162.224 8.70716C162.7 8.23097 163.177 7.89084 163.789 7.68676C164.334 7.48267 165.083 7.34662 165.968 7.27859V6.73438H156.029L145.137 32.6527Z" fill="#1F1F1F"></path><path d="M195.921 33.6699C195.58 34.5543 195.104 35.3706 194.491 36.0509C193.674 37.0713 192.585 37.8196 191.292 38.2958C189.998 38.7719 188.365 39.0441 186.458 39.0441C184.552 39.0441 183.123 38.7719 182.034 38.2277C180.944 37.6835 180.059 36.8672 179.515 35.7107C179.174 35.0305 178.97 34.2141 178.834 33.1937C178.698 32.1733 178.698 30.6087 178.698 28.3638V22.8536H180.059C181.285 22.8536 182.238 22.9896 182.987 23.1937C183.735 23.4658 184.416 23.806 184.893 24.3502C185.369 24.8944 185.778 25.5066 186.05 26.2549C186.322 27.0032 186.526 28.0237 186.663 29.2481H187.207L187.275 16.323H186.731C186.595 17.5475 186.39 18.4998 186.186 19.1121C185.982 19.7243 185.642 20.2685 185.165 20.7447C184.688 21.2209 184.076 21.5611 183.327 21.7651C182.578 21.9692 181.489 22.0373 179.991 22.0373H178.562V7.61549H184.076C185.778 7.61549 187.139 7.75154 188.16 7.95562C189.181 8.1597 190.066 8.56787 190.815 9.18011C191.7 9.86038 192.449 10.6087 192.926 11.493C193.402 12.3774 193.742 13.4658 193.947 14.8264H194.491L194.083 6.86719H168.078V7.4114C169.031 7.47943 169.78 7.61549 170.325 7.81957C170.869 8.02365 171.414 8.36379 171.822 8.83998C172.299 9.38419 172.639 9.99644 172.843 10.8128C173.048 11.6291 173.116 12.8536 173.116 14.4862V32.3094C173.116 33.942 173.048 35.1665 172.843 35.9828C172.639 36.7992 172.299 37.4114 171.822 37.9556C171.346 38.4318 170.869 38.7719 170.325 38.976C169.78 39.1801 169.031 39.3162 168.078 39.3842V39.9284H196.874L197.214 30.3366H196.67C196.602 31.6291 196.261 32.7856 195.921 33.6699Z" fill="#1F1F1F"></path><path d="M230.367 38.8423C229.958 38.6382 229.618 38.298 229.209 37.8219C228.733 37.2096 228.12 36.1892 227.371 34.8967C226.622 33.5361 225.533 31.3593 224.104 28.4341C223.491 27.1416 223.014 26.2572 222.742 25.713C222.402 25.2368 222.061 24.7606 221.721 24.4205C221.245 24.0123 220.564 23.5361 219.543 23.196C220.7 22.9239 221.653 22.6518 222.334 22.3797C223.014 22.1076 223.695 21.6994 224.24 21.2912C226.146 19.7946 227.099 17.7538 227.099 15.2368C227.099 13.5361 226.691 12.0395 225.806 10.8151C224.921 9.52253 223.695 8.57015 222.061 7.95791C220.632 7.41369 218.658 7.07355 216.207 6.9375H200.754V7.48172C201.639 7.54975 202.388 7.6858 203 7.88988C203.613 8.09396 204.09 8.4341 204.498 8.91029C205.043 9.45451 205.383 10.0668 205.519 10.8831C205.723 11.6994 205.791 12.9239 205.791 14.5565V32.3797C205.791 34.0123 205.723 35.2368 205.519 36.0531C205.315 36.8695 204.975 37.4817 204.498 38.0259C204.09 38.5021 203.545 38.8423 203 39.0463C202.456 39.2504 201.707 39.3865 200.754 39.4545V39.9987H216.207V39.4545C215.254 39.3865 214.505 39.2504 213.96 39.0463C213.416 38.8423 212.871 38.5021 212.463 38.0259C211.986 37.4817 211.646 36.8695 211.442 36.0531C211.237 35.2368 211.169 34.0123 211.169 32.3797V23.6722H212.327C213.076 23.6722 213.688 23.7402 214.165 23.8763C214.641 24.0123 215.118 24.2164 215.594 24.5565C216.479 25.1688 217.364 26.3933 218.453 28.162C219.475 29.9307 220.496 31.9715 221.517 34.2844L223.219 38.094C223.355 38.3661 223.559 38.9103 223.968 39.7946H232V39.2504C231.252 39.1824 230.775 39.0463 230.367 38.8423ZM216.343 22.7878C215.458 22.9919 214.029 23.128 212.054 23.128H211.101V7.61777H212.122C213.824 7.61777 215.186 7.75383 216.139 7.95791C217.092 8.16199 217.909 8.57015 218.522 9.11437C219.406 9.86267 220.087 10.747 220.564 11.9035C221.04 12.9919 221.313 14.2164 221.313 15.5089C221.313 17.8899 220.496 19.8627 218.794 21.4953C217.977 22.1076 217.16 22.5838 216.343 22.7878Z" fill="#1F1F1F"></path><path d="M39.4141 0.680272C40.5713 0.748299 41.4563 0.884354 42.1371 1.15646C42.8178 1.42857 43.4305 1.83673 43.9751 2.38095C44.5878 2.9932 44.9962 3.80952 45.2004 4.7619C45.4047 5.71429 45.5408 7.21088 45.5408 9.18367V21.0884C48.1277 23.0612 50.238 25.102 51.8718 27.0068V9.18367C51.8718 7.21088 52.008 5.71429 52.2122 4.7619C52.4164 3.80952 52.8249 2.9932 53.4375 2.38095C53.9821 1.83673 54.5948 1.42857 55.2756 1.15646C55.9563 0.884354 56.8413 0.748299 57.9986 0.680272V0H39.4141V0.680272Z" fill="#1F1F1F"></path><path d="M16.8813 2.38095C17.494 2.9932 17.9025 3.80952 18.1067 4.7619C18.3109 5.71429 18.4471 7.21088 18.4471 9.18367V9.52381C20.3532 10.2041 22.4635 10.8844 24.8461 11.5646V9.18367C24.8461 7.21088 24.9823 5.71429 25.1865 4.7619C25.3907 3.80952 25.7992 2.9932 26.4119 2.38095C26.9565 1.83673 27.5691 1.42857 28.2499 1.15646C28.9306 0.884354 29.8156 0.748299 30.9729 0.680272V0H12.3203V0.680272C13.4095 0.748299 14.3626 0.884354 15.0433 1.15646C15.7241 1.36054 16.3367 1.76871 16.8813 2.38095Z" fill="#1F1F1F"></path></g><path d="M11.8496 56.2891V48.5891H16.8766V49.7221H13.2576V51.8341H16.5466V52.9341H13.2576V55.1561H16.8766V56.2891H11.8496ZM19.4189 56.2891V48.5891H24.3909V49.7221H20.8269V51.8781H23.7089V52.9891H20.8269V56.2891H19.4189ZM26.6875 56.2891V48.5891H31.7145V49.7221H28.0955V51.8341H31.3845V52.9341H28.0955V55.1561H31.7145V56.2891H26.6875ZM34.2569 56.2891V48.5891H35.6649V51.7021L38.5139 48.5891H40.2519L37.4139 51.6471L40.3289 56.2891H38.6019L36.4019 52.7251L35.6649 53.5281V56.2891H34.2569ZM44.296 56.2891V49.7221H42.052V48.5891H47.959V49.7221H45.704V56.2891H44.296ZM52.2031 56.2891V53.5501L49.6181 48.5891H51.2131L52.9181 52.1421L54.6121 48.5891H56.1851L53.6111 53.5501V56.2891H52.2031ZM59.8591 56.2891L57.8241 48.5891H59.3311L60.7171 54.7161L62.3451 48.5891H63.8961L65.4801 54.7161L66.8661 48.5891H68.3841L66.2941 56.2891H64.6221L63.0931 50.5801L61.5201 56.2891H59.8591ZM70.6145 56.2891V48.5891H72.0225L75.6415 54.0121V48.5891H77.0495V56.2891H75.6415L72.0225 50.8771V56.2891H70.6145ZM79.7522 56.2891V48.5891H84.7792V49.7221H81.1602V51.8341H84.4492V52.9341H81.1602V55.1561H84.7792V56.2891H79.7522ZM93.7817 56.4211C93.217 56.4211 92.7184 56.3257 92.2857 56.1351C91.853 55.9371 91.512 55.6584 91.2627 55.2991C91.0134 54.9324 90.885 54.4887 90.8777 53.9681H92.3627C92.3774 54.3274 92.5057 54.6317 92.7477 54.8811C92.997 55.1231 93.338 55.2441 93.7707 55.2441C94.1447 55.2441 94.4417 55.1561 94.6617 54.9801C94.8817 54.7967 94.9917 54.5547 94.9917 54.2541C94.9917 53.9387 94.8927 53.6931 94.6947 53.5171C94.504 53.3411 94.2474 53.1981 93.9247 53.0881C93.602 52.9781 93.2574 52.8607 92.8907 52.7361C92.2967 52.5307 91.842 52.2667 91.5267 51.9441C91.2187 51.6214 91.0647 51.1924 91.0647 50.6571C91.0574 50.2024 91.1637 49.8137 91.3837 49.4911C91.611 49.1611 91.919 48.9081 92.3077 48.7321C92.6964 48.5487 93.1437 48.4571 93.6497 48.4571C94.163 48.4571 94.614 48.5487 95.0027 48.7321C95.3987 48.9154 95.7067 49.1721 95.9267 49.5021C96.154 49.8321 96.275 50.2244 96.2897 50.6791H94.7827C94.7754 50.4077 94.669 50.1694 94.4637 49.9641C94.2657 49.7514 93.987 49.6451 93.6277 49.6451C93.3197 49.6377 93.0594 49.7147 92.8467 49.8761C92.6414 50.0301 92.5387 50.2574 92.5387 50.5581C92.5387 50.8147 92.6194 51.0201 92.7807 51.1741C92.942 51.3207 93.162 51.4454 93.4407 51.5481C93.7194 51.6507 94.0384 51.7607 94.3977 51.8781C94.779 52.0101 95.1274 52.1641 95.4427 52.3401C95.758 52.5161 96.011 52.7507 96.2017 53.0441C96.3924 53.3301 96.4877 53.7004 96.4877 54.1551C96.4877 54.5584 96.385 54.9324 96.1797 55.2771C95.9744 55.6217 95.67 55.9004 95.2667 56.1131C94.8634 56.3184 94.3684 56.4211 93.7817 56.4211ZM100.622 56.2891V49.7221H98.3785V48.5891H104.285V49.7221H102.03V56.2891H100.622ZM106.539 56.2891V48.5891H109.366C109.982 48.5891 110.488 48.6954 110.884 48.9081C111.287 49.1134 111.588 49.3957 111.786 49.7551C111.984 50.1071 112.083 50.4994 112.083 50.9321C112.083 51.4014 111.958 51.8304 111.709 52.2191C111.467 52.6077 111.085 52.8901 110.565 53.0661L112.16 56.2891H110.543L109.113 53.2531H107.947V56.2891H106.539ZM107.947 52.2191H109.278C109.747 52.2191 110.092 52.1054 110.312 51.8781C110.532 51.6507 110.642 51.3501 110.642 50.9761C110.642 50.6094 110.532 50.3161 110.312 50.0961C110.099 49.8761 109.751 49.7661 109.267 49.7661H107.947V52.2191ZM118.21 56.4211C117.44 56.4211 116.765 56.2524 116.186 55.9151C115.614 55.5777 115.163 55.1121 114.833 54.5181C114.51 53.9167 114.349 53.2237 114.349 52.4391C114.349 51.6544 114.51 50.9651 114.833 50.3711C115.163 49.7697 115.614 49.3004 116.186 48.9631C116.765 48.6257 117.44 48.4571 118.21 48.4571C118.973 48.4571 119.644 48.6257 120.223 48.9631C120.802 49.3004 121.253 49.7697 121.576 50.3711C121.899 50.9651 122.06 51.6544 122.06 52.4391C122.06 53.2237 121.899 53.9167 121.576 54.5181C121.253 55.1121 120.802 55.5777 120.223 55.9151C119.644 56.2524 118.973 56.4211 118.21 56.4211ZM118.21 55.1561C118.943 55.1561 119.526 54.9141 119.959 54.4301C120.399 53.9461 120.619 53.2824 120.619 52.4391C120.619 51.5957 120.399 50.9321 119.959 50.4481C119.526 49.9641 118.943 49.7221 118.21 49.7221C117.477 49.7221 116.89 49.9641 116.45 50.4481C116.01 50.9321 115.79 51.5957 115.79 52.4391C115.79 53.2824 116.01 53.9461 116.45 54.4301C116.89 54.9141 117.477 55.1561 118.21 55.1561ZM124.513 56.2891V48.5891H125.921L129.54 54.0121V48.5891H130.948V56.2891H129.54L125.921 50.8771V56.2891H124.513ZM135.642 56.2891V53.5501L133.057 48.5891H134.652L136.357 52.1421L138.051 48.5891H139.624L137.05 53.5501V56.2891H135.642ZM145.567 56.2891V48.5891H146.975V56.2891H145.567ZM149.677 56.2891V48.5891H151.085L154.704 54.0121V48.5891H156.112V56.2891H154.704L151.085 50.8771V56.2891H149.677ZM160.608 56.2891V49.7221H158.364V48.5891H164.271V49.7221H162.016V56.2891H160.608ZM166.524 56.2891V48.5891H171.551V49.7221H167.932V51.8341H171.221V52.9341H167.932V55.1561H171.551V56.2891H166.524ZM174.094 56.2891V48.5891H176.921C177.537 48.5891 178.043 48.6954 178.439 48.9081C178.842 49.1134 179.143 49.3957 179.341 49.7551C179.539 50.1071 179.638 50.4994 179.638 50.9321C179.638 51.4014 179.513 51.8304 179.264 52.2191C179.022 52.6077 178.64 52.8901 178.12 53.0661L179.715 56.2891H178.098L176.668 53.2531H175.502V56.2891H174.094ZM175.502 52.2191H176.833C177.302 52.2191 177.647 52.1054 177.867 51.8781C178.087 51.6507 178.197 51.3501 178.197 50.9761C178.197 50.6094 178.087 50.3161 177.867 50.0961C177.654 49.8761 177.306 49.7661 176.822 49.7661H175.502V52.2191ZM182.157 56.2891V48.5891H183.565L187.184 54.0121V48.5891H188.592V56.2891H187.184L183.565 50.8771V56.2891H182.157ZM191.295 56.2891V48.5891H196.322V49.7221H192.703V51.8341H195.992V52.9341H192.703V55.1561H196.322V56.2891H191.295ZM200.657 56.2891V49.7221H198.413V48.5891H204.32V49.7221H202.065V56.2891H200.657ZM209.902 56.4211C209.132 56.4211 208.457 56.2524 207.878 55.9151C207.306 55.5777 206.855 55.1121 206.525 54.5181C206.202 53.9167 206.041 53.2237 206.041 52.4391C206.041 51.6544 206.202 50.9651 206.525 50.3711C206.855 49.7697 207.306 49.3004 207.878 48.9631C208.457 48.6257 209.132 48.4571 209.902 48.4571C210.665 48.4571 211.336 48.6257 211.915 48.9631C212.494 49.3004 212.945 49.7697 213.268 50.3711C213.591 50.9651 213.752 51.6544 213.752 52.4391C213.752 53.2237 213.591 53.9167 213.268 54.5181C212.945 55.1121 212.494 55.5777 211.915 55.9151C211.336 56.2524 210.665 56.4211 209.902 56.4211ZM209.902 55.1561C210.635 55.1561 211.218 54.9141 211.651 54.4301C212.091 53.9461 212.311 53.2824 212.311 52.4391C212.311 51.5957 212.091 50.9321 211.651 50.4481C211.218 49.9641 210.635 49.7221 209.902 49.7221C209.169 49.7221 208.582 49.9641 208.142 50.4481C207.702 50.9321 207.482 51.5957 207.482 52.4391C207.482 53.2824 207.702 53.9461 208.142 54.4301C208.582 54.9141 209.169 55.1561 209.902 55.1561ZM217.434 56.2891L215.399 48.5891H216.906L218.292 54.7161L219.92 48.5891H221.471L223.055 54.7161L224.441 48.5891H225.959L223.869 56.2891H222.197L220.668 50.5801L219.095 56.2891H217.434ZM228.189 56.2891V48.5891H233.216V49.7221H229.597V51.8341H232.886V52.9341H229.597V55.1561H233.216V56.2891H228.189Z" fill="#916AFF"></path><defs><clipPath id="clip0_1432_8373"><rect width="232" height="40" fill="white"></rect></clipPath></defs></svg>