<svg xmlns="http://www.w3.org/2000/svg" width="51" height="50" viewBox="0 0 51 50" fill="none"><circle cx="25.834" cy="25" r="23.5" fill="#916AFF" stroke="url(#paint0_linear_1661_10868)" stroke-width="3"></circle><path d="M21.6104 31V29.326C22.3784 28.69 23.1224 28.06 23.8424 27.436C24.5744 26.812 25.2224 26.194 25.7864 25.582C26.3624 24.97 26.8184 24.376 27.1544 23.8C27.5024 23.212 27.6764 22.642 27.6764 22.09C27.6764 21.574 27.5324 21.118 27.2444 20.722C26.9684 20.326 26.5064 20.128 25.8584 20.128C25.1984 20.128 24.7004 20.344 24.3644 20.776C24.0284 21.208 23.8604 21.73 23.8604 22.342H21.6284C21.6524 21.418 21.8564 20.65 22.2404 20.038C22.6244 19.414 23.1344 18.952 23.7704 18.652C24.4064 18.34 25.1204 18.184 25.9124 18.184C27.1964 18.184 28.1924 18.538 28.9004 19.246C29.6204 19.942 29.9804 20.848 29.9804 21.964C29.9804 22.66 29.8184 23.338 29.4944 23.998C29.1824 24.658 28.7684 25.294 28.2524 25.906C27.7364 26.518 27.1784 27.094 26.5784 27.634C25.9784 28.162 25.3964 28.654 24.8324 29.11H30.2864V31H21.6104Z" fill="white"></path><defs><linearGradient id="paint0_linear_1661_10868" x1="4.12102" y1="41.8981" x2="40.834" y2="5.18518" gradientUnits="userSpaceOnUse"><stop stop-color="#52D8EA"></stop><stop offset="1" stop-color="#916AFF"></stop></linearGradient></defs></svg>
