<svg xmlns="http://www.w3.org/2000/svg" width="51" height="50" viewBox="0 0 51 50" fill="none"><circle cx="25.334" cy="25" r="23.5" fill="#916AFF" stroke="url(#paint0_linear_1661_10873)" stroke-width="3"></circle><path d="M25.3187 31.216C24.4907 31.216 23.7407 31.072 23.0687 30.784C22.3967 30.484 21.8567 30.028 21.4487 29.416C21.0407 28.804 20.8247 28.036 20.8007 27.112H23.0687C23.0807 27.724 23.2787 28.24 23.6627 28.66C24.0587 29.068 24.6107 29.272 25.3187 29.272C25.9907 29.272 26.5067 29.086 26.8667 28.714C27.2267 28.342 27.4067 27.874 27.4067 27.31C27.4067 26.65 27.1667 26.152 26.6867 25.816C26.2187 25.468 25.6127 25.294 24.8687 25.294H23.9327V23.404H24.8867C25.4987 23.404 26.0087 23.26 26.4167 22.972C26.8247 22.684 27.0287 22.258 27.0287 21.694C27.0287 21.226 26.8727 20.854 26.5607 20.578C26.2607 20.29 25.8407 20.146 25.3007 20.146C24.7127 20.146 24.2507 20.32 23.9147 20.668C23.5907 21.016 23.4107 21.442 23.3747 21.946H21.1247C21.1727 20.782 21.5747 19.864 22.3307 19.192C23.0987 18.52 24.0887 18.184 25.3007 18.184C26.1647 18.184 26.8907 18.34 27.4787 18.652C28.0787 18.952 28.5287 19.354 28.8287 19.858C29.1407 20.362 29.2967 20.92 29.2967 21.532C29.2967 22.24 29.0987 22.84 28.7027 23.332C28.3187 23.812 27.8387 24.136 27.2627 24.304C27.9707 24.448 28.5467 24.796 28.9907 25.348C29.4347 25.888 29.6567 26.572 29.6567 27.4C29.6567 28.096 29.4887 28.732 29.1527 29.308C28.8167 29.884 28.3247 30.346 27.6767 30.694C27.0407 31.042 26.2547 31.216 25.3187 31.216Z" fill="white"></path><defs><linearGradient id="paint0_linear_1661_10873" x1="3.62102" y1="41.8981" x2="40.334" y2="5.18518" gradientUnits="userSpaceOnUse"><stop stop-color="#52D8EA"></stop><stop offset="1" stop-color="#916AFF"></stop></linearGradient></defs></svg>
