<svg xmlns="http://www.w3.org/2000/svg" width="180" height="272" viewBox="0 0 180 272" fill="none"><path d="M0.5 202C0.5 180.185 18.1848 162.5 40 162.5C61.8152 162.5 79.5 180.185 79.5 202V267.259C79.5 269.601 77.6011 271.5 75.2586 271.5H4.74138C2.39893 271.5 0.5 269.601 0.5 267.259V202Z" fill="#1A1525" fill-opacity="0.7"></path><path d="M0.5 202C0.5 180.185 18.1848 162.5 40 162.5C61.8152 162.5 79.5 180.185 79.5 202V267.259C79.5 269.601 77.6011 271.5 75.2586 271.5H4.74138C2.39893 271.5 0.5 269.601 0.5 267.259V202Z" stroke="#1A1525"></path><path d="M36.3174 195V192.92H30.7974V191.288L36.0454 183.8H38.3654V191.144H39.8374V192.92H38.3654V195H36.3174ZM32.9894 191.144H36.4454V186.056L32.9894 191.144ZM45.1114 195.192C44.3754 195.192 43.7087 195.064 43.1114 194.808C42.514 194.541 42.034 194.136 41.6714 193.592C41.3087 193.048 41.1167 192.365 41.0954 191.544H43.1114C43.122 192.088 43.298 192.547 43.6394 192.92C43.9914 193.283 44.482 193.464 45.1114 193.464C45.7087 193.464 46.1674 193.299 46.4874 192.968C46.8074 192.637 46.9674 192.221 46.9674 191.72C46.9674 191.133 46.754 190.691 46.3274 190.392C45.9114 190.083 45.3727 189.928 44.7114 189.928H43.8794V188.248H44.7274C45.2714 188.248 45.7247 188.12 46.0874 187.864C46.45 187.608 46.6314 187.229 46.6314 186.728C46.6314 186.312 46.4927 185.981 46.2154 185.736C45.9487 185.48 45.5754 185.352 45.0954 185.352C44.5727 185.352 44.162 185.507 43.8634 185.816C43.5754 186.125 43.4154 186.504 43.3834 186.952H41.3834C41.426 185.917 41.7834 185.101 42.4554 184.504C43.138 183.907 44.018 183.608 45.0954 183.608C45.8634 183.608 46.5087 183.747 47.0314 184.024C47.5647 184.291 47.9647 184.648 48.2314 185.096C48.5087 185.544 48.6474 186.04 48.6474 186.584C48.6474 187.213 48.4714 187.747 48.1194 188.184C47.778 188.611 47.3514 188.899 46.8394 189.048C47.4687 189.176 47.9807 189.485 48.3754 189.976C48.77 190.456 48.9674 191.064 48.9674 191.8C48.9674 192.419 48.818 192.984 48.5194 193.496C48.2207 194.008 47.7834 194.419 47.2074 194.728C46.642 195.037 45.9434 195.192 45.1114 195.192ZM9.22719 221L6.26719 209.8H8.45919L10.4752 218.712L12.8432 209.8H15.0992L17.4032 218.712L19.4192 209.8H21.6272L18.5872 221H16.1552L13.9312 212.696L11.6432 221H9.22719ZM29.5319 221V211.448H26.2679V209.8H34.8599V211.448H31.5799V221H29.5319ZM41.2188 221.192C40.0988 221.192 39.1175 220.947 38.2748 220.456C37.4428 219.965 36.7868 219.288 36.3068 218.424C35.8375 217.549 35.6028 216.541 35.6028 215.4C35.6028 214.259 35.8375 213.256 36.3068 212.392C36.7868 211.517 37.4428 210.835 38.2748 210.344C39.1175 209.853 40.0988 209.608 41.2188 209.608C42.3281 209.608 43.3041 209.853 44.1468 210.344C44.9895 210.835 45.6455 211.517 46.1148 212.392C46.5841 213.256 46.8188 214.259 46.8188 215.4C46.8188 216.541 46.5841 217.549 46.1148 218.424C45.6455 219.288 44.9895 219.965 44.1468 220.456C43.3041 220.947 42.3281 221.192 41.2188 221.192ZM41.2188 219.352C42.2855 219.352 43.1335 219 43.7628 218.296C44.4028 217.592 44.7228 216.627 44.7228 215.4C44.7228 214.173 44.4028 213.208 43.7628 212.504C43.1335 211.8 42.2855 211.448 41.2188 211.448C40.1521 211.448 39.2988 211.8 38.6588 212.504C38.0188 213.208 37.6988 214.173 37.6988 215.4C37.6988 216.627 38.0188 217.592 38.6588 218.296C39.2988 219 40.1521 219.352 41.2188 219.352ZM48.6271 221V209.8H52.7711C53.6671 209.8 54.4084 209.949 54.9951 210.248C55.5817 210.547 56.0191 210.957 56.3071 211.48C56.5951 212.003 56.7391 212.589 56.7391 213.24C56.7391 213.859 56.6004 214.429 56.3231 214.952C56.0457 215.464 55.6137 215.88 55.0271 216.2C54.4404 216.509 53.6884 216.664 52.7711 216.664H50.6751V221H48.6271ZM50.6751 215H52.6431C53.3577 215 53.8697 214.845 54.1791 214.536C54.4991 214.216 54.6591 213.784 54.6591 213.24C54.6591 212.685 54.4991 212.253 54.1791 211.944C53.8697 211.624 53.3577 211.464 52.6431 211.464H50.6751V215ZM59.5618 221V212.136L57.7218 212.568V211L60.4258 209.8H61.6898V221H59.5618ZM68.4534 221.192C67.4188 221.192 66.5334 220.952 65.7974 220.472C65.0614 219.981 64.4908 219.304 64.0854 218.44C63.6908 217.565 63.4934 216.552 63.4934 215.4C63.4934 214.259 63.6908 213.251 64.0854 212.376C64.4908 211.501 65.0614 210.824 65.7974 210.344C66.5334 209.853 67.4188 209.608 68.4534 209.608C69.4881 209.608 70.3734 209.853 71.1094 210.344C71.8454 210.824 72.4108 211.501 72.8054 212.376C73.2108 213.251 73.4134 214.259 73.4134 215.4C73.4134 216.552 73.2108 217.565 72.8054 218.44C72.4108 219.304 71.8454 219.981 71.1094 220.472C70.3734 220.952 69.4881 221.192 68.4534 221.192ZM68.4534 219.352C69.2961 219.352 69.9841 219 70.5174 218.296C71.0508 217.592 71.3174 216.627 71.3174 215.4C71.3174 214.173 71.0508 213.208 70.5174 212.504C69.9841 211.8 69.2961 211.448 68.4534 211.448C67.6001 211.448 66.9068 211.8 66.3734 212.504C65.8508 213.208 65.5894 214.173 65.5894 215.4C65.5894 216.627 65.8508 217.592 66.3734 218.296C66.9068 219 67.6001 219.352 68.4534 219.352Z" fill="white"></path><path d="M20.7212 257V245.8H25.3132C26.0919 245.8 26.7479 245.923 27.2812 246.168C27.8145 246.413 28.2145 246.755 28.4812 247.192C28.7585 247.619 28.8972 248.115 28.8972 248.68C28.8972 249.245 28.7745 249.72 28.5292 250.104C28.2839 250.488 27.9585 250.787 27.5532 251C27.1585 251.203 26.7212 251.32 26.2412 251.352L26.4972 251.176C27.0092 251.197 27.4625 251.336 27.8572 251.592C28.2625 251.837 28.5772 252.168 28.8012 252.584C29.0359 253 29.1532 253.453 29.1532 253.944C29.1532 254.541 29.0092 255.069 28.7212 255.528C28.4332 255.987 28.0172 256.349 27.4732 256.616C26.9292 256.872 26.2625 257 25.4732 257H20.7212ZM22.8812 255.24H25.1212C25.7079 255.24 26.1612 255.107 26.4812 254.84C26.8012 254.573 26.9612 254.189 26.9612 253.688C26.9612 253.187 26.7959 252.797 26.4652 252.52C26.1345 252.232 25.6759 252.088 25.0892 252.088H22.8812V255.24ZM22.8812 250.472H24.9612C25.5265 250.472 25.9532 250.344 26.2412 250.088C26.5399 249.832 26.6892 249.469 26.6892 249C26.6892 248.541 26.5399 248.184 26.2412 247.928C25.9532 247.661 25.5212 247.528 24.9452 247.528H22.8812V250.472ZM33.3359 257V253.064L29.5599 245.8H32.0079L34.6479 251.336H34.2159L36.8399 245.8H39.2719L35.4959 253.064V257H33.3359ZM39.8602 252.744V250.952L44.7402 249.352V251.144L39.8602 252.744ZM40.9802 257V245.8H43.1402V255.32H48.0522V257H40.9802ZM54.1079 257.192C53.0199 257.192 52.0599 256.947 51.2279 256.456C50.3959 255.965 49.7453 255.288 49.2759 254.424C48.8066 253.549 48.5719 252.541 48.5719 251.4C48.5719 250.259 48.8066 249.256 49.2759 248.392C49.7453 247.517 50.3959 246.835 51.2279 246.344C52.0599 245.853 53.0199 245.608 54.1079 245.608C55.2066 245.608 56.1719 245.853 57.0039 246.344C57.8359 246.835 58.4813 247.517 58.9399 248.392C59.4093 249.256 59.6439 250.259 59.6439 251.4C59.6439 252.541 59.4093 253.549 58.9399 254.424C58.4813 255.288 57.8359 255.965 57.0039 256.456C56.1719 256.947 55.2066 257.192 54.1079 257.192ZM54.1079 255.256C54.7906 255.256 55.3773 255.101 55.8679 254.792C56.3693 254.472 56.7586 254.024 57.0359 253.448C57.3133 252.872 57.4519 252.189 57.4519 251.4C57.4519 250.6 57.3133 249.917 57.0359 249.352C56.7586 248.776 56.3693 248.333 55.8679 248.024C55.3773 247.715 54.7906 247.56 54.1079 247.56C53.4359 247.56 52.8493 247.715 52.3479 248.024C51.8466 248.333 51.4573 248.776 51.1799 249.352C50.9026 249.917 50.7639 250.6 50.7639 251.4C50.7639 252.189 50.9026 252.872 51.1799 253.448C51.4573 254.024 51.8466 254.472 52.3479 254.792C52.8493 255.101 53.4359 255.256 54.1079 255.256Z" fill="white"></path><path d="M100.408 40.9629C100.408 19.1476 118.093 1.46289 139.908 1.46289C161.723 1.46289 179.408 19.1476 179.408 40.9629V266.963C179.408 269.448 177.393 271.463 174.908 271.463H104.908C102.423 271.463 100.408 269.448 100.408 266.963V40.9629Z" fill="url(#paint0_linear_1648_20169)" fill-opacity="0.8"></path><path d="M100.408 40.9629C100.408 19.1476 118.093 1.46289 139.908 1.46289C161.723 1.46289 179.408 19.1476 179.408 40.9629V266.963C179.408 269.448 177.393 271.463 174.908 271.463H104.908C102.423 271.463 100.408 269.448 100.408 266.963V40.9629Z" stroke="url(#paint1_linear_1648_20169)"></path><path d="M132.908 23.4629L139.908 16.4629L146.908 23.4629" stroke="white" stroke-linecap="round" stroke-linejoin="round"></path><g opacity="0.7"><path d="M135.241 42.2964L139.908 37.6297L144.574 42.2964" stroke="white" stroke-linecap="round" stroke-linejoin="round"></path></g><g opacity="0.5"><path d="M135.826 57.0044L139.909 52.9211L143.992 57.0044" stroke="white" stroke-linecap="round" stroke-linejoin="round"></path></g><path d="M121.466 86.9629V76.1829L118.966 76.8429V74.6029L122.666 72.9629H124.346V86.9629H121.466ZM126.709 86.9629V84.9029C127.549 84.2229 128.369 83.5496 129.169 82.8829C129.969 82.2029 130.689 81.5362 131.329 80.8829C131.969 80.2162 132.475 79.5696 132.849 78.9429C133.222 78.3029 133.409 77.6829 133.409 77.0829C133.409 76.7362 133.342 76.4096 133.209 76.1029C133.075 75.7962 132.869 75.5496 132.589 75.3629C132.309 75.1762 131.942 75.0829 131.489 75.0829C131.049 75.0829 130.669 75.1896 130.349 75.4029C130.042 75.6029 129.809 75.8762 129.649 76.2229C129.502 76.5696 129.429 76.9629 129.429 77.4029H126.729C126.755 76.3496 126.982 75.4762 127.409 74.7829C127.849 74.0896 128.429 73.5762 129.149 73.2429C129.882 72.8962 130.695 72.7229 131.589 72.7229C132.589 72.7229 133.429 72.9096 134.109 73.2829C134.802 73.6429 135.322 74.1429 135.669 74.7829C136.029 75.4096 136.209 76.1229 136.209 76.9229C136.209 77.5362 136.095 78.1362 135.869 78.7229C135.655 79.2962 135.355 79.8562 134.969 80.4029C134.582 80.9496 134.142 81.4762 133.649 81.9829C133.169 82.4762 132.662 82.9496 132.129 83.4029C131.609 83.8562 131.095 84.2829 130.589 84.6829H136.529V86.9629H126.709ZM138.271 86.9629V84.9029C139.111 84.2229 139.931 83.5496 140.731 82.8829C141.531 82.2029 142.251 81.5362 142.891 80.8829C143.531 80.2162 144.038 79.5696 144.411 78.9429C144.784 78.3029 144.971 77.6829 144.971 77.0829C144.971 76.7362 144.904 76.4096 144.771 76.1029C144.638 75.7962 144.431 75.5496 144.151 75.3629C143.871 75.1762 143.504 75.0829 143.051 75.0829C142.611 75.0829 142.231 75.1896 141.911 75.4029C141.604 75.6029 141.371 75.8762 141.211 76.2229C141.064 76.5696 140.991 76.9629 140.991 77.4029H138.291C138.318 76.3496 138.544 75.4762 138.971 74.7829C139.411 74.0896 139.991 73.5762 140.711 73.2429C141.444 72.8962 142.258 72.7229 143.151 72.7229C144.151 72.7229 144.991 72.9096 145.671 73.2829C146.364 73.6429 146.884 74.1429 147.231 74.7829C147.591 75.4096 147.771 76.1229 147.771 76.9229C147.771 77.5362 147.658 78.1362 147.431 78.7229C147.218 79.2962 146.918 79.8562 146.531 80.4029C146.144 80.9496 145.704 81.4762 145.211 81.9829C144.731 82.4762 144.224 82.9496 143.691 83.4029C143.171 83.8562 142.658 84.2829 142.151 84.6829H148.091V86.9629H138.271ZM154.895 87.2029C153.922 87.2029 153.089 87.0162 152.395 86.6429C151.715 86.2562 151.189 85.7562 150.815 85.1429C150.442 84.5162 150.222 83.8496 150.155 83.1429H152.755C152.875 83.7162 153.122 84.1562 153.495 84.4629C153.869 84.7562 154.349 84.9029 154.935 84.9029C155.495 84.9029 155.975 84.7362 156.375 84.4029C156.789 84.0696 157.109 83.5696 157.335 82.9029C157.575 82.2362 157.709 81.4096 157.735 80.4229C157.735 80.3829 157.735 80.3496 157.735 80.3229C157.735 80.2829 157.735 80.2429 157.735 80.2029C157.549 80.5629 157.275 80.8829 156.915 81.1629C156.569 81.4296 156.169 81.6429 155.715 81.8029C155.275 81.9496 154.815 82.0229 154.335 82.0229C153.562 82.0229 152.835 81.8429 152.155 81.4829C151.489 81.1096 150.949 80.5829 150.535 79.9029C150.135 79.2229 149.935 78.4162 149.935 77.4829C149.935 76.6162 150.142 75.8229 150.555 75.1029C150.969 74.3829 151.542 73.8096 152.275 73.3829C153.022 72.9429 153.869 72.7229 154.815 72.7229C155.882 72.7229 156.775 72.9229 157.495 73.3229C158.229 73.7096 158.809 74.2296 159.235 74.8829C159.675 75.5229 159.995 76.2496 160.195 77.0629C160.395 77.8629 160.495 78.6829 160.495 79.5229C160.495 81.0829 160.275 82.4429 159.835 83.6029C159.395 84.7496 158.755 85.6362 157.915 86.2629C157.089 86.8896 156.082 87.2029 154.895 87.2029ZM154.995 79.6629C155.462 79.6629 155.875 79.5696 156.235 79.3829C156.595 79.1829 156.882 78.9162 157.095 78.5829C157.309 78.2362 157.415 77.8496 157.415 77.4229C157.415 76.9696 157.309 76.5696 157.095 76.2229C156.882 75.8762 156.589 75.6096 156.215 75.4229C155.855 75.2229 155.442 75.1229 154.975 75.1229C154.522 75.1229 154.115 75.2229 153.755 75.4229C153.395 75.6096 153.115 75.8762 152.915 76.2229C152.715 76.5562 152.615 76.9429 152.615 77.3829C152.615 77.8362 152.715 78.2362 152.915 78.5829C153.115 78.9296 153.395 79.1962 153.755 79.3829C154.129 79.5696 154.542 79.6629 154.995 79.6629ZM108.752 115.963L105.824 104.763H108.224L110.112 113.435L112.384 104.763H114.848L117.04 113.435L118.96 104.763H121.376L118.368 115.963H115.696L113.584 107.915L111.408 115.963H108.752ZM129.198 115.963V106.571H125.934V104.763H134.686V106.571H131.422V115.963H129.198ZM141.024 116.155C139.936 116.155 138.976 115.91 138.144 115.419C137.312 114.928 136.656 114.251 136.176 113.387C135.707 112.512 135.472 111.504 135.472 110.363C135.472 109.222 135.707 108.219 136.176 107.355C136.656 106.48 137.312 105.798 138.144 105.307C138.976 104.816 139.936 104.571 141.024 104.571C142.123 104.571 143.088 104.816 143.92 105.307C144.763 105.798 145.413 106.48 145.872 107.355C146.341 108.219 146.576 109.222 146.576 110.363C146.576 111.504 146.341 112.512 145.872 113.387C145.413 114.251 144.763 114.928 143.92 115.419C143.088 115.91 142.123 116.155 141.024 116.155ZM141.024 114.139C141.696 114.139 142.277 113.984 142.768 113.675C143.259 113.366 143.637 112.934 143.904 112.379C144.171 111.814 144.304 111.142 144.304 110.363C144.304 109.584 144.171 108.918 143.904 108.363C143.637 107.798 143.259 107.36 142.768 107.051C142.277 106.742 141.696 106.587 141.024 106.587C140.363 106.587 139.787 106.742 139.296 107.051C138.816 107.36 138.437 107.798 138.16 108.363C137.893 108.918 137.76 109.584 137.76 110.363C137.76 111.142 137.893 111.814 138.16 112.379C138.437 112.934 138.816 113.366 139.296 113.675C139.787 113.984 140.363 114.139 141.024 114.139ZM148.402 115.963V104.763H152.658C153.565 104.763 154.317 104.918 154.914 105.227C155.512 105.536 155.954 105.958 156.242 106.491C156.541 107.014 156.69 107.611 156.69 108.283C156.69 108.902 156.546 109.478 156.258 110.011C155.981 110.534 155.544 110.96 154.946 111.291C154.349 111.622 153.586 111.787 152.658 111.787H150.642V115.963H148.402ZM150.642 109.979H152.514C153.186 109.979 153.666 109.824 153.954 109.515C154.253 109.206 154.402 108.795 154.402 108.283C154.402 107.75 154.253 107.334 153.954 107.035C153.666 106.736 153.186 106.587 152.514 106.587H150.642V109.979ZM159.701 115.963V107.339L157.701 107.867V106.075L160.661 104.763H162.005V115.963H159.701ZM168.759 116.155C167.735 116.155 166.855 115.91 166.119 115.419C165.383 114.928 164.818 114.251 164.423 113.387C164.029 112.512 163.831 111.504 163.831 110.363C163.831 109.222 164.029 108.219 164.423 107.355C164.818 106.48 165.383 105.798 166.119 105.307C166.855 104.816 167.735 104.571 168.759 104.571C169.783 104.571 170.658 104.816 171.383 105.307C172.119 105.798 172.685 106.48 173.079 107.355C173.474 108.219 173.671 109.222 173.671 110.363C173.671 111.504 173.474 112.512 173.079 113.387C172.685 114.251 172.119 114.928 171.383 115.419C170.658 115.91 169.783 116.155 168.759 116.155ZM168.759 114.139C169.282 114.139 169.741 113.984 170.135 113.675C170.53 113.366 170.839 112.934 171.063 112.379C171.287 111.814 171.399 111.142 171.399 110.363C171.399 109.584 171.287 108.918 171.063 108.363C170.839 107.798 170.53 107.36 170.135 107.051C169.741 106.742 169.282 106.587 168.759 106.587C168.237 106.587 167.778 106.742 167.383 107.051C166.989 107.36 166.679 107.798 166.455 108.363C166.231 108.918 166.119 109.584 166.119 110.363C166.119 111.142 166.231 111.814 166.455 112.379C166.679 112.934 166.989 113.366 167.383 113.675C167.778 113.984 168.237 114.139 168.759 114.139Z" fill="white"></path><path d="M125.465 257.155C124.74 257.155 124.1 257.016 123.545 256.739C123.001 256.462 122.58 256.056 122.281 255.523C121.982 254.979 121.833 254.323 121.833 253.555H123.993C123.993 253.896 124.041 254.195 124.137 254.451C124.244 254.696 124.398 254.888 124.601 255.027C124.814 255.155 125.086 255.219 125.417 255.219C125.737 255.219 125.993 255.16 126.185 255.043C126.388 254.915 126.532 254.739 126.617 254.515C126.713 254.28 126.761 254.003 126.761 253.683V245.763H128.921V253.683C128.921 254.803 128.606 255.662 127.977 256.259C127.358 256.856 126.521 257.155 125.465 257.155ZM131.129 256.963V245.763H138.489V247.507H133.289V250.435H138.009V252.115H133.289V255.219H138.489V256.963H131.129ZM144.314 257.155C143.503 257.155 142.778 257.016 142.138 256.739C141.508 256.462 141.007 256.056 140.634 255.523C140.271 254.99 140.084 254.344 140.074 253.587H142.362C142.372 253.918 142.458 254.216 142.618 254.483C142.778 254.75 142.996 254.963 143.274 255.123C143.562 255.272 143.903 255.347 144.298 255.347C144.639 255.347 144.932 255.294 145.178 255.187C145.434 255.07 145.631 254.91 145.77 254.707C145.908 254.504 145.978 254.264 145.978 253.987C145.978 253.667 145.898 253.4 145.738 253.187C145.588 252.974 145.375 252.792 145.098 252.643C144.831 252.494 144.516 252.36 144.154 252.243C143.802 252.115 143.428 251.982 143.034 251.843C142.148 251.555 141.471 251.171 141.002 250.691C140.543 250.211 140.314 249.576 140.314 248.787C140.314 248.115 140.474 247.539 140.794 247.059C141.124 246.579 141.578 246.211 142.154 245.955C142.73 245.699 143.386 245.571 144.122 245.571C144.879 245.571 145.54 245.704 146.106 245.971C146.682 246.227 147.135 246.6 147.466 247.091C147.807 247.582 147.983 248.158 147.994 248.819H145.69C145.679 248.574 145.604 248.344 145.466 248.131C145.338 247.907 145.156 247.731 144.922 247.603C144.687 247.464 144.41 247.395 144.09 247.395C143.812 247.384 143.556 247.427 143.322 247.523C143.098 247.619 142.916 247.763 142.778 247.955C142.65 248.136 142.586 248.366 142.586 248.643C142.586 248.91 142.65 249.134 142.778 249.315C142.916 249.496 143.103 249.656 143.338 249.795C143.572 249.923 143.85 250.046 144.17 250.163C144.49 250.27 144.836 250.382 145.21 250.499C145.764 250.691 146.276 250.92 146.746 251.187C147.215 251.443 147.588 251.779 147.866 252.195C148.143 252.611 148.282 253.16 148.282 253.843C148.282 254.43 148.127 254.974 147.818 255.475C147.508 255.976 147.06 256.382 146.474 256.691C145.898 257 145.178 257.155 144.314 257.155ZM152.612 256.963V247.507H149.332V245.763H158.02V247.507H154.756V256.963H152.612Z" fill="white"></path><defs><linearGradient id="paint0_linear_1648_20169" x1="163.908" y1="271.963" x2="163.908" y2="0.962891" gradientUnits="userSpaceOnUse"><stop stop-color="#52D8EA"></stop><stop offset="1" stop-color="#916AFF"></stop></linearGradient><linearGradient id="paint1_linear_1648_20169" x1="163.908" y1="271.963" x2="163.908" y2="0.962891" gradientUnits="userSpaceOnUse"><stop stop-color="#52D8EA"></stop><stop offset="1" stop-color="#916AFF"></stop></linearGradient></defs></svg>