<svg xmlns="http://www.w3.org/2000/svg" width="180" height="271" viewBox="0 0 180 271" fill="none"><path d="M0.5 235C0.5 213.185 18.1848 195.5 40 195.5C61.8152 195.5 79.5 213.185 79.5 235V267.724C79.5 269.257 78.2572 270.5 76.7241 270.5H3.27586C1.7428 270.5 0.5 269.257 0.5 267.724V235Z" fill="#1A1525" fill-opacity="0.7"></path><path d="M0.5 235C0.5 213.185 18.1848 195.5 40 195.5C61.8152 195.5 79.5 213.185 79.5 235V267.724C79.5 269.257 78.2572 270.5 76.7241 270.5H3.27586C1.7428 270.5 0.5 269.257 0.5 267.724V235Z" stroke="#1A1525"></path><path d="M35.1464 228.192C34.3677 228.192 33.7117 228.043 33.1784 227.744C32.645 227.435 32.229 227.035 31.9304 226.544C31.6317 226.053 31.4557 225.525 31.4024 224.96H33.3064C33.3917 225.451 33.5944 225.829 33.9144 226.096C34.245 226.363 34.661 226.496 35.1624 226.496C35.877 226.496 36.453 226.171 36.8904 225.52C37.3277 224.859 37.5624 223.856 37.5944 222.512C37.3384 222.949 36.949 223.312 36.4264 223.6C35.9144 223.888 35.349 224.032 34.7304 224.032C34.1117 224.032 33.5304 223.883 32.9864 223.584C32.4424 223.285 31.9997 222.864 31.6584 222.32C31.317 221.776 31.1464 221.136 31.1464 220.4C31.1464 219.728 31.3117 219.104 31.6424 218.528C31.973 217.952 32.4317 217.488 33.0184 217.136C33.605 216.784 34.293 216.608 35.0824 216.608C35.925 216.608 36.6344 216.763 37.2104 217.072C37.7864 217.381 38.245 217.797 38.5864 218.32C38.9384 218.843 39.189 219.424 39.3384 220.064C39.4984 220.704 39.5784 221.36 39.5784 222.032C39.5784 223.28 39.4024 224.368 39.0504 225.296C38.709 226.213 38.2024 226.928 37.5304 227.44C36.869 227.941 36.0744 228.192 35.1464 228.192ZM35.2104 222.304C35.605 222.304 35.9624 222.219 36.2824 222.048C36.6024 221.867 36.853 221.632 37.0344 221.344C37.2157 221.045 37.3064 220.715 37.3064 220.352C37.3064 219.776 37.1037 219.301 36.6984 218.928C36.3037 218.555 35.8024 218.368 35.1944 218.368C34.597 218.368 34.101 218.555 33.7064 218.928C33.3117 219.291 33.1144 219.755 33.1144 220.32C33.1144 220.917 33.3117 221.397 33.7064 221.76C34.101 222.123 34.6024 222.304 35.2104 222.304ZM44.9864 228.192C44.2504 228.192 43.5837 228.064 42.9864 227.808C42.389 227.541 41.909 227.136 41.5464 226.592C41.1837 226.048 40.9917 225.365 40.9704 224.544H42.9864C42.997 225.088 43.173 225.547 43.5144 225.92C43.8664 226.283 44.357 226.464 44.9864 226.464C45.5837 226.464 46.0424 226.299 46.3624 225.968C46.6824 225.637 46.8424 225.221 46.8424 224.72C46.8424 224.133 46.629 223.691 46.2024 223.392C45.7864 223.083 45.2477 222.928 44.5864 222.928H43.7544V221.248H44.6024C45.1464 221.248 45.5997 221.12 45.9624 220.864C46.325 220.608 46.5064 220.229 46.5064 219.728C46.5064 219.312 46.3677 218.981 46.0904 218.736C45.8237 218.48 45.4504 218.352 44.9704 218.352C44.4477 218.352 44.037 218.507 43.7384 218.816C43.4504 219.125 43.2904 219.504 43.2584 219.952H41.2584C41.301 218.917 41.6584 218.101 42.3304 217.504C43.013 216.907 43.893 216.608 44.9704 216.608C45.7384 216.608 46.3837 216.747 46.9064 217.024C47.4397 217.291 47.8397 217.648 48.1064 218.096C48.3837 218.544 48.5224 219.04 48.5224 219.584C48.5224 220.213 48.3464 220.747 47.9944 221.184C47.653 221.611 47.2264 221.899 46.7144 222.048C47.3437 222.176 47.8557 222.485 48.2504 222.976C48.645 223.456 48.8424 224.064 48.8424 224.8C48.8424 225.419 48.693 225.984 48.3944 226.496C48.0957 227.008 47.6584 227.419 47.0824 227.728C46.517 228.037 45.8184 228.192 44.9864 228.192Z" fill="white"></path><path d="M20.7212 256V244.8H25.3132C26.0919 244.8 26.7479 244.923 27.2812 245.168C27.8145 245.413 28.2145 245.755 28.4812 246.192C28.7585 246.619 28.8972 247.115 28.8972 247.68C28.8972 248.245 28.7745 248.72 28.5292 249.104C28.2839 249.488 27.9585 249.787 27.5532 250C27.1585 250.203 26.7212 250.32 26.2412 250.352L26.4972 250.176C27.0092 250.197 27.4625 250.336 27.8572 250.592C28.2625 250.837 28.5772 251.168 28.8012 251.584C29.0359 252 29.1532 252.453 29.1532 252.944C29.1532 253.541 29.0092 254.069 28.7212 254.528C28.4332 254.987 28.0172 255.349 27.4732 255.616C26.9292 255.872 26.2625 256 25.4732 256H20.7212ZM22.8812 254.24H25.1212C25.7079 254.24 26.1612 254.107 26.4812 253.84C26.8012 253.573 26.9612 253.189 26.9612 252.688C26.9612 252.187 26.7959 251.797 26.4652 251.52C26.1345 251.232 25.6759 251.088 25.0892 251.088H22.8812V254.24ZM22.8812 249.472H24.9612C25.5265 249.472 25.9532 249.344 26.2412 249.088C26.5399 248.832 26.6892 248.469 26.6892 248C26.6892 247.541 26.5399 247.184 26.2412 246.928C25.9532 246.661 25.5212 246.528 24.9452 246.528H22.8812V249.472ZM33.3359 256V252.064L29.5599 244.8H32.0079L34.6479 250.336H34.2159L36.8399 244.8H39.2719L35.4959 252.064V256H33.3359ZM39.8602 251.744V249.952L44.7402 248.352V250.144L39.8602 251.744ZM40.9802 256V244.8H43.1402V254.32H48.0522V256H40.9802ZM54.1079 256.192C53.0199 256.192 52.0599 255.947 51.2279 255.456C50.3959 254.965 49.7453 254.288 49.2759 253.424C48.8066 252.549 48.5719 251.541 48.5719 250.4C48.5719 249.259 48.8066 248.256 49.2759 247.392C49.7453 246.517 50.3959 245.835 51.2279 245.344C52.0599 244.853 53.0199 244.608 54.1079 244.608C55.2066 244.608 56.1719 244.853 57.0039 245.344C57.8359 245.835 58.4813 246.517 58.9399 247.392C59.4093 248.256 59.6439 249.259 59.6439 250.4C59.6439 251.541 59.4093 252.549 58.9399 253.424C58.4813 254.288 57.8359 254.965 57.0039 255.456C56.1719 255.947 55.2066 256.192 54.1079 256.192ZM54.1079 254.256C54.7906 254.256 55.3773 254.101 55.8679 253.792C56.3693 253.472 56.7586 253.024 57.0359 252.448C57.3133 251.872 57.4519 251.189 57.4519 250.4C57.4519 249.6 57.3133 248.917 57.0359 248.352C56.7586 247.776 56.3693 247.333 55.8679 247.024C55.3773 246.715 54.7906 246.56 54.1079 246.56C53.4359 246.56 52.8493 246.715 52.3479 247.024C51.8466 247.333 51.4573 247.776 51.1799 248.352C50.9026 248.917 50.7639 249.6 50.7639 250.4C50.7639 251.189 50.9026 251.872 51.1799 252.448C51.4573 253.024 51.8466 253.472 52.3479 253.792C52.8493 254.101 53.4359 254.256 54.1079 254.256Z" fill="white"></path><path d="M100.408 39.9932C100.408 18.1779 118.093 0.493164 139.908 0.493164C161.723 0.493164 179.408 18.1779 179.408 39.9932V265.993C179.408 268.478 177.393 270.493 174.908 270.493H104.908C102.423 270.493 100.408 268.478 100.408 265.993V39.9932Z" fill="url(#paint0_linear_1648_20118)" fill-opacity="0.8"></path><path d="M100.408 39.9932C100.408 18.1779 118.093 0.493164 139.908 0.493164C161.723 0.493164 179.408 18.1779 179.408 39.9932V265.993C179.408 268.478 177.393 270.493 174.908 270.493H104.908C102.423 270.493 100.408 268.478 100.408 265.993V39.9932Z" stroke="url(#paint1_linear_1648_20118)"></path><path d="M132.908 22.4932L139.908 15.4932L146.908 22.4932" stroke="white" stroke-linecap="round" stroke-linejoin="round"></path><g opacity="0.7"><path d="M135.241 41.3264L139.908 36.6597L144.574 41.3264" stroke="white" stroke-linecap="round" stroke-linejoin="round"></path></g><g opacity="0.5"><path d="M135.826 56.0349L139.909 51.9516L143.992 56.0349" stroke="white" stroke-linecap="round" stroke-linejoin="round"></path></g><path d="M121.563 85.9932V75.2132L119.063 75.8732V73.6332L122.763 71.9932H124.443V85.9932H121.563ZM132.226 86.2332C131.2 86.2332 130.313 86.0532 129.566 85.6932C128.833 85.3332 128.253 84.8398 127.826 84.2132C127.413 83.5865 127.18 82.8665 127.126 82.0532H129.846C129.953 82.5598 130.22 82.9865 130.646 83.3332C131.073 83.6798 131.606 83.8532 132.246 83.8532C132.7 83.8532 133.1 83.7398 133.446 83.5132C133.793 83.2732 134.066 82.9532 134.266 82.5532C134.466 82.1532 134.566 81.7065 134.566 81.2132C134.566 80.6798 134.466 80.2265 134.266 79.8532C134.066 79.4798 133.793 79.1932 133.446 78.9932C133.1 78.7932 132.706 78.6932 132.266 78.6932C131.733 78.6932 131.266 78.8265 130.866 79.0932C130.466 79.3598 130.18 79.6798 130.006 80.0532H127.306L128.466 71.9932H136.366V74.4532H130.546L129.986 77.4332C130.266 77.1398 130.646 76.8998 131.126 76.7132C131.62 76.5132 132.166 76.4132 132.766 76.4132C133.526 76.4132 134.186 76.5465 134.746 76.8132C135.306 77.0798 135.773 77.4398 136.146 77.8932C136.52 78.3332 136.8 78.8398 136.986 79.4132C137.173 79.9732 137.266 80.5598 137.266 81.1732C137.266 81.9198 137.14 82.6065 136.886 83.2332C136.646 83.8465 136.3 84.3798 135.846 84.8332C135.393 85.2732 134.86 85.6198 134.246 85.8732C133.633 86.1132 132.96 86.2332 132.226 86.2332ZM144.687 86.2332C143.66 86.2332 142.774 86.0532 142.027 85.6932C141.294 85.3332 140.714 84.8398 140.287 84.2132C139.874 83.5865 139.64 82.8665 139.587 82.0532H142.307C142.414 82.5598 142.68 82.9865 143.107 83.3332C143.534 83.6798 144.067 83.8532 144.707 83.8532C145.16 83.8532 145.56 83.7398 145.907 83.5132C146.254 83.2732 146.527 82.9532 146.727 82.5532C146.927 82.1532 147.027 81.7065 147.027 81.2132C147.027 80.6798 146.927 80.2265 146.727 79.8532C146.527 79.4798 146.254 79.1932 145.907 78.9932C145.56 78.7932 145.167 78.6932 144.727 78.6932C144.194 78.6932 143.727 78.8265 143.327 79.0932C142.927 79.3598 142.64 79.6798 142.467 80.0532H139.767L140.927 71.9932H148.827V74.4532H143.007L142.447 77.4332C142.727 77.1398 143.107 76.8998 143.587 76.7132C144.08 76.5132 144.627 76.4132 145.227 76.4132C145.987 76.4132 146.647 76.5465 147.207 76.8132C147.767 77.0798 148.234 77.4398 148.607 77.8932C148.98 78.3332 149.26 78.8398 149.447 79.4132C149.634 79.9732 149.727 80.5598 149.727 81.1732C149.727 81.9198 149.6 82.6065 149.347 83.2332C149.107 83.8465 148.76 84.3798 148.307 84.8332C147.854 85.2732 147.32 85.6198 146.707 85.8732C146.094 86.1132 145.42 86.2332 144.687 86.2332ZM152.811 85.9932L157.891 74.3932H151.211V71.9932H160.771V73.9532L155.691 85.9932H152.811Z" fill="white"></path><path d="M125.465 256.185C124.74 256.185 124.1 256.046 123.545 255.769C123.001 255.492 122.58 255.086 122.281 254.553C121.982 254.009 121.833 253.353 121.833 252.585H123.993C123.993 252.926 124.041 253.225 124.137 253.481C124.244 253.726 124.398 253.918 124.601 254.057C124.814 254.185 125.086 254.249 125.417 254.249C125.737 254.249 125.993 254.19 126.185 254.073C126.388 253.945 126.532 253.769 126.617 253.545C126.713 253.31 126.761 253.033 126.761 252.713V244.793H128.921V252.713C128.921 253.833 128.606 254.692 127.977 255.289C127.358 255.886 126.521 256.185 125.465 256.185ZM131.129 255.993V244.793H138.489V246.537H133.289V249.465H138.009V251.145H133.289V254.249H138.489V255.993H131.129ZM144.314 256.185C143.503 256.185 142.778 256.046 142.138 255.769C141.508 255.492 141.007 255.086 140.634 254.553C140.271 254.02 140.084 253.374 140.074 252.617H142.362C142.372 252.948 142.458 253.246 142.618 253.513C142.778 253.78 142.996 253.993 143.274 254.153C143.562 254.302 143.903 254.377 144.298 254.377C144.639 254.377 144.932 254.324 145.178 254.217C145.434 254.1 145.631 253.94 145.77 253.737C145.908 253.534 145.978 253.294 145.978 253.017C145.978 252.697 145.898 252.43 145.738 252.217C145.588 252.004 145.375 251.822 145.098 251.673C144.831 251.524 144.516 251.39 144.154 251.273C143.802 251.145 143.428 251.012 143.034 250.873C142.148 250.585 141.471 250.201 141.002 249.721C140.543 249.241 140.314 248.606 140.314 247.817C140.314 247.145 140.474 246.569 140.794 246.089C141.124 245.609 141.578 245.241 142.154 244.985C142.73 244.729 143.386 244.601 144.122 244.601C144.879 244.601 145.54 244.734 146.106 245.001C146.682 245.257 147.135 245.63 147.466 246.121C147.807 246.612 147.983 247.188 147.994 247.849H145.69C145.679 247.604 145.604 247.374 145.466 247.161C145.338 246.937 145.156 246.761 144.922 246.633C144.687 246.494 144.41 246.425 144.09 246.425C143.812 246.414 143.556 246.457 143.322 246.553C143.098 246.649 142.916 246.793 142.778 246.985C142.65 247.166 142.586 247.396 142.586 247.673C142.586 247.94 142.65 248.164 142.778 248.345C142.916 248.526 143.103 248.686 143.338 248.825C143.572 248.953 143.85 249.076 144.17 249.193C144.49 249.3 144.836 249.412 145.21 249.529C145.764 249.721 146.276 249.95 146.746 250.217C147.215 250.473 147.588 250.809 147.866 251.225C148.143 251.641 148.282 252.19 148.282 252.873C148.282 253.46 148.127 254.004 147.818 254.505C147.508 255.006 147.06 255.412 146.474 255.721C145.898 256.03 145.178 256.185 144.314 256.185ZM152.612 255.993V246.537H149.332V244.793H158.02V246.537H154.756V255.993H152.612Z" fill="white"></path><defs><linearGradient id="paint0_linear_1648_20118" x1="163.908" y1="270.993" x2="163.908" y2="-0.00683594" gradientUnits="userSpaceOnUse"><stop stop-color="#52D8EA"></stop><stop offset="1" stop-color="#916AFF"></stop></linearGradient><linearGradient id="paint1_linear_1648_20118" x1="163.908" y1="270.993" x2="163.908" y2="-0.00683594" gradientUnits="userSpaceOnUse"><stop stop-color="#52D8EA"></stop><stop offset="1" stop-color="#916AFF"></stop></linearGradient></defs></svg>