<svg width="235" height="60" viewBox="0 0 235 60" fill="none" xmlns="http://www.w3.org/2000/svg">
<g clip-path="url(#clip0_411_729)">
<path d="M26.8897 14.5582C2.11033 7.68741 0.13615 0.884686 0 0.0683594C0.204225 1.36088 2.723 16.599 18.4484 19.5922V30.6806C18.4484 32.6534 18.3122 34.15 18.108 35.1024C17.9038 36.0548 17.4953 36.8711 16.8826 37.4833C16.338 38.0275 15.7254 38.4357 15.0446 38.7078C14.3639 38.9799 13.4108 39.116 12.3216 39.184V39.8643H30.9742V39.184C29.8169 39.116 28.9319 38.9799 28.2512 38.7078C27.5704 38.4357 26.9577 38.0275 26.4131 37.4833C25.8005 36.8711 25.392 36.0548 25.1878 35.1024C24.9836 34.15 24.8474 32.6534 24.8474 30.6806V20.8167C39.6878 24.15 51.6009 31.3609 58.0681 39.8643C58.0681 39.7963 53.3028 21.9051 26.8897 14.5582Z" fill="white"/>
<path d="M87.3404 33.6738C87 34.5582 86.5235 35.3745 85.9108 36.0548C85.0939 37.0752 84.0047 37.8235 82.7113 38.2997C81.4178 38.7759 79.784 39.048 77.8779 39.048C75.9718 39.048 74.5422 38.7759 73.453 38.2316C72.3638 37.6874 71.4789 36.8711 70.9343 35.7146C70.5939 35.0344 70.3897 34.218 70.2535 33.1976C70.1174 32.1772 70.0493 30.6126 70.0493 28.3677V22.8575H71.4108C72.6361 22.8575 73.5892 22.9935 74.338 23.1976C75.0868 23.4697 75.7676 23.8099 76.2441 24.3541C76.7206 24.8983 77.1291 25.5105 77.4014 26.2588C77.6737 27.0071 77.8779 28.0276 78.0141 29.252H78.5587L78.6267 16.3269H78.0821C77.946 17.5514 77.7418 18.5037 77.5375 19.116C77.3333 19.7282 76.9929 20.2725 76.5164 20.7486C76.0399 21.2248 75.4272 21.565 74.6784 21.7691C73.9296 21.9731 72.8404 22.0412 71.3427 22.0412H70.1174V7.61939H75.6314C77.3333 7.61939 78.6948 7.75545 79.7159 7.95953C80.7371 8.16361 81.6221 8.57177 82.3709 9.18402C83.2559 9.86429 84.0047 10.6126 84.4812 11.4969C84.9577 12.3813 85.2981 13.4697 85.5023 14.8303H86.0469L85.6385 6.87109H59.7019V7.41531C60.6549 7.48334 61.4037 7.61939 61.9483 7.82347C62.4929 8.02756 63.0375 8.36769 63.446 8.84388C63.9225 9.3881 64.2629 10.0003 64.4671 10.8167C64.6713 11.633 64.7394 12.8575 64.7394 14.4901V32.3133C64.7394 33.9459 64.6713 35.1704 64.4671 35.9867C64.2629 36.8031 63.9225 37.4153 63.446 37.9595C62.9695 38.4357 62.4929 38.7759 61.8803 38.9799C61.3357 39.184 60.5868 39.3201 59.6338 39.3881V39.9323H88.4296L88.7699 30.3405H88.2253C88.0211 31.633 87.6807 32.7895 87.3404 33.6738Z" fill="white"/>
<path d="M118.995 37.8228C118.519 37.2106 117.906 36.1902 117.157 34.8977C116.409 33.5371 115.319 31.3602 113.89 28.4351C113.277 27.1426 112.801 26.2582 112.528 25.714C112.188 25.2378 111.916 24.7616 111.507 24.4215C111.031 24.0133 110.35 23.5371 109.329 23.197C110.486 22.9249 111.439 22.6528 112.12 22.3807C112.801 22.1085 113.481 21.7004 114.026 21.2922C115.932 19.7956 116.885 17.7548 116.885 15.2378C116.885 13.5371 116.477 12.0405 115.592 10.816C114.707 9.52351 113.481 8.57113 111.848 7.95888C110.418 7.41467 108.444 7.07453 105.993 6.93848H90.54V7.48269C91.425 7.55072 92.1738 7.68678 92.7865 7.89086C93.3311 8.09494 93.8757 8.43508 94.2842 8.91127C94.8288 9.45548 95.1691 10.0677 95.3053 10.8841C95.5095 11.7004 95.5776 12.9249 95.5776 14.5575V32.3807C95.5776 34.0133 95.5095 35.2378 95.3053 36.0541C95.1011 36.8704 94.7607 37.4827 94.2842 38.0269C93.8757 38.5031 93.3311 38.8432 92.7865 39.0473C92.2419 39.2514 91.4931 39.3875 90.54 39.4555V39.9997H105.993V39.4555C105.04 39.3875 104.291 39.2514 103.747 39.0473C103.202 38.8432 102.657 38.5031 102.249 38.0269C101.772 37.4827 101.432 36.8704 101.228 36.0541C101.024 35.2378 100.956 34.0133 100.956 32.3807V23.6732H102.113C102.862 23.6732 103.474 23.7412 103.951 23.8773C104.427 24.0133 104.904 24.2174 105.38 24.5575C106.265 25.1698 107.15 26.3943 108.24 28.163C109.261 29.9317 110.282 31.9725 111.303 34.2854L113.005 38.0949C113.141 38.367 113.345 38.9113 113.754 39.7956H121.787V39.2514C121.106 39.1834 120.629 39.0473 120.221 38.8432C119.812 38.7072 119.404 38.367 118.995 37.8228ZM106.129 22.7888C105.244 22.9929 103.815 23.129 101.841 23.129H100.956V7.61875H101.977C103.679 7.61875 105.04 7.7548 105.993 7.95888C106.946 8.16297 107.763 8.57113 108.376 9.11535C109.261 9.86365 109.941 10.748 110.418 11.9045C110.894 12.9929 111.167 14.2174 111.167 15.5099C111.167 17.8909 110.35 19.8636 108.648 21.4963C107.831 22.1085 107.014 22.5847 106.129 22.7888Z" fill="white"/>
<path d="M145.136 32.6527L134.652 6.87043H124.169V7.41465C125.326 7.48267 126.279 7.68676 126.96 8.02689C127.64 8.36703 128.185 8.97927 128.594 9.72757C128.866 10.2718 129.07 11.1561 129.138 12.3126C129.206 12.9929 129.206 13.6732 129.206 14.4215V32.2446C129.206 33.8772 129.138 35.1017 128.934 35.918C128.73 36.7344 128.389 37.3466 127.913 37.8908C127.436 38.367 126.96 38.7072 126.347 38.9112C125.734 39.1153 125.054 39.2514 124.101 39.3194V39.8636H135.265V39.3194C134.312 39.2514 133.631 39.1153 133.018 38.9112C132.474 38.7072 131.929 38.367 131.521 37.8908C131.044 37.3466 130.704 36.7344 130.5 35.918C130.295 35.1017 130.227 33.8772 130.227 32.2446V11.0881L142.617 39.7956H143.162L155.619 10.6119V32.1766C155.619 33.8092 155.551 35.0337 155.347 35.85C155.143 36.6663 154.802 37.2786 154.326 37.8228C153.849 38.299 153.373 38.6391 152.76 38.8432C152.216 39.0473 151.467 39.1834 150.514 39.2514V39.7956H165.967V39.2514C164.333 39.1834 163.108 38.7072 162.223 37.8228C161.746 37.3466 161.406 36.6663 161.202 35.918C160.997 35.1017 160.929 33.8772 160.929 32.2446V14.4215C160.929 13.265 160.997 12.3126 161.065 11.4283C161.133 10.816 161.27 10.2718 161.406 9.86363C161.61 9.45546 161.882 9.0473 162.223 8.70716C162.699 8.23097 163.176 7.89084 163.788 7.68676C164.333 7.48267 165.082 7.34662 165.967 7.27859V6.73438H156.028L145.136 32.6527Z" fill="white"/>
<path d="M195.92 33.6738C195.579 34.5582 195.103 35.3745 194.49 36.0548C193.673 37.0752 192.584 37.8235 191.291 38.2997C189.997 38.7759 188.364 39.048 186.457 39.048C184.551 39.048 183.122 38.7759 182.033 38.2316C180.943 37.6874 180.058 36.8711 179.514 35.7146C179.173 35.0344 178.969 34.218 178.833 33.1976C178.697 32.1772 178.697 30.6126 178.697 28.3677V22.8575H180.058C181.284 22.8575 182.237 22.9935 182.986 23.1976C183.734 23.4697 184.415 23.8099 184.892 24.3541C185.368 24.8983 185.777 25.5105 186.049 26.2588C186.321 27.0071 186.526 28.0276 186.662 29.252H187.206L187.274 16.3269H186.73C186.594 17.5514 186.389 18.5037 186.185 19.116C185.981 19.7282 185.641 20.2725 185.164 20.7486C184.687 21.2248 184.075 21.565 183.326 21.7691C182.577 21.9731 181.488 22.0412 179.99 22.0412H178.561V7.61939H184.075C185.777 7.61939 187.138 7.75545 188.159 7.95953C189.18 8.16361 190.065 8.57177 190.814 9.18402C191.699 9.86429 192.448 10.6126 192.925 11.4969C193.401 12.3813 193.741 13.4697 193.946 14.8303H194.49L194.082 6.87109H168.077V7.41531C169.03 7.48334 169.779 7.61939 170.324 7.82347C170.868 8.02756 171.413 8.36769 171.821 8.84388C172.298 9.3881 172.638 10.0003 172.842 10.8167C173.047 11.633 173.115 12.8575 173.115 14.4901V32.3133C173.115 33.9459 173.047 35.1704 172.842 35.9867C172.638 36.8031 172.298 37.4153 171.821 37.9595C171.345 38.4357 170.868 38.7759 170.324 38.9799C169.779 39.184 169.03 39.3201 168.077 39.3881V39.9323H196.873L197.213 30.3405H196.669C196.601 31.633 196.26 32.7895 195.92 33.6738Z" fill="white"/>
<path d="M230.367 38.8432C229.958 38.6392 229.618 38.299 229.209 37.8228C228.733 37.2106 228.12 36.1902 227.371 34.8977C226.622 33.5371 225.533 31.3602 224.104 28.4351C223.491 27.1426 223.014 26.2582 222.742 25.714C222.402 25.2378 222.061 24.7616 221.721 24.4215C221.245 24.0133 220.564 23.5371 219.543 23.197C220.7 22.9249 221.653 22.6528 222.334 22.3807C223.014 22.1085 223.695 21.7004 224.24 21.2922C226.146 19.7956 227.099 17.7548 227.099 15.2378C227.099 13.5371 226.691 12.0405 225.806 10.816C224.921 9.52351 223.695 8.57113 222.061 7.95888C220.632 7.41467 218.658 7.07453 216.207 6.93848H200.754V7.48269C201.639 7.55072 202.388 7.68678 203 7.89086C203.613 8.09494 204.09 8.43508 204.498 8.91127C205.043 9.45548 205.383 10.0677 205.519 10.8841C205.723 11.7004 205.791 12.9249 205.791 14.5575V32.3807C205.791 34.0133 205.723 35.2378 205.519 36.0541C205.315 36.8704 204.975 37.4827 204.498 38.0269C204.09 38.5031 203.545 38.8432 203 39.0473C202.456 39.2514 201.707 39.3875 200.754 39.4555V39.9997H216.207V39.4555C215.254 39.3875 214.505 39.2514 213.96 39.0473C213.416 38.8432 212.871 38.5031 212.463 38.0269C211.986 37.4827 211.646 36.8704 211.442 36.0541C211.237 35.2378 211.169 34.0133 211.169 32.3807V23.6732H212.327C213.076 23.6732 213.688 23.7412 214.165 23.8773C214.641 24.0133 215.118 24.2174 215.594 24.5575C216.479 25.1698 217.364 26.3943 218.453 28.163C219.475 29.9317 220.496 31.9725 221.517 34.2854L223.219 38.0949C223.355 38.367 223.559 38.9113 223.968 39.7956H232V39.2514C231.252 39.1834 230.775 39.0473 230.367 38.8432ZM216.343 22.7888C215.458 22.9929 214.029 23.129 212.054 23.129H211.101V7.61875H212.122C213.824 7.61875 215.186 7.7548 216.139 7.95888C217.092 8.16297 217.909 8.57113 218.522 9.11535C219.406 9.86365 220.087 10.748 220.564 11.9045C221.04 12.9929 221.313 14.2174 221.313 15.5099C221.313 17.8909 220.496 19.8636 218.794 21.4963C217.977 22.1085 217.16 22.5847 216.343 22.7888Z" fill="white"/>
<path d="M39.415 0.680272C40.5723 0.748299 41.4573 0.884354 42.138 1.15646C42.8188 1.42857 43.4315 1.83673 43.9761 2.38095C44.5887 2.9932 44.9972 3.80952 45.2014 4.7619C45.4056 5.71429 45.5418 7.21088 45.5418 9.18367V21.0884C48.1287 23.0612 50.239 25.102 51.8728 27.0068V9.18367C51.8728 7.21088 52.0089 5.71429 52.2132 4.7619C52.4174 3.80952 52.8258 2.9932 53.4385 2.38095C53.9831 1.83673 54.5958 1.42857 55.2765 1.15646C55.9573 0.884354 56.8423 0.748299 57.9995 0.680272V0H39.415V0.680272Z" fill="white"/>
<path d="M16.8823 2.38095C17.495 2.9932 17.9034 3.80952 18.1077 4.7619C18.3119 5.71429 18.448 7.21088 18.448 9.18367V9.52381C20.3542 10.2041 22.4645 10.8844 24.8471 11.5646V9.18367C24.8471 7.21088 24.9833 5.71429 25.1875 4.7619C25.3917 3.80952 25.8002 2.9932 26.4128 2.38095C26.9574 1.83673 27.5701 1.42857 28.2509 1.15646C28.9316 0.884354 29.8166 0.748299 30.9739 0.680272V0H12.3213V0.680272C13.4105 0.748299 14.3635 0.884354 15.0443 1.15646C15.725 1.36054 16.3377 1.76871 16.8823 2.38095Z" fill="white"/>
</g>
<path d="M11.8496 56.2871V48.5871H16.8766V49.7201H13.2576V51.8321H16.5466V52.9321H13.2576V55.1541H16.8766V56.2871H11.8496ZM19.4189 56.2871V48.5871H24.3909V49.7201H20.8269V51.8761H23.7089V52.9871H20.8269V56.2871H19.4189ZM26.6875 56.2871V48.5871H31.7145V49.7201H28.0955V51.8321H31.3845V52.9321H28.0955V55.1541H31.7145V56.2871H26.6875ZM34.2569 56.2871V48.5871H35.6649V51.7001L38.5139 48.5871H40.2519L37.4139 51.6451L40.3289 56.2871H38.6019L36.4019 52.7231L35.6649 53.5261V56.2871H34.2569ZM44.296 56.2871V49.7201H42.052V48.5871H47.959V49.7201H45.704V56.2871H44.296ZM52.2031 56.2871V53.5481L49.6181 48.5871H51.2131L52.9181 52.1401L54.6121 48.5871H56.1851L53.6111 53.5481V56.2871H52.2031ZM59.8591 56.2871L57.8241 48.5871H59.3311L60.7171 54.7141L62.3451 48.5871H63.8961L65.4801 54.7141L66.8661 48.5871H68.3841L66.2941 56.2871H64.6221L63.0931 50.5781L61.5201 56.2871H59.8591ZM70.6145 56.2871V48.5871H72.0225L75.6415 54.0101V48.5871H77.0495V56.2871H75.6415L72.0225 50.8751V56.2871H70.6145ZM79.7522 56.2871V48.5871H84.7792V49.7201H81.1602V51.8321H84.4492V52.9321H81.1602V55.1541H84.7792V56.2871H79.7522ZM93.7817 56.4191C93.217 56.4191 92.7184 56.3238 92.2857 56.1331C91.853 55.9351 91.512 55.6564 91.2627 55.2971C91.0134 54.9304 90.885 54.4868 90.8777 53.9661H92.3627C92.3774 54.3254 92.5057 54.6298 92.7477 54.8791C92.997 55.1211 93.338 55.2421 93.7707 55.2421C94.1447 55.2421 94.4417 55.1541 94.6617 54.9781C94.8817 54.7948 94.9917 54.5528 94.9917 54.2521C94.9917 53.9368 94.8927 53.6911 94.6947 53.5151C94.504 53.3391 94.2474 53.1961 93.9247 53.0861C93.602 52.9761 93.2574 52.8588 92.8907 52.7341C92.2967 52.5288 91.842 52.2648 91.5267 51.9421C91.2187 51.6194 91.0647 51.1904 91.0647 50.6551C91.0574 50.2004 91.1637 49.8118 91.3837 49.4891C91.611 49.1591 91.919 48.9061 92.3077 48.7301C92.6964 48.5468 93.1437 48.4551 93.6497 48.4551C94.163 48.4551 94.614 48.5468 95.0027 48.7301C95.3987 48.9134 95.7067 49.1701 95.9267 49.5001C96.154 49.8301 96.275 50.2224 96.2897 50.6771H94.7827C94.7754 50.4058 94.669 50.1674 94.4637 49.9621C94.2657 49.7494 93.987 49.6431 93.6277 49.6431C93.3197 49.6358 93.0594 49.7128 92.8467 49.8741C92.6414 50.0281 92.5387 50.2554 92.5387 50.5561C92.5387 50.8128 92.6194 51.0181 92.7807 51.1721C92.942 51.3188 93.162 51.4434 93.4407 51.5461C93.7194 51.6488 94.0384 51.7588 94.3977 51.8761C94.779 52.0081 95.1274 52.1621 95.4427 52.3381C95.758 52.5141 96.011 52.7488 96.2017 53.0421C96.3924 53.3281 96.4877 53.6984 96.4877 54.1531C96.4877 54.5564 96.385 54.9304 96.1797 55.2751C95.9744 55.6198 95.67 55.8984 95.2667 56.1111C94.8634 56.3164 94.3684 56.4191 93.7817 56.4191ZM100.622 56.2871V49.7201H98.3785V48.5871H104.285V49.7201H102.03V56.2871H100.622ZM106.539 56.2871V48.5871H109.366C109.982 48.5871 110.488 48.6934 110.884 48.9061C111.287 49.1114 111.588 49.3938 111.786 49.7531C111.984 50.1051 112.083 50.4974 112.083 50.9301C112.083 51.3994 111.958 51.8284 111.709 52.2171C111.467 52.6058 111.085 52.8881 110.565 53.0641L112.16 56.2871H110.543L109.113 53.2511H107.947V56.2871H106.539ZM107.947 52.2171H109.278C109.747 52.2171 110.092 52.1034 110.312 51.8761C110.532 51.6488 110.642 51.3481 110.642 50.9741C110.642 50.6074 110.532 50.3141 110.312 50.0941C110.099 49.8741 109.751 49.7641 109.267 49.7641H107.947V52.2171ZM118.21 56.4191C117.44 56.4191 116.765 56.2504 116.186 55.9131C115.614 55.5758 115.163 55.1101 114.833 54.5161C114.51 53.9148 114.349 53.2218 114.349 52.4371C114.349 51.6524 114.51 50.9631 114.833 50.3691C115.163 49.7678 115.614 49.2984 116.186 48.9611C116.765 48.6238 117.44 48.4551 118.21 48.4551C118.973 48.4551 119.644 48.6238 120.223 48.9611C120.802 49.2984 121.253 49.7678 121.576 50.3691C121.899 50.9631 122.06 51.6524 122.06 52.4371C122.06 53.2218 121.899 53.9148 121.576 54.5161C121.253 55.1101 120.802 55.5758 120.223 55.9131C119.644 56.2504 118.973 56.4191 118.21 56.4191ZM118.21 55.1541C118.943 55.1541 119.526 54.9121 119.959 54.4281C120.399 53.9441 120.619 53.2804 120.619 52.4371C120.619 51.5938 120.399 50.9301 119.959 50.4461C119.526 49.9621 118.943 49.7201 118.21 49.7201C117.477 49.7201 116.89 49.9621 116.45 50.4461C116.01 50.9301 115.79 51.5938 115.79 52.4371C115.79 53.2804 116.01 53.9441 116.45 54.4281C116.89 54.9121 117.477 55.1541 118.21 55.1541ZM124.513 56.2871V48.5871H125.921L129.54 54.0101V48.5871H130.948V56.2871H129.54L125.921 50.8751V56.2871H124.513ZM135.642 56.2871V53.5481L133.057 48.5871H134.652L136.357 52.1401L138.051 48.5871H139.624L137.05 53.5481V56.2871H135.642ZM145.567 56.2871V48.5871H146.975V56.2871H145.567ZM149.677 56.2871V48.5871H151.085L154.704 54.0101V48.5871H156.112V56.2871H154.704L151.085 50.8751V56.2871H149.677ZM160.608 56.2871V49.7201H158.364V48.5871H164.271V49.7201H162.016V56.2871H160.608ZM166.524 56.2871V48.5871H171.551V49.7201H167.932V51.8321H171.221V52.9321H167.932V55.1541H171.551V56.2871H166.524ZM174.094 56.2871V48.5871H176.921C177.537 48.5871 178.043 48.6934 178.439 48.9061C178.842 49.1114 179.143 49.3938 179.341 49.7531C179.539 50.1051 179.638 50.4974 179.638 50.9301C179.638 51.3994 179.513 51.8284 179.264 52.2171C179.022 52.6058 178.64 52.8881 178.12 53.0641L179.715 56.2871H178.098L176.668 53.2511H175.502V56.2871H174.094ZM175.502 52.2171H176.833C177.302 52.2171 177.647 52.1034 177.867 51.8761C178.087 51.6488 178.197 51.3481 178.197 50.9741C178.197 50.6074 178.087 50.3141 177.867 50.0941C177.654 49.8741 177.306 49.7641 176.822 49.7641H175.502V52.2171ZM182.157 56.2871V48.5871H183.565L187.184 54.0101V48.5871H188.592V56.2871H187.184L183.565 50.8751V56.2871H182.157ZM191.295 56.2871V48.5871H196.322V49.7201H192.703V51.8321H195.992V52.9321H192.703V55.1541H196.322V56.2871H191.295ZM200.657 56.2871V49.7201H198.413V48.5871H204.32V49.7201H202.065V56.2871H200.657ZM209.902 56.4191C209.132 56.4191 208.457 56.2504 207.878 55.9131C207.306 55.5758 206.855 55.1101 206.525 54.5161C206.202 53.9148 206.041 53.2218 206.041 52.4371C206.041 51.6524 206.202 50.9631 206.525 50.3691C206.855 49.7678 207.306 49.2984 207.878 48.9611C208.457 48.6238 209.132 48.4551 209.902 48.4551C210.665 48.4551 211.336 48.6238 211.915 48.9611C212.494 49.2984 212.945 49.7678 213.268 50.3691C213.591 50.9631 213.752 51.6524 213.752 52.4371C213.752 53.2218 213.591 53.9148 213.268 54.5161C212.945 55.1101 212.494 55.5758 211.915 55.9131C211.336 56.2504 210.665 56.4191 209.902 56.4191ZM209.902 55.1541C210.635 55.1541 211.218 54.9121 211.651 54.4281C212.091 53.9441 212.311 53.2804 212.311 52.4371C212.311 51.5938 212.091 50.9301 211.651 50.4461C211.218 49.9621 210.635 49.7201 209.902 49.7201C209.169 49.7201 208.582 49.9621 208.142 50.4461C207.702 50.9301 207.482 51.5938 207.482 52.4371C207.482 53.2804 207.702 53.9441 208.142 54.4281C208.582 54.9121 209.169 55.1541 209.902 55.1541ZM217.434 56.2871L215.399 48.5871H216.906L218.292 54.7141L219.92 48.5871H221.471L223.055 54.7141L224.441 48.5871H225.959L223.869 56.2871H222.197L220.668 50.5781L219.095 56.2871H217.434ZM228.189 56.2871V48.5871H233.216V49.7201H229.597V51.8321H232.886V52.9321H229.597V55.1541H233.216V56.2871H228.189Z" fill="#916AFF"/>
<defs>
<clipPath id="clip0_411_729">
<rect width="232" height="40" fill="white"/>
</clipPath>
</defs>
</svg>
