<svg xmlns:xlink="http://www.w3.org/1999/xlink" xmlns="http://www.w3.org/2000/svg" width="62" height="62" viewBox="0 0 62 62" fill="none"><g clip-path="url(#clip0_2255_6815)" fill="none"><path d="M27.9297 47.978V54.7292" stroke="url(&quot;#paint0_linear_2255_6815&quot;)" stroke-width="1.5px" stroke-miterlimit="10" stroke-linecap="round" stroke-linejoin="round" fill="none"></path><path d="M20.7969 47.978V54.7292" stroke="url(&quot;#paint1_linear_2255_6815&quot;)" stroke-width="1.5px" stroke-miterlimit="10" stroke-linecap="round" stroke-linejoin="round" fill="none"></path><mask id="mask0_2255_6815" style="mask-type:luminance" maskUnits="userSpaceOnUse" x="0" y="0" width="62" height="62" fill="none"><path d="M0 3.8147e-06H62V62H0V3.8147e-06Z" fill="#FFFFFF"></path></mask><g mask="url(#mask0_2255_6815)" fill="none"><path d="M24.3672 48.4021V59.0002" stroke="url(&quot;#paint2_linear_2255_6815&quot;)" stroke-width="1.5px" stroke-miterlimit="10" stroke-linecap="round" stroke-linejoin="round" fill="none"></path></g><path d="M48.1328 21.6758H54.884" stroke="url(&quot;#paint3_linear_2255_6815&quot;)" stroke-width="1.5px" stroke-miterlimit="10" stroke-linecap="round" stroke-linejoin="round" fill="none"></path><path d="M48.1328 28.811H54.884" stroke="url(&quot;#paint4_linear_2255_6815&quot;)" stroke-width="1.5px" stroke-miterlimit="10" stroke-linecap="round" stroke-linejoin="round" fill="none"></path><mask id="mask1_2255_6815" style="mask-type:luminance" maskUnits="userSpaceOnUse" x="0" y="0" width="62" height="62" fill="none"><path d="M0 3.8147e-06H62V62H0V3.8147e-06Z" fill="#FFFFFF"></path></mask><g mask="url(#mask1_2255_6815)" fill="none"><path d="M48.4062 25.2435H59.216" stroke="url(&quot;#paint5_linear_2255_6815&quot;)" stroke-width="1.5px" stroke-miterlimit="10" stroke-linecap="round" stroke-linejoin="round" fill="none"></path><path d="M59.9959 54.8569L60.8804 55.7415C61.1641 56.0251 61.1641 56.4851 60.8804 56.769L56.7704 60.8789C56.4866 61.1628 56.0266 61.1628 55.7429 60.8789L43.584 48.72C43.3001 48.4364 43.3001 47.9764 43.584 47.6927L47.694 43.5826C47.9777 43.2988 48.4378 43.2988 48.7215 43.5826L57.2575 52.1186" stroke="url(&quot;#paint6_linear_2255_6815&quot;)" stroke-width="1.5px" stroke-miterlimit="10" stroke-linecap="round" stroke-linejoin="round" fill="none"></path><path d="M42.6109 40.0396L46.9232 44.353L44.3547 46.9215L40.0469 42.6148" stroke="url(&quot;#paint7_linear_2255_6815&quot;)" stroke-width="1.5px" stroke-miterlimit="10" stroke-linecap="round" stroke-linejoin="round" fill="none"></path><path d="M53.558 48.4203L48.4203 53.558L45.8516 50.9892L50.9892 45.8516L53.558 48.4203Z" stroke="url(&quot;#paint8_linear_2255_6815&quot;)" stroke-width="1.5px" stroke-miterlimit="10" stroke-linecap="round" stroke-linejoin="round" fill="none"></path><path d="M43.0484 9.87726C46.2345 13.902 48.1367 18.9897 48.1367 24.5216C48.1367 37.5628 37.5646 48.1349 24.5234 48.1349C11.4821 48.1349 0.910156 37.5628 0.910156 24.5216C0.910156 11.4803 11.4821 0.908325 24.5234 0.908325C30.6365 0.908325 36.207 3.23127 40.4004 7.04257" stroke="url(&quot;#paint9_linear_2255_6815&quot;)" stroke-width="1.5px" stroke-miterlimit="10" stroke-linecap="round" stroke-linejoin="round" fill="none"></path><path d="M9.56267 37.8066C6.38481 34.2736 4.48606 29.6181 4.54019 24.5215C4.65729 13.5047 13.5034 4.54102 24.5207 4.54102C35.538 4.54102 44.5011 13.5043 44.5011 24.5215C44.5011 35.5387 35.538 44.502 24.5207 44.502C19.9483 44.4477 15.7638 42.935 12.4188 40.4207" stroke="url(&quot;#paint10_linear_2255_6815&quot;)" stroke-width="1.5px" stroke-miterlimit="10" stroke-linecap="round" stroke-linejoin="round" fill="none"></path><path d="M13.9258 14.2891C13.9258 14.0216 14.1427 13.8047 14.4102 13.8047H20.707C20.9745 13.8047 21.1914 14.0216 21.1914 14.2891V24.9453H13.9258V14.2891Z" stroke="url(&quot;#paint11_linear_2255_6815&quot;)" stroke-width="1.5px" stroke-miterlimit="10" stroke-linecap="round" stroke-linejoin="round" fill="none"></path><path d="M35.7227 24.9453H28.457V18.8906C28.457 18.6231 28.6739 18.4062 28.9414 18.4062H35.2383C35.5058 18.4062 35.7227 18.6231 35.7227 18.8906V24.9453Z" stroke="url(&quot;#paint12_linear_2255_6815&quot;)" stroke-width="1.5px" stroke-miterlimit="10" stroke-linecap="round" stroke-linejoin="round" fill="none"></path><path d="M28.457 24.9453H21.1914V9.6875C21.1914 9.42 21.4083 9.20313 21.6758 9.20313H27.9727C28.2402 9.20313 28.457 9.42 28.457 9.6875V24.9453Z" stroke="url(&quot;#paint13_linear_2255_6815&quot;)" stroke-width="1.5px" stroke-miterlimit="10" stroke-linecap="round" stroke-linejoin="round" fill="none"></path><path d="M11.8047 24.9453H37.849" stroke="url(&quot;#paint14_linear_2255_6815&quot;)" stroke-width="1.5px" stroke-miterlimit="10" stroke-linecap="round" stroke-linejoin="round" fill="none"></path><path d="M14.875 34.4575H19.6725L21.714 30.801L24.4042 38.4264L27.9314 28.915L30.0998 34.4575H34.9952" stroke="url(&quot;#paint15_linear_2255_6815&quot;)" stroke-width="1.5px" stroke-miterlimit="10" stroke-linecap="round" stroke-linejoin="round" fill="none"></path></g></g><defs><linearGradient id="paint0_linear_2255_6815" x1="27.9954" y1="49.072" x2="29.4324" y2="49.2848" gradientUnits="userSpaceOnUse"><stop stop-color="#52D8EA"></stop><stop offset="1" stop-color="#916AFF"></stop></linearGradient><linearGradient id="paint1_linear_2255_6815" x1="20.8626" y1="49.072" x2="22.2996" y2="49.2848" gradientUnits="userSpaceOnUse"><stop stop-color="#52D8EA"></stop><stop offset="1" stop-color="#916AFF"></stop></linearGradient><linearGradient id="paint2_linear_2255_6815" x1="24.4329" y1="50.1194" x2="25.8885" y2="50.2567" gradientUnits="userSpaceOnUse"><stop stop-color="#52D8EA"></stop><stop offset="1" stop-color="#916AFF"></stop></linearGradient><linearGradient id="paint3_linear_2255_6815" x1="48.5766" y1="20.8378" x2="48.7895" y2="22.2748" gradientUnits="userSpaceOnUse"><stop stop-color="#52D8EA"></stop><stop offset="1" stop-color="#916AFF"></stop></linearGradient><linearGradient id="paint4_linear_2255_6815" x1="48.5766" y1="27.9731" x2="48.7895" y2="29.4101" gradientUnits="userSpaceOnUse"><stop stop-color="#52D8EA"></stop><stop offset="1" stop-color="#916AFF"></stop></linearGradient><linearGradient id="paint5_linear_2255_6815" x1="49.1169" y1="24.4056" x2="49.2516" y2="25.8616" gradientUnits="userSpaceOnUse"><stop stop-color="#52D8EA"></stop><stop offset="1" stop-color="#916AFF"></stop></linearGradient><linearGradient id="paint6_linear_2255_6815" x1="44.5362" y1="46.2414" x2="57.5488" y2="59.254" gradientUnits="userSpaceOnUse"><stop stop-color="#52D8EA"></stop><stop offset="1" stop-color="#916AFF"></stop></linearGradient><linearGradient id="paint7_linear_2255_6815" x1="40.4989" y1="41.1547" x2="45.552" y2="46.2037" gradientUnits="userSpaceOnUse"><stop stop-color="#52D8EA"></stop><stop offset="1" stop-color="#916AFF"></stop></linearGradient><linearGradient id="paint8_linear_2255_6815" x1="46.3582" y1="47.1003" x2="52.0167" y2="52.7588" gradientUnits="userSpaceOnUse"><stop stop-color="#52D8EA"></stop><stop offset="1" stop-color="#916AFF"></stop></linearGradient><linearGradient id="paint9_linear_2255_6815" x1="4.01487" y1="8.56078" x2="38.6914" y2="43.2373" gradientUnits="userSpaceOnUse"><stop stop-color="#52D8EA"></stop><stop offset="1" stop-color="#916AFF"></stop></linearGradient><linearGradient id="paint10_linear_2255_6815" x1="7.1662" y1="11.0162" x2="36.5079" y2="40.3587" gradientUnits="userSpaceOnUse"><stop stop-color="#52D8EA"></stop><stop offset="1" stop-color="#916AFF"></stop></linearGradient><linearGradient id="paint11_linear_2255_6815" x1="14.4034" y1="15.6099" x2="21.8892" y2="20.4919" gradientUnits="userSpaceOnUse"><stop stop-color="#52D8EA"></stop><stop offset="1" stop-color="#916AFF"></stop></linearGradient><linearGradient id="paint12_linear_2255_6815" x1="28.9347" y1="19.4658" x2="33.7095" y2="24.7712" gradientUnits="userSpaceOnUse"><stop stop-color="#52D8EA"></stop><stop offset="1" stop-color="#916AFF"></stop></linearGradient><linearGradient id="paint13_linear_2255_6815" x1="21.6691" y1="11.7539" x2="30.4651" y2="15.8136" gradientUnits="userSpaceOnUse"><stop stop-color="#52D8EA"></stop><stop offset="1" stop-color="#916AFF"></stop></linearGradient><linearGradient id="paint14_linear_2255_6815" x1="13.5169" y1="24.1073" x2="13.5732" y2="25.5737" gradientUnits="userSpaceOnUse"><stop stop-color="#52D8EA"></stop><stop offset="1" stop-color="#916AFF"></stop></linearGradient><linearGradient id="paint15_linear_2255_6815" x1="16.1977" y1="30.4562" x2="21.5946" y2="41.8726" gradientUnits="userSpaceOnUse"><stop stop-color="#52D8EA"></stop><stop offset="1" stop-color="#916AFF"></stop></linearGradient><clipPath id="clip0_2255_6815"><rect width="62" height="62" fill="white"></rect></clipPath><linearGradient id="paint0_linear_2255_6815" x1="27.9954" y1="49.072" x2="29.4324" y2="49.2848" gradientUnits="userSpaceOnUse"><stop stop-color="#52D8EA"></stop><stop offset="1" stop-color="#916AFF"></stop></linearGradient><linearGradient id="paint1_linear_2255_6815" x1="20.8626" y1="49.072" x2="22.2996" y2="49.2848" gradientUnits="userSpaceOnUse"><stop stop-color="#52D8EA"></stop><stop offset="1" stop-color="#916AFF"></stop></linearGradient><linearGradient id="paint2_linear_2255_6815" x1="24.4329" y1="50.1194" x2="25.8885" y2="50.2567" gradientUnits="userSpaceOnUse"><stop stop-color="#52D8EA"></stop><stop offset="1" stop-color="#916AFF"></stop></linearGradient><linearGradient id="paint3_linear_2255_6815" x1="48.5766" y1="20.8378" x2="48.7895" y2="22.2748" gradientUnits="userSpaceOnUse"><stop stop-color="#52D8EA"></stop><stop offset="1" stop-color="#916AFF"></stop></linearGradient><linearGradient id="paint4_linear_2255_6815" x1="48.5766" y1="27.9731" x2="48.7895" y2="29.4101" gradientUnits="userSpaceOnUse"><stop stop-color="#52D8EA"></stop><stop offset="1" stop-color="#916AFF"></stop></linearGradient><linearGradient id="paint5_linear_2255_6815" x1="49.1169" y1="24.4056" x2="49.2516" y2="25.8616" gradientUnits="userSpaceOnUse"><stop stop-color="#52D8EA"></stop><stop offset="1" stop-color="#916AFF"></stop></linearGradient><linearGradient id="paint6_linear_2255_6815" x1="44.5362" y1="46.2414" x2="57.5488" y2="59.254" gradientUnits="userSpaceOnUse"><stop stop-color="#52D8EA"></stop><stop offset="1" stop-color="#916AFF"></stop></linearGradient><linearGradient id="paint7_linear_2255_6815" x1="40.4989" y1="41.1547" x2="45.552" y2="46.2037" gradientUnits="userSpaceOnUse"><stop stop-color="#52D8EA"></stop><stop offset="1" stop-color="#916AFF"></stop></linearGradient><linearGradient id="paint8_linear_2255_6815" x1="46.3582" y1="47.1003" x2="52.0167" y2="52.7588" gradientUnits="userSpaceOnUse"><stop stop-color="#52D8EA"></stop><stop offset="1" stop-color="#916AFF"></stop></linearGradient><linearGradient id="paint9_linear_2255_6815" x1="4.01487" y1="8.56078" x2="38.6914" y2="43.2373" gradientUnits="userSpaceOnUse"><stop stop-color="#52D8EA"></stop><stop offset="1" stop-color="#916AFF"></stop></linearGradient><linearGradient id="paint10_linear_2255_6815" x1="7.1662" y1="11.0162" x2="36.5079" y2="40.3587" gradientUnits="userSpaceOnUse"><stop stop-color="#52D8EA"></stop><stop offset="1" stop-color="#916AFF"></stop></linearGradient><linearGradient id="paint11_linear_2255_6815" x1="14.4034" y1="15.6099" x2="21.8892" y2="20.4919" gradientUnits="userSpaceOnUse"><stop stop-color="#52D8EA"></stop><stop offset="1" stop-color="#916AFF"></stop></linearGradient><linearGradient id="paint12_linear_2255_6815" x1="28.9347" y1="19.4658" x2="33.7095" y2="24.7712" gradientUnits="userSpaceOnUse"><stop stop-color="#52D8EA"></stop><stop offset="1" stop-color="#916AFF"></stop></linearGradient><linearGradient id="paint13_linear_2255_6815" x1="21.6691" y1="11.7539" x2="30.4651" y2="15.8136" gradientUnits="userSpaceOnUse"><stop stop-color="#52D8EA"></stop><stop offset="1" stop-color="#916AFF"></stop></linearGradient><linearGradient id="paint14_linear_2255_6815" x1="13.5169" y1="24.1073" x2="13.5732" y2="25.5737" gradientUnits="userSpaceOnUse"><stop stop-color="#52D8EA"></stop><stop offset="1" stop-color="#916AFF"></stop></linearGradient><linearGradient id="paint15_linear_2255_6815" x1="16.1977" y1="30.4562" x2="21.5946" y2="41.8726" gradientUnits="userSpaceOnUse"><stop stop-color="#52D8EA"></stop><stop offset="1" stop-color="#916AFF"></stop></linearGradient></defs></svg>