<svg xmlns:xlink="http://www.w3.org/1999/xlink" xmlns="http://www.w3.org/2000/svg" width="62" height="61" viewBox="0 0 62 61" fill="none"><mask id="mask0_2843_9987" style="mask-type:luminance" maskUnits="userSpaceOnUse" x="0" y="0" width="62" height="61" fill="none"><path d="M0 3.8147e-06H62V61H0V3.8147e-06Z" fill="#FFFFFF"></path></mask><g mask="url(#mask0_2843_9987)" fill="none"><path d="M22.3164 47.0838V42.5651C22.3164 40.9779 24.2594 39.5831 26.6108 38.7928M35.1235 38.7084C37.5879 39.4816 39.682 40.9171 39.682 42.5651V47.0838" stroke="url(&quot;#paint0_linear_2843_9987&quot;)" stroke-width="1.5px" stroke-miterlimit="10" stroke-linecap="round" stroke-linejoin="round" fill="none"></path><path d="M13.2148 59.1338H48.7764V52.1631H13.2148V59.1338Z" stroke="url(&quot;#paint1_linear_2843_9987&quot;)" stroke-width="1.5px" stroke-miterlimit="10" stroke-linecap="round" stroke-linejoin="round" fill="none"></path><path d="M0.90625 49.0629V43.038C0.90625 41.3798 2.1626 39.9917 3.78622 39.7553M13.2154 50.1538V59.1338H0.90625V53.1088" stroke="url(&quot;#paint2_linear_2843_9987&quot;)" stroke-width="1.5px" stroke-miterlimit="10" stroke-linecap="round" stroke-linejoin="round" fill="none"></path><path d="M61.0902 49.0629V43.038C61.0902 41.4 59.8646 40.029 58.2719 39.7655M48.7773 50.1538V59.1338H61.0902V53.1088" stroke="url(&quot;#paint3_linear_2843_9987&quot;)" stroke-width="1.5px" stroke-miterlimit="10" stroke-linecap="round" stroke-linejoin="round" fill="none"></path><path d="M10.4069 39.7215C11.1791 39.7283 11.9412 40.0762 12.4424 40.7279L17.3199 47.0838H23.5741C24.9987 47.0838 26.1555 48.222 26.1555 49.6234C26.1555 51.0285 24.9987 52.1631 23.5741 52.1631H16.0397C15.2603 52.1631 14.4881 51.8119 13.9834 51.1534L9.95703 45.9085" stroke="url(&quot;#paint4_linear_2843_9987&quot;)" stroke-width="1.5px" stroke-miterlimit="10" stroke-linecap="round" stroke-linejoin="round" fill="none"></path><path d="M51.7253 39.7215C50.9048 39.6878 50.081 40.0357 49.5491 40.7279L44.6713 47.0838H38.4206C36.9927 47.0838 35.8359 48.222 35.8359 49.6234C35.8359 51.0285 36.9927 52.1631 38.4206 52.1631H45.9517C46.7344 52.1631 47.5033 51.8119 48.0113 51.1534L52.0342 45.9085" stroke="url(&quot;#paint5_linear_2843_9987&quot;)" stroke-width="1.5px" stroke-miterlimit="10" stroke-linecap="round" stroke-linejoin="round" fill="none"></path><path d="M10.3819 20.9238H25.9385C28.4681 20.9238 30.5381 18.8875 30.5381 16.3984V6.38845C30.5381 3.90282 28.4681 1.86623 25.9385 1.86623H6.00197C3.47196 1.86623 1.40234 3.90282 1.40234 6.38845V16.3984C1.40234 18.8875 3.47196 20.9238 6.00197 20.9238V25.2332L10.3819 20.9238Z" stroke="url(&quot;#paint6_linear_2843_9987&quot;)" stroke-width="1.5px" stroke-miterlimit="10" stroke-linecap="round" stroke-linejoin="round" fill="none"></path><path d="M37.1551 24.3619H42.4927L46.8726 28.6713V24.3619C48.7777 24.3619 50.3362 22.8253 50.3362 20.9508V12.3458C50.3362 10.4713 48.7777 8.93812 46.8726 8.93812H30.5406M24.2383 20.9239C24.2383 22.8153 25.7761 24.3619 27.7051 24.3619H33.0429" stroke="url(&quot;#paint7_linear_2843_9987&quot;)" stroke-width="1.5px" stroke-miterlimit="10" stroke-linecap="round" stroke-linejoin="round" fill="none"></path><path d="M7.56641 11.3935H24.3793M7.56641 16.0945H15.973M7.56641 6.69235H24.3793" stroke="url(&quot;#paint8_linear_2843_9987&quot;)" stroke-width="1.5px" stroke-miterlimit="10" stroke-linecap="round" stroke-linejoin="round" fill="none"></path><path d="M35.7331 36.0708C35.7331 38.7219 33.5259 40.8935 30.8313 40.8935C28.1369 40.8935 25.9297 38.7219 25.9297 36.0708V30.9035C25.9297 29.4177 27.1654 28.2051 28.6759 28.2051H35.7331V36.0708Z" stroke="url(&quot;#paint9_linear_2843_9987&quot;)" stroke-width="1.5px" stroke-miterlimit="10" stroke-linecap="round" stroke-linejoin="round" fill="none"></path><path d="M2.16016 36.0708C2.16016 38.7219 4.36733 40.8935 7.06191 40.8935C9.75637 40.8935 11.9635 38.7219 11.9635 36.0708V30.9035C11.9635 29.4177 10.7278 28.2051 9.22101 28.2051H4.90269C3.39592 28.2051 2.16016 29.4177 2.16016 30.9035V36.0708Z" stroke="url(&quot;#paint10_linear_2843_9987&quot;)" stroke-width="1.5px" stroke-miterlimit="10" stroke-linecap="round" stroke-linejoin="round" fill="none"></path><path d="M59.8353 36.0708C59.8353 38.7219 57.6315 40.8935 54.9369 40.8935C52.2391 40.8935 50.0352 38.7219 50.0352 36.0708V30.9035C50.0352 29.4177 51.2674 28.2051 52.7778 28.2051H57.0927C58.6028 28.2051 59.8353 29.4177 59.8353 30.9035V36.0708Z" stroke="url(&quot;#paint11_linear_2843_9987&quot;)" stroke-width="1.5px" stroke-miterlimit="10" stroke-linecap="round" stroke-linejoin="round" fill="none"></path><path d="M2.16016 36.2397C6.86271 37.6615 8.02993 34.7434 8.16701 32.0756C8.16701 32.0756 9.79427 33.5715 11.9635 32.7814" stroke="url(&quot;#paint12_linear_2843_9987&quot;)" stroke-width="1.5px" stroke-miterlimit="10" stroke-linecap="round" stroke-linejoin="round" fill="none"></path><path d="M59.8353 36.2397C55.1325 37.6615 53.9655 34.7434 53.8317 32.0756C53.8317 32.0756 52.2012 33.5715 50.0352 32.7814" stroke="url(&quot;#paint13_linear_2843_9987&quot;)" stroke-width="1.5px" stroke-miterlimit="10" stroke-linecap="round" stroke-linejoin="round" fill="none"></path><path d="M25.9297 32.4605H35.7331" stroke="url(&quot;#paint14_linear_2843_9987&quot;)" stroke-width="1.5px" stroke-miterlimit="10" stroke-linecap="round" stroke-linejoin="round" fill="none"></path></g><defs><linearGradient id="paint0_linear_2843_9987" x1="23.458" y1="40.0655" x2="28.2706" y2="50.0439" gradientUnits="userSpaceOnUse"><stop stop-color="#52D8EA"></stop><stop offset="1" stop-color="#916AFF"></stop></linearGradient><linearGradient id="paint1_linear_2843_9987" x1="15.5527" y1="53.2926" x2="17.485" y2="63.1504" gradientUnits="userSpaceOnUse"><stop stop-color="#52D8EA"></stop><stop offset="1" stop-color="#916AFF"></stop></linearGradient><linearGradient id="paint2_linear_2843_9987" x1="1.71546" y1="42.8953" x2="14.5951" y2="51.0764" gradientUnits="userSpaceOnUse"><stop stop-color="#52D8EA"></stop><stop offset="1" stop-color="#916AFF"></stop></linearGradient><linearGradient id="paint3_linear_2843_9987" x1="49.5868" y1="42.9039" x2="62.4641" y2="51.0903" gradientUnits="userSpaceOnUse"><stop stop-color="#52D8EA"></stop><stop offset="1" stop-color="#916AFF"></stop></linearGradient><linearGradient id="paint4_linear_2843_9987" x1="11.0219" y1="41.7375" x2="19.8482" y2="53.229" gradientUnits="userSpaceOnUse"><stop stop-color="#52D8EA"></stop><stop offset="1" stop-color="#916AFF"></stop></linearGradient><linearGradient id="paint5_linear_2843_9987" x1="36.9008" y1="41.7357" x2="45.7292" y2="53.2275" gradientUnits="userSpaceOnUse"><stop stop-color="#52D8EA"></stop><stop offset="1" stop-color="#916AFF"></stop></linearGradient><linearGradient id="paint6_linear_2843_9987" x1="3.31775" y1="5.65253" x2="20.0658" y2="26.5353" gradientUnits="userSpaceOnUse"><stop stop-color="#52D8EA"></stop><stop offset="1" stop-color="#916AFF"></stop></linearGradient><linearGradient id="paint7_linear_2843_9987" x1="25.954" y1="12.1356" x2="39.8949" y2="30.5731" gradientUnits="userSpaceOnUse"><stop stop-color="#52D8EA"></stop><stop offset="1" stop-color="#916AFF"></stop></linearGradient><linearGradient id="paint8_linear_2843_9987" x1="8.6717" y1="8.21584" x2="14.5535" y2="18.7338" gradientUnits="userSpaceOnUse"><stop stop-color="#52D8EA"></stop><stop offset="1" stop-color="#916AFF"></stop></linearGradient><linearGradient id="paint9_linear_2843_9987" x1="26.5742" y1="30.2611" x2="35.5891" y2="37.2263" gradientUnits="userSpaceOnUse"><stop stop-color="#52D8EA"></stop><stop offset="1" stop-color="#916AFF"></stop></linearGradient><linearGradient id="paint10_linear_2843_9987" x1="2.80464" y1="30.2611" x2="11.8196" y2="37.2263" gradientUnits="userSpaceOnUse"><stop stop-color="#52D8EA"></stop><stop offset="1" stop-color="#916AFF"></stop></linearGradient><linearGradient id="paint11_linear_2843_9987" x1="50.6794" y1="30.2611" x2="59.6936" y2="37.2234" gradientUnits="userSpaceOnUse"><stop stop-color="#52D8EA"></stop><stop offset="1" stop-color="#916AFF"></stop></linearGradient><linearGradient id="paint12_linear_2843_9987" x1="2.80464" y1="32.8107" x2="5.34401" y2="38.298" gradientUnits="userSpaceOnUse"><stop stop-color="#52D8EA"></stop><stop offset="1" stop-color="#916AFF"></stop></linearGradient><linearGradient id="paint13_linear_2843_9987" x1="50.6794" y1="32.8107" x2="53.2193" y2="38.2973" gradientUnits="userSpaceOnUse"><stop stop-color="#52D8EA"></stop><stop offset="1" stop-color="#916AFF"></stop></linearGradient><linearGradient id="paint14_linear_2843_9987" x1="26.5742" y1="31.6225" x2="26.7224" y2="33.0759" gradientUnits="userSpaceOnUse"><stop stop-color="#52D8EA"></stop><stop offset="1" stop-color="#916AFF"></stop></linearGradient><linearGradient id="paint0_linear_2843_9987" x1="23.458" y1="40.0655" x2="28.2706" y2="50.0439" gradientUnits="userSpaceOnUse"><stop stop-color="#52D8EA"></stop><stop offset="1" stop-color="#916AFF"></stop></linearGradient><linearGradient id="paint1_linear_2843_9987" x1="15.5527" y1="53.2926" x2="17.485" y2="63.1504" gradientUnits="userSpaceOnUse"><stop stop-color="#52D8EA"></stop><stop offset="1" stop-color="#916AFF"></stop></linearGradient><linearGradient id="paint2_linear_2843_9987" x1="1.71546" y1="42.8953" x2="14.5951" y2="51.0764" gradientUnits="userSpaceOnUse"><stop stop-color="#52D8EA"></stop><stop offset="1" stop-color="#916AFF"></stop></linearGradient><linearGradient id="paint3_linear_2843_9987" x1="49.5868" y1="42.9039" x2="62.4641" y2="51.0903" gradientUnits="userSpaceOnUse"><stop stop-color="#52D8EA"></stop><stop offset="1" stop-color="#916AFF"></stop></linearGradient><linearGradient id="paint4_linear_2843_9987" x1="11.0219" y1="41.7375" x2="19.8482" y2="53.229" gradientUnits="userSpaceOnUse"><stop stop-color="#52D8EA"></stop><stop offset="1" stop-color="#916AFF"></stop></linearGradient><linearGradient id="paint5_linear_2843_9987" x1="36.9008" y1="41.7357" x2="45.7292" y2="53.2275" gradientUnits="userSpaceOnUse"><stop stop-color="#52D8EA"></stop><stop offset="1" stop-color="#916AFF"></stop></linearGradient><linearGradient id="paint6_linear_2843_9987" x1="3.31775" y1="5.65253" x2="20.0658" y2="26.5353" gradientUnits="userSpaceOnUse"><stop stop-color="#52D8EA"></stop><stop offset="1" stop-color="#916AFF"></stop></linearGradient><linearGradient id="paint7_linear_2843_9987" x1="25.954" y1="12.1356" x2="39.8949" y2="30.5731" gradientUnits="userSpaceOnUse"><stop stop-color="#52D8EA"></stop><stop offset="1" stop-color="#916AFF"></stop></linearGradient><linearGradient id="paint8_linear_2843_9987" x1="8.6717" y1="8.21584" x2="14.5535" y2="18.7338" gradientUnits="userSpaceOnUse"><stop stop-color="#52D8EA"></stop><stop offset="1" stop-color="#916AFF"></stop></linearGradient><linearGradient id="paint9_linear_2843_9987" x1="26.5742" y1="30.2611" x2="35.5891" y2="37.2263" gradientUnits="userSpaceOnUse"><stop stop-color="#52D8EA"></stop><stop offset="1" stop-color="#916AFF"></stop></linearGradient><linearGradient id="paint10_linear_2843_9987" x1="2.80464" y1="30.2611" x2="11.8196" y2="37.2263" gradientUnits="userSpaceOnUse"><stop stop-color="#52D8EA"></stop><stop offset="1" stop-color="#916AFF"></stop></linearGradient><linearGradient id="paint11_linear_2843_9987" x1="50.6794" y1="30.2611" x2="59.6936" y2="37.2234" gradientUnits="userSpaceOnUse"><stop stop-color="#52D8EA"></stop><stop offset="1" stop-color="#916AFF"></stop></linearGradient><linearGradient id="paint12_linear_2843_9987" x1="2.80464" y1="32.8107" x2="5.34401" y2="38.298" gradientUnits="userSpaceOnUse"><stop stop-color="#52D8EA"></stop><stop offset="1" stop-color="#916AFF"></stop></linearGradient><linearGradient id="paint13_linear_2843_9987" x1="50.6794" y1="32.8107" x2="53.2193" y2="38.2973" gradientUnits="userSpaceOnUse"><stop stop-color="#52D8EA"></stop><stop offset="1" stop-color="#916AFF"></stop></linearGradient><linearGradient id="paint14_linear_2843_9987" x1="26.5742" y1="31.6225" x2="26.7224" y2="33.0759" gradientUnits="userSpaceOnUse"><stop stop-color="#52D8EA"></stop><stop offset="1" stop-color="#916AFF"></stop></linearGradient></defs></svg>