<svg xmlns:xlink="http://www.w3.org/1999/xlink" xmlns="http://www.w3.org/2000/svg" width="62" height="61" viewBox="0 0 62 61" fill="none"><path d="M37.9219 25.0623H45.0062" stroke="url(&quot;#paint0_linear_2843_9929&quot;)" stroke-width="1.5px" stroke-miterlimit="10" stroke-linecap="round" stroke-linejoin="round" fill="none"></path><path d="M52.0907 17.1383H37.9219" stroke="url(&quot;#paint1_linear_2843_9929&quot;)" stroke-width="1.5px" stroke-miterlimit="10" stroke-linecap="round" stroke-linejoin="round" fill="none"></path><path d="M52.0907 21.1003H37.9219" stroke="url(&quot;#paint2_linear_2843_9929&quot;)" stroke-width="1.5px" stroke-miterlimit="10" stroke-linecap="round" stroke-linejoin="round" fill="none"></path><mask id="mask0_2843_9929" style="mask-type:luminance" maskUnits="userSpaceOnUse" x="0" y="0" width="62" height="61" fill="none"><path d="M0 2.7995e-06H62V61H0V2.7995e-06Z" fill="#FFFFFF"></path></mask><g mask="url(#mask0_2843_9929)" fill="none"><path d="M7.40355 9.58965C7.40355 10.0877 6.99316 10.4914 6.48699 10.4914C5.9807 10.4914 5.57031 10.0877 5.57031 9.58965C5.57031 9.09152 5.9807 8.68787 6.48699 8.68787C6.99316 8.68787 7.40355 9.09152 7.40355 9.58965Z" fill="url(&quot;#paint3_linear_2843_9929&quot;)"></path><path d="M11.3996 9.58965C11.3996 10.0877 10.9893 10.4914 10.4831 10.4914C9.97679 10.4914 9.56641 10.0877 9.56641 9.58965C9.56641 9.09152 9.97679 8.68787 10.4831 8.68787C10.9893 8.68787 11.3996 9.09152 11.3996 9.58965Z" fill="url(&quot;#paint4_linear_2843_9929&quot;)"></path><path d="M15.3957 9.58965C15.3957 10.0877 14.9854 10.4914 14.4792 10.4914C13.9729 10.4914 13.5625 10.0877 13.5625 9.58965C13.5625 9.09152 13.9729 8.68787 14.4792 8.68787C14.9854 8.68787 15.3957 9.09152 15.3957 9.58965Z" fill="url(&quot;#paint5_linear_2843_9929&quot;)"></path><path d="M0.90625 12.9373H56.2306" stroke="url(&quot;#paint6_linear_2843_9929&quot;)" stroke-width="1.5px" stroke-miterlimit="10" stroke-linecap="round" stroke-linejoin="round" fill="none"></path><path d="M56.2306 26.701V8.16605C56.2306 7.10331 55.3551 6.24181 54.2749 6.24181H2.86192C1.78176 6.24181 0.90625 7.10331 0.90625 8.16605V42.1653C0.90625 43.2279 1.78176 44.0893 2.86192 44.0893H37.229" stroke="url(&quot;#paint7_linear_2843_9929&quot;)" stroke-width="1.5px" stroke-miterlimit="10" stroke-linecap="round" stroke-linejoin="round" fill="none"></path><path d="M59.414 37.3673C59.4068 37.3673 59.3998 37.3673 59.3928 37.3672C59.0803 37.3636 58.811 37.1537 58.7168 36.8605C58.5533 36.3521 58.3458 35.863 58.0991 35.397C57.9545 35.1239 57.9938 34.7878 58.2123 34.5673C58.2177 34.5619 58.223 34.5566 58.2283 34.5512C58.8832 33.907 58.8832 32.8625 58.2283 32.2183L57.3488 31.353C56.6941 30.7087 55.6324 30.7087 54.9777 31.353C54.9722 31.3582 54.9668 31.3635 54.9613 31.3687C54.7372 31.5838 54.3957 31.6225 54.1182 31.4802C53.6444 31.2374 53.1474 31.0333 52.6305 30.8724C52.3325 30.7798 52.1193 30.5148 52.1155 30.2073C52.1155 30.2004 52.1154 30.1935 52.1154 30.1866C52.1154 29.2754 51.3647 28.5369 50.4387 28.5369H49.1949C48.2689 28.5369 47.5182 29.2754 47.5182 30.1866C47.5182 30.1935 47.5182 30.2004 47.5181 30.2073C47.5143 30.5148 47.301 30.7798 47.0031 30.8724C46.4862 31.0333 45.989 31.2376 45.5155 31.4802C45.238 31.6225 44.8964 31.5838 44.6722 31.3687C44.6668 31.3635 44.6614 31.3582 44.6559 31.353C44.0011 30.7087 42.9395 30.7087 42.2848 31.353L41.4051 32.2183C40.7504 32.8625 40.7504 33.907 41.4053 34.5512C41.4106 34.5566 41.416 34.5619 41.4212 34.5673C41.6397 34.7878 41.6791 35.1239 41.5345 35.397C41.2878 35.863 41.0802 36.3521 40.9169 36.8605C40.8226 37.1536 40.5535 37.3636 40.2411 37.3672C40.2343 37.3673 40.2274 37.3673 40.2205 37.3673C39.2974 37.3678 38.543 38.0635 38.543 38.9716V40.2863C38.543 41.1944 39.2974 41.89 40.2205 41.8905C40.2274 41.8905 40.2343 41.8905 40.2411 41.8906C40.5535 41.8942 40.8226 42.1043 40.9169 42.3973C41.0802 42.9057 41.2878 43.3949 41.5345 43.8609C41.6791 44.1339 41.6397 44.47 41.4212 44.6906C41.416 44.6959 41.4106 44.7013 41.4053 44.7066C40.7504 45.3508 40.7504 46.3952 41.4053 47.0395L42.2848 47.9049C42.9395 48.5492 44.0011 48.5492 44.6559 47.9049C44.6614 47.8995 44.6668 47.8942 44.6722 47.889C44.8963 47.6741 45.2379 47.6354 45.5155 47.7776C45.989 48.0203 46.4862 48.2245 47.0031 48.3853C47.301 48.478 47.5143 48.7429 47.5181 49.0505C47.5182 49.0574 47.5182 49.0643 47.5182 49.0712C47.5182 49.9824 48.2689 50.721 49.1949 50.721H50.4387C51.3647 50.721 52.1154 49.9824 52.1154 49.0712C52.1154 49.0643 52.1155 49.0574 52.1155 49.0505C52.1193 48.7429 52.3325 48.478 52.6305 48.3853C53.1474 48.2245 53.6444 48.0204 54.1182 47.7776C54.3957 47.6354 54.7372 47.6741 54.9613 47.889C54.9668 47.8942 54.9722 47.8995 54.9777 47.9049C55.6324 48.5492 56.6941 48.5492 57.3488 47.9049L58.2283 47.0395C58.8832 46.3952 58.8832 45.3508 58.2283 44.7066C58.223 44.7013 58.2177 44.6959 58.2123 44.6906C57.9938 44.47 57.9545 44.1339 58.0991 43.8609C58.3458 43.3949 58.5533 42.9057 58.7168 42.3973C58.811 42.1041 59.0803 41.8942 59.3928 41.8906C59.3998 41.8905 59.4068 41.8905 59.414 41.8905C60.34 41.8905 61.0906 41.152 61.0906 40.2408V39.0171C61.0906 38.1059 60.34 37.3673 59.414 37.3673Z" stroke="url(&quot;#paint8_linear_2843_9929&quot;)" stroke-width="1.5px" stroke-miterlimit="10" stroke-linecap="round" stroke-linejoin="round" fill="none"></path><path d="M55.2999 39.6289C55.2999 42.6087 52.8447 45.0243 49.816 45.0243C46.7873 45.0243 44.332 42.6087 44.332 39.6289C44.332 36.6491 46.7873 34.2335 49.816 34.2335C52.8447 34.2335 55.2999 36.6491 55.2999 39.6289Z" stroke="url(&quot;#paint9_linear_2843_9929&quot;)" stroke-width="1.5px" stroke-miterlimit="10" stroke-linecap="round" stroke-linejoin="round" fill="none"></path><path d="M38.0223 54.7581H19.1121C18.2476 54.7581 17.5469 54.0687 17.5469 53.218C17.5469 51.3209 19.11 49.7831 21.0383 49.7831H36.0963C38.0244 49.7831 39.5875 51.3209 39.5875 53.218C39.5875 54.0687 38.8867 54.7581 38.0223 54.7581Z" stroke="url(&quot;#paint10_linear_2843_9929&quot;)" stroke-width="1.5px" stroke-miterlimit="10" stroke-linecap="round" stroke-linejoin="round" fill="none"></path><path d="M23.6819 44.0894L22.5273 49.7831" stroke="url(&quot;#paint11_linear_2843_9929&quot;)" stroke-width="1.5px" stroke-miterlimit="10" stroke-linecap="round" stroke-linejoin="round" fill="none"></path><path d="M34.6115 49.7831L33.457 44.0894" stroke="url(&quot;#paint12_linear_2843_9929&quot;)" stroke-width="1.5px" stroke-miterlimit="10" stroke-linecap="round" stroke-linejoin="round" fill="none"></path><path d="M32.8608 24.966V17.2346C32.8608 16.9643 32.638 16.7451 32.3631 16.7451H6.06801C5.79313 16.7451 5.57031 16.9643 5.57031 17.2346V24.966C5.57031 25.2365 5.79313 25.4557 6.06801 25.4557H32.3631C32.638 25.4557 32.8608 25.2365 32.8608 24.966Z" stroke="url(&quot;#paint13_linear_2843_9929&quot;)" stroke-width="1.5px" stroke-miterlimit="10" stroke-linecap="round" stroke-linejoin="round" fill="none"></path><path d="M11.8992 30.4979H6.06801C5.79325 30.4979 5.57031 30.7172 5.57031 30.9876V38.719C5.57031 38.9893 5.79325 39.2085 6.06801 39.2085H11.8992C12.174 39.2085 12.3969 38.9893 12.3969 38.719V30.9876C12.3969 30.7172 12.174 30.4979 11.8992 30.4979Z" stroke="url(&quot;#paint14_linear_2843_9929&quot;)" stroke-width="1.5px" stroke-miterlimit="10" stroke-linecap="round" stroke-linejoin="round" fill="none"></path><path d="M16.4453 30.9876V38.719C16.4453 38.9893 16.6681 39.2086 16.943 39.2086H32.3624C32.6372 39.2086 32.8601 38.9893 32.8601 38.719V30.9876C32.8601 30.7172 32.6372 30.4979 32.3624 30.4979H16.943C16.6681 30.4979 16.4453 30.7172 16.4453 30.9876Z" stroke="url(&quot;#paint15_linear_2843_9929&quot;)" stroke-width="1.5px" stroke-miterlimit="10" stroke-linecap="round" stroke-linejoin="round" fill="none"></path></g><defs><linearGradient id="paint0_linear_2843_9929" x1="38.3876" y1="24.2244" x2="38.5908" y2="25.6642" gradientUnits="userSpaceOnUse"><stop stop-color="#52D8EA"></stop><stop offset="1" stop-color="#916AFF"></stop></linearGradient><linearGradient id="paint1_linear_2843_9929" x1="38.8533" y1="16.3004" x2="38.9565" y2="17.7616" gradientUnits="userSpaceOnUse"><stop stop-color="#52D8EA"></stop><stop offset="1" stop-color="#916AFF"></stop></linearGradient><linearGradient id="paint2_linear_2843_9929" x1="38.8533" y1="20.2624" x2="38.9565" y2="21.7236" gradientUnits="userSpaceOnUse"><stop stop-color="#52D8EA"></stop><stop offset="1" stop-color="#916AFF"></stop></linearGradient><linearGradient id="paint3_linear_2843_9929" x1="5.69083" y1="8.98012" x2="7.01493" y2="10.326" gradientUnits="userSpaceOnUse"><stop stop-color="#52D8EA"></stop><stop offset="1" stop-color="#916AFF"></stop></linearGradient><linearGradient id="paint4_linear_2843_9929" x1="9.68692" y1="8.98012" x2="11.011" y2="10.326" gradientUnits="userSpaceOnUse"><stop stop-color="#52D8EA"></stop><stop offset="1" stop-color="#916AFF"></stop></linearGradient><linearGradient id="paint5_linear_2843_9929" x1="13.683" y1="8.98012" x2="15.0071" y2="10.326" gradientUnits="userSpaceOnUse"><stop stop-color="#52D8EA"></stop><stop offset="1" stop-color="#916AFF"></stop></linearGradient><linearGradient id="paint6_linear_2843_9929" x1="4.54331" y1="12.0994" x2="4.56985" y2="13.5674" gradientUnits="userSpaceOnUse"><stop stop-color="#52D8EA"></stop><stop offset="1" stop-color="#916AFF"></stop></linearGradient><linearGradient id="paint7_linear_2843_9929" x1="4.54331" y1="12.3745" x2="30.4441" y2="50.2355" gradientUnits="userSpaceOnUse"><stop stop-color="#52D8EA"></stop><stop offset="1" stop-color="#916AFF"></stop></linearGradient><linearGradient id="paint8_linear_2843_9929" x1="40.0253" y1="32.1315" x2="56.312" y2="48.6852" gradientUnits="userSpaceOnUse"><stop stop-color="#52D8EA"></stop><stop offset="1" stop-color="#916AFF"></stop></linearGradient><linearGradient id="paint9_linear_2843_9929" x1="45.0531" y1="35.982" x2="52.9753" y2="44.0342" gradientUnits="userSpaceOnUse"><stop stop-color="#52D8EA"></stop><stop offset="1" stop-color="#916AFF"></stop></linearGradient><linearGradient id="paint10_linear_2843_9929" x1="18.9958" y1="50.5892" x2="20.565" y2="57.541" gradientUnits="userSpaceOnUse"><stop stop-color="#52D8EA"></stop><stop offset="1" stop-color="#916AFF"></stop></linearGradient><linearGradient id="paint11_linear_2843_9929" x1="22.6032" y1="45.0119" x2="24.2317" y2="45.3421" gradientUnits="userSpaceOnUse"><stop stop-color="#52D8EA"></stop><stop offset="1" stop-color="#916AFF"></stop></linearGradient><linearGradient id="paint12_linear_2843_9929" x1="33.5329" y1="45.012" x2="35.1614" y2="45.3422" gradientUnits="userSpaceOnUse"><stop stop-color="#52D8EA"></stop><stop offset="1" stop-color="#916AFF"></stop></linearGradient><linearGradient id="paint13_linear_2843_9929" x1="7.36441" y1="18.1565" x2="11.0698" y2="29.7655" gradientUnits="userSpaceOnUse"><stop stop-color="#52D8EA"></stop><stop offset="1" stop-color="#916AFF"></stop></linearGradient><linearGradient id="paint14_linear_2843_9929" x1="6.01909" y1="31.9093" x2="12.2296" y2="36.7765" gradientUnits="userSpaceOnUse"><stop stop-color="#52D8EA"></stop><stop offset="1" stop-color="#916AFF"></stop></linearGradient><linearGradient id="paint15_linear_2843_9929" x1="17.5244" y1="31.9094" x2="22.821" y2="41.8904" gradientUnits="userSpaceOnUse"><stop stop-color="#52D8EA"></stop><stop offset="1" stop-color="#916AFF"></stop></linearGradient><linearGradient id="paint0_linear_2843_9929" x1="38.3876" y1="24.2244" x2="38.5908" y2="25.6642" gradientUnits="userSpaceOnUse"><stop stop-color="#52D8EA"></stop><stop offset="1" stop-color="#916AFF"></stop></linearGradient><linearGradient id="paint1_linear_2843_9929" x1="38.8533" y1="16.3004" x2="38.9565" y2="17.7616" gradientUnits="userSpaceOnUse"><stop stop-color="#52D8EA"></stop><stop offset="1" stop-color="#916AFF"></stop></linearGradient><linearGradient id="paint2_linear_2843_9929" x1="38.8533" y1="20.2624" x2="38.9565" y2="21.7236" gradientUnits="userSpaceOnUse"><stop stop-color="#52D8EA"></stop><stop offset="1" stop-color="#916AFF"></stop></linearGradient><linearGradient id="paint3_linear_2843_9929" x1="5.69083" y1="8.98012" x2="7.01493" y2="10.326" gradientUnits="userSpaceOnUse"><stop stop-color="#52D8EA"></stop><stop offset="1" stop-color="#916AFF"></stop></linearGradient><linearGradient id="paint4_linear_2843_9929" x1="9.68692" y1="8.98012" x2="11.011" y2="10.326" gradientUnits="userSpaceOnUse"><stop stop-color="#52D8EA"></stop><stop offset="1" stop-color="#916AFF"></stop></linearGradient><linearGradient id="paint5_linear_2843_9929" x1="13.683" y1="8.98012" x2="15.0071" y2="10.326" gradientUnits="userSpaceOnUse"><stop stop-color="#52D8EA"></stop><stop offset="1" stop-color="#916AFF"></stop></linearGradient><linearGradient id="paint6_linear_2843_9929" x1="4.54331" y1="12.0994" x2="4.56985" y2="13.5674" gradientUnits="userSpaceOnUse"><stop stop-color="#52D8EA"></stop><stop offset="1" stop-color="#916AFF"></stop></linearGradient><linearGradient id="paint7_linear_2843_9929" x1="4.54331" y1="12.3745" x2="30.4441" y2="50.2355" gradientUnits="userSpaceOnUse"><stop stop-color="#52D8EA"></stop><stop offset="1" stop-color="#916AFF"></stop></linearGradient><linearGradient id="paint8_linear_2843_9929" x1="40.0253" y1="32.1315" x2="56.312" y2="48.6852" gradientUnits="userSpaceOnUse"><stop stop-color="#52D8EA"></stop><stop offset="1" stop-color="#916AFF"></stop></linearGradient><linearGradient id="paint9_linear_2843_9929" x1="45.0531" y1="35.982" x2="52.9753" y2="44.0342" gradientUnits="userSpaceOnUse"><stop stop-color="#52D8EA"></stop><stop offset="1" stop-color="#916AFF"></stop></linearGradient><linearGradient id="paint10_linear_2843_9929" x1="18.9958" y1="50.5892" x2="20.565" y2="57.541" gradientUnits="userSpaceOnUse"><stop stop-color="#52D8EA"></stop><stop offset="1" stop-color="#916AFF"></stop></linearGradient><linearGradient id="paint11_linear_2843_9929" x1="22.6032" y1="45.0119" x2="24.2317" y2="45.3421" gradientUnits="userSpaceOnUse"><stop stop-color="#52D8EA"></stop><stop offset="1" stop-color="#916AFF"></stop></linearGradient><linearGradient id="paint12_linear_2843_9929" x1="33.5329" y1="45.012" x2="35.1614" y2="45.3422" gradientUnits="userSpaceOnUse"><stop stop-color="#52D8EA"></stop><stop offset="1" stop-color="#916AFF"></stop></linearGradient><linearGradient id="paint13_linear_2843_9929" x1="7.36441" y1="18.1565" x2="11.0698" y2="29.7655" gradientUnits="userSpaceOnUse"><stop stop-color="#52D8EA"></stop><stop offset="1" stop-color="#916AFF"></stop></linearGradient><linearGradient id="paint14_linear_2843_9929" x1="6.01909" y1="31.9093" x2="12.2296" y2="36.7765" gradientUnits="userSpaceOnUse"><stop stop-color="#52D8EA"></stop><stop offset="1" stop-color="#916AFF"></stop></linearGradient><linearGradient id="paint15_linear_2843_9929" x1="17.5244" y1="31.9094" x2="22.821" y2="41.8904" gradientUnits="userSpaceOnUse"><stop stop-color="#52D8EA"></stop><stop offset="1" stop-color="#916AFF"></stop></linearGradient></defs></svg>