<svg xmlns:xlink="http://www.w3.org/1999/xlink" xmlns="http://www.w3.org/2000/svg" width="63" height="61" viewBox="0 0 63 61" fill="none"><g clip-path="url(#clip0_1662_2679)" fill="none"><mask id="mask0_1662_2679" style="mask-type:luminance" maskUnits="userSpaceOnUse" x="0" y="0" width="63" height="61" fill="none"><path d="M0.833984 7.62939e-06H62.834V61H0.833984V7.62939e-06Z" fill="#FFFFFF"></path></mask><g mask="url(#mask0_1662_2679)" fill="none"><path d="M1.74219 13.6636H46.6161" stroke="url(&quot;#paint0_linear_1662_2679&quot;)" stroke-width="2px" stroke-miterlimit="10" stroke-linecap="round" stroke-linejoin="round" fill="none"></path><path d="M50.5742 13.6636H61.9257" stroke="url(&quot;#paint1_linear_1662_2679&quot;)" stroke-width="2px" stroke-miterlimit="10" stroke-linecap="round" stroke-linejoin="round" fill="none"></path><path d="M19.0045 0.893562H58.8984C60.5704 0.893562 61.9258 2.2271 61.9258 3.87208V57.1279C61.9258 58.7729 60.5704 60.1064 58.8984 60.1064H4.76953C3.09771 60.1064 1.74219 58.7729 1.74219 57.1279V3.87208C1.74219 2.2271 3.09771 0.893562 4.76953 0.893562H15.0463" stroke="url(&quot;#paint2_linear_1662_2679&quot;)" stroke-width="2px" stroke-miterlimit="10" stroke-linecap="round" stroke-linejoin="round" fill="none"></path><path d="M27.8273 7.27832C27.8273 8.44899 26.8628 9.39795 25.6729 9.39795C24.4832 9.39795 23.5186 8.44899 23.5186 7.27832C23.5186 6.10764 24.4832 5.15869 25.6729 5.15869C26.8628 5.15869 27.8273 6.10764 27.8273 7.27832Z" stroke="url(&quot;#paint3_linear_1662_2679&quot;)" stroke-width="2px" stroke-miterlimit="10" stroke-linecap="round" stroke-linejoin="round" fill="none"></path><path d="M19.18 7.27832C19.18 8.44899 18.2153 9.39795 17.0256 9.39795C15.8357 9.39795 14.8711 8.44899 14.8711 7.27832C14.8711 6.10764 15.8357 5.15869 17.0256 5.15869C18.2153 5.15869 19.18 6.10764 19.18 7.27832Z" stroke="url(&quot;#paint4_linear_1662_2679&quot;)" stroke-width="2px" stroke-miterlimit="10" stroke-linecap="round" stroke-linejoin="round" fill="none"></path><path d="M10.5315 7.27832C10.5315 8.44899 9.5669 9.39795 8.37716 9.39795C7.18729 9.39795 6.22266 8.44899 6.22266 7.27832C6.22266 6.10764 7.18729 5.15869 8.37716 5.15869C9.5669 5.15869 10.5315 6.10764 10.5315 7.27832Z" stroke="url(&quot;#paint5_linear_1662_2679&quot;)" stroke-width="2px" stroke-miterlimit="10" stroke-linecap="round" stroke-linejoin="round" fill="none"></path><path d="M18.1613 33.3584H10.5732C9.0399 33.3584 7.79688 32.1353 7.79688 30.6267V23.1612C7.79688 21.6526 9.0399 20.4295 10.5732 20.4295H18.1613C19.6946 20.4295 20.9376 21.6526 20.9376 23.1612V30.6267C20.9376 32.1353 19.6946 33.3584 18.1613 33.3584Z" stroke="url(&quot;#paint6_linear_1662_2679&quot;)" stroke-width="2px" stroke-miterlimit="10" stroke-linecap="round" stroke-linejoin="round" fill="none"></path><path d="M35.6281 33.3584H28.0401C26.5068 33.3584 25.2637 32.1353 25.2637 30.6267V23.1612C25.2637 21.6526 26.5068 20.4295 28.0401 20.4295H35.6281C37.1614 20.4295 38.4045 21.6526 38.4045 23.1612V30.6267C38.4045 32.1353 37.1614 33.3584 35.6281 33.3584Z" stroke="url(&quot;#paint7_linear_1662_2679&quot;)" stroke-width="2px" stroke-miterlimit="10" stroke-linecap="round" stroke-linejoin="round" fill="none"></path><path d="M53.0949 33.3584H45.5068C43.9735 33.3584 42.7305 32.1353 42.7305 30.6267V23.1612C42.7305 21.6526 43.9735 20.4295 45.5068 20.4295H53.0949C54.6282 20.4295 55.8712 21.6526 55.8712 23.1612V30.6267C55.8712 32.1353 54.6282 33.3584 53.0949 33.3584Z" stroke="url(&quot;#paint8_linear_1662_2679&quot;)" stroke-width="2px" stroke-miterlimit="10" stroke-linecap="round" stroke-linejoin="round" fill="none"></path><path d="M18.1613 53.3403H10.5732C9.0399 53.3403 7.79688 52.1174 7.79688 50.6088V43.1431C7.79688 41.6345 9.0399 40.4115 10.5732 40.4115H18.1613C19.6946 40.4115 20.9376 41.6345 20.9376 43.1431V50.6088C20.9376 52.1174 19.6946 53.3403 18.1613 53.3403Z" stroke="url(&quot;#paint9_linear_1662_2679&quot;)" stroke-width="2px" stroke-miterlimit="10" stroke-linecap="round" stroke-linejoin="round" fill="none"></path><path d="M53.0949 53.3403H45.5068C43.9735 53.3403 42.7305 52.1174 42.7305 50.6088V43.1431C42.7305 41.6345 43.9735 40.4115 45.5068 40.4115H53.0949C54.6282 40.4115 55.8712 41.6345 55.8712 43.1431V50.6088C55.8712 52.1174 54.6282 53.3403 53.0949 53.3403Z" stroke="url(&quot;#paint10_linear_1662_2679&quot;)" stroke-width="2px" stroke-miterlimit="10" stroke-linecap="round" stroke-linejoin="round" fill="none"></path><path d="M25.2637 44.9288V43.1431C25.2637 41.6345 26.5068 40.4116 28.0401 40.4116H35.6281C37.1614 40.4116 38.4045 41.6345 38.4045 43.1431V50.6088C38.4045 52.1174 37.1614 53.3403 35.6281 53.3403H28.0401C26.5068 53.3403 25.2637 52.1174 25.2637 50.6088V48.823" stroke="url(&quot;#paint11_linear_1662_2679&quot;)" stroke-width="2px" stroke-miterlimit="10" stroke-linecap="round" stroke-linejoin="round" fill="none"></path></g></g><defs><linearGradient id="paint0_linear_1662_2679" x1="4.69223" y1="12.8256" x2="4.72494" y2="14.2934" gradientUnits="userSpaceOnUse"><stop stop-color="#52D8EA"></stop><stop offset="1" stop-color="#916AFF"></stop></linearGradient><linearGradient id="paint1_linear_1662_2679" x1="51.3205" y1="12.8256" x2="51.4488" y2="14.2828" gradientUnits="userSpaceOnUse"><stop stop-color="#52D8EA"></stop><stop offset="1" stop-color="#916AFF"></stop></linearGradient><linearGradient id="paint2_linear_1662_2679" x1="5.6987" y1="10.4882" x2="49.1706" y2="54.6728" gradientUnits="userSpaceOnUse"><stop stop-color="#52D8EA"></stop><stop offset="1" stop-color="#916AFF"></stop></linearGradient><linearGradient id="paint3_linear_1662_2679" x1="23.8018" y1="5.84561" x2="26.9141" y2="9.00893" gradientUnits="userSpaceOnUse"><stop stop-color="#52D8EA"></stop><stop offset="1" stop-color="#916AFF"></stop></linearGradient><linearGradient id="paint4_linear_1662_2679" x1="15.1544" y1="5.84561" x2="18.2667" y2="9.00902" gradientUnits="userSpaceOnUse"><stop stop-color="#52D8EA"></stop><stop offset="1" stop-color="#916AFF"></stop></linearGradient><linearGradient id="paint5_linear_1662_2679" x1="6.50593" y1="5.84561" x2="9.61823" y2="9.00902" gradientUnits="userSpaceOnUse"><stop stop-color="#52D8EA"></stop><stop offset="1" stop-color="#916AFF"></stop></linearGradient><linearGradient id="paint6_linear_1662_2679" x1="8.66076" y1="22.5245" x2="18.1527" y2="32.1719" gradientUnits="userSpaceOnUse"><stop stop-color="#52D8EA"></stop><stop offset="1" stop-color="#916AFF"></stop></linearGradient><linearGradient id="paint7_linear_1662_2679" x1="26.1276" y1="22.5245" x2="35.6195" y2="32.172" gradientUnits="userSpaceOnUse"><stop stop-color="#52D8EA"></stop><stop offset="1" stop-color="#916AFF"></stop></linearGradient><linearGradient id="paint8_linear_1662_2679" x1="43.5944" y1="22.5245" x2="53.0863" y2="32.1719" gradientUnits="userSpaceOnUse"><stop stop-color="#52D8EA"></stop><stop offset="1" stop-color="#916AFF"></stop></linearGradient><linearGradient id="paint9_linear_1662_2679" x1="8.66076" y1="42.5065" x2="18.1526" y2="52.1539" gradientUnits="userSpaceOnUse"><stop stop-color="#52D8EA"></stop><stop offset="1" stop-color="#916AFF"></stop></linearGradient><linearGradient id="paint10_linear_1662_2679" x1="43.5944" y1="42.5065" x2="53.0862" y2="52.1539" gradientUnits="userSpaceOnUse"><stop stop-color="#52D8EA"></stop><stop offset="1" stop-color="#916AFF"></stop></linearGradient><linearGradient id="paint11_linear_1662_2679" x1="26.1276" y1="42.5065" x2="35.6194" y2="52.154" gradientUnits="userSpaceOnUse"><stop stop-color="#52D8EA"></stop><stop offset="1" stop-color="#916AFF"></stop></linearGradient><clipPath id="clip0_1662_2679"><rect width="62" height="61" fill="white" transform="translate(0.833984)"></rect></clipPath><linearGradient id="paint0_linear_1662_2679" x1="4.69223" y1="12.8256" x2="4.72494" y2="14.2934" gradientUnits="userSpaceOnUse"><stop stop-color="#52D8EA"></stop><stop offset="1" stop-color="#916AFF"></stop></linearGradient><linearGradient id="paint1_linear_1662_2679" x1="51.3205" y1="12.8256" x2="51.4488" y2="14.2828" gradientUnits="userSpaceOnUse"><stop stop-color="#52D8EA"></stop><stop offset="1" stop-color="#916AFF"></stop></linearGradient><linearGradient id="paint2_linear_1662_2679" x1="5.6987" y1="10.4882" x2="49.1706" y2="54.6728" gradientUnits="userSpaceOnUse"><stop stop-color="#52D8EA"></stop><stop offset="1" stop-color="#916AFF"></stop></linearGradient><linearGradient id="paint3_linear_1662_2679" x1="23.8018" y1="5.84561" x2="26.9141" y2="9.00893" gradientUnits="userSpaceOnUse"><stop stop-color="#52D8EA"></stop><stop offset="1" stop-color="#916AFF"></stop></linearGradient><linearGradient id="paint4_linear_1662_2679" x1="15.1544" y1="5.84561" x2="18.2667" y2="9.00902" gradientUnits="userSpaceOnUse"><stop stop-color="#52D8EA"></stop><stop offset="1" stop-color="#916AFF"></stop></linearGradient><linearGradient id="paint5_linear_1662_2679" x1="6.50593" y1="5.84561" x2="9.61823" y2="9.00902" gradientUnits="userSpaceOnUse"><stop stop-color="#52D8EA"></stop><stop offset="1" stop-color="#916AFF"></stop></linearGradient><linearGradient id="paint6_linear_1662_2679" x1="8.66076" y1="22.5245" x2="18.1527" y2="32.1719" gradientUnits="userSpaceOnUse"><stop stop-color="#52D8EA"></stop><stop offset="1" stop-color="#916AFF"></stop></linearGradient><linearGradient id="paint7_linear_1662_2679" x1="26.1276" y1="22.5245" x2="35.6195" y2="32.172" gradientUnits="userSpaceOnUse"><stop stop-color="#52D8EA"></stop><stop offset="1" stop-color="#916AFF"></stop></linearGradient><linearGradient id="paint8_linear_1662_2679" x1="43.5944" y1="22.5245" x2="53.0863" y2="32.1719" gradientUnits="userSpaceOnUse"><stop stop-color="#52D8EA"></stop><stop offset="1" stop-color="#916AFF"></stop></linearGradient><linearGradient id="paint9_linear_1662_2679" x1="8.66076" y1="42.5065" x2="18.1526" y2="52.1539" gradientUnits="userSpaceOnUse"><stop stop-color="#52D8EA"></stop><stop offset="1" stop-color="#916AFF"></stop></linearGradient><linearGradient id="paint10_linear_1662_2679" x1="43.5944" y1="42.5065" x2="53.0862" y2="52.1539" gradientUnits="userSpaceOnUse"><stop stop-color="#52D8EA"></stop><stop offset="1" stop-color="#916AFF"></stop></linearGradient><linearGradient id="paint11_linear_1662_2679" x1="26.1276" y1="42.5065" x2="35.6194" y2="52.154" gradientUnits="userSpaceOnUse"><stop stop-color="#52D8EA"></stop><stop offset="1" stop-color="#916AFF"></stop></linearGradient></defs></svg>