<svg xmlns:xlink="http://www.w3.org/1999/xlink" xmlns="http://www.w3.org/2000/svg" width="64" height="61" viewBox="0 0 64 61" fill="none"><path d="M16.8102 24.1485C15.7201 24.1485 14.8301 25.0086 14.8301 26.0786V29.4787C14.8301 30.5388 15.7201 31.4088 16.8102 31.4088H16.9202L19.8103 44.0693C20.1103 45.3994 21.3103 46.3294 22.7304 46.3294H41.2811C42.6911 46.3294 43.8912 45.3994 44.2012 44.0693L47.0913 31.4088H47.2013C48.2914 31.4088 49.1814 30.5488 49.1814 29.4787V26.0786C49.1814 25.0186 48.2914 24.1485 47.2013 24.1485H37.631L41.9411 19.2884C42.4511 18.7183 42.6911 17.9883 42.6311 17.2383C42.5611 16.4782 42.1911 15.7982 41.5911 15.3182C40.3811 14.3582 38.571 14.5082 37.5509 15.6582L30.1307 24.0285C30.1007 24.0685 30.0707 24.1085 30.0407 24.1585H16.8102V24.1485ZM42.3011 43.6293C42.2011 44.0693 41.7711 44.3793 41.2711 44.3793H22.7304C22.2304 44.3793 21.8003 44.0593 21.7003 43.6293L18.9102 31.3988H45.0912L42.3011 43.6293ZM47.2313 26.0786L47.1913 29.4587L16.7702 29.4687L16.8102 26.0886H29.4306C29.5006 26.8386 29.8707 27.5087 30.4707 27.9887C31.0007 28.4187 31.6607 28.6187 32.3108 28.6187C33.1308 28.6187 33.9408 28.2887 34.5108 27.6487L35.9009 26.0786H47.2313ZM38.991 16.9383C39.181 16.7283 39.461 16.6183 39.741 16.6183C39.961 16.6183 40.1911 16.6883 40.3711 16.8383C40.5611 16.9883 40.6711 17.1883 40.6911 17.4083C40.7111 17.6183 40.6411 17.8383 40.4911 17.9983L34.7908 24.4286C34.7808 24.4386 34.7808 24.4386 34.7708 24.4486L33.0708 26.3686C32.7308 26.7486 32.1007 26.7986 31.6907 26.4786C31.5007 26.3286 31.3907 26.1286 31.3707 25.9086C31.3507 25.6986 31.4207 25.4886 31.5707 25.3186L38.991 16.9383Z" fill="url(&quot;#paint0_linear_2675_11879&quot;)"></path><path d="M25.1615 42.5092C25.2215 42.5092 25.2815 42.4992 25.3315 42.4892C25.8616 42.3892 26.2116 41.8892 26.1116 41.3592L24.6615 33.3989C24.5615 32.8689 24.0615 32.5189 23.5315 32.6189C23.0014 32.7189 22.6514 33.2189 22.7514 33.7489L24.2015 41.7092C24.2915 42.1792 24.7015 42.5092 25.1615 42.5092Z" fill="url(&quot;#paint1_linear_2675_11879&quot;)"></path><path d="M38.6733 42.4993C38.7333 42.5093 38.7933 42.5193 38.8433 42.5193C39.3033 42.5193 39.7133 42.1893 39.7933 41.7193L41.2434 33.759C41.3434 33.2289 40.9934 32.7289 40.4633 32.6289C39.9433 32.5389 39.4333 32.8789 39.3333 33.4089L37.8832 41.3693C37.7932 41.8893 38.1432 42.3993 38.6733 42.4993Z" fill="url(&quot;#paint2_linear_2675_11879&quot;)"></path><path d="M29.6513 42.5092H29.7113C30.2413 42.4792 30.6513 42.0192 30.6213 41.4792L30.1213 33.5189C30.0913 32.9889 29.6213 32.5688 29.0913 32.6088C28.5612 32.6388 28.1512 33.0989 28.1812 33.6389L28.6813 41.5992C28.7113 42.1192 29.1413 42.5092 29.6513 42.5092Z" fill="url(&quot;#paint3_linear_2675_11879&quot;)"></path><path d="M34.2924 42.5094H34.3524C34.8625 42.5094 35.2825 42.1094 35.3225 41.5993L35.8225 33.639C35.8525 33.109 35.4525 32.649 34.9125 32.609C34.3724 32.579 33.9224 32.979 33.8824 33.519L33.3824 41.4793C33.3524 42.0194 33.7624 42.4794 34.2924 42.5094Z" fill="url(&quot;#paint4_linear_2675_11879&quot;)"></path><path d="M50.0121 51.3597C44.7119 56.3299 37.7916 59.06 30.5113 59.06C24.5211 59.06 18.7209 57.1799 13.9107 53.7398L15.8307 53.6298C16.3608 53.5998 16.7708 53.1398 16.7408 52.6097C16.7108 52.0797 16.2508 51.6697 15.7207 51.6997L11.3106 51.9597C11.0406 51.9797 10.7905 52.0997 10.6205 52.3097C10.4505 52.5197 10.3705 52.7897 10.4105 53.0498L10.9906 57.4299C11.0506 57.9199 11.4706 58.27 11.9506 58.27C11.9906 58.27 12.0406 58.27 12.0806 58.26C12.6106 58.19 12.9806 57.6999 12.9106 57.1699L12.6506 55.2098C17.8108 58.95 24.0611 61.0001 30.5213 61.0001C38.2916 61.0001 45.6919 58.08 51.3421 52.7697C51.7321 52.3997 51.7521 51.7897 51.3821 51.3997C51.0121 51.0097 50.4021 50.9897 50.0121 51.3597Z" fill="url(&quot;#paint5_linear_2675_11879&quot;)"></path><path d="M63.8015 32.6091C63.4815 32.1791 62.8714 32.0991 62.4414 32.4191L60.8414 33.6291C60.9514 32.5891 61.0114 31.5291 61.0114 30.489C61.0114 28.1289 60.7413 25.8088 60.2213 23.5987C58.8613 17.6685 55.7912 12.3483 51.331 8.20815C47.9509 5.02803 43.8207 2.63794 39.4005 1.29789C38.8905 1.14788 38.3505 1.42789 38.1905 1.94791C38.0305 2.45793 38.3205 2.99795 38.8405 3.15796C42.9707 4.41801 46.8408 6.64809 50.0109 9.62821C54.1911 13.5084 57.0712 18.4885 58.3413 24.0488C58.8313 26.1188 59.0813 28.2889 59.0813 30.499C59.0813 31.409 59.0313 32.3191 58.9513 33.2191L57.9212 31.6391C57.6312 31.189 57.0312 31.059 56.5812 31.349C56.1312 31.6391 56.0012 32.2391 56.2912 32.6891L58.6913 36.3992C58.8413 36.6292 59.0713 36.7793 59.3413 36.8293C59.4013 36.8393 59.4513 36.8393 59.5113 36.8393C59.6413 36.8393 59.7713 36.8093 59.8813 36.7492C59.9113 36.7392 59.9313 36.7192 59.9513 36.7092C60.0013 36.6892 60.0513 36.6692 60.0913 36.6392L60.1213 36.6192C60.1513 36.5992 60.1713 36.5792 60.1913 36.5592L63.6015 33.9691C64.0415 33.6391 64.1315 33.0391 63.8015 32.6091Z" fill="url(&quot;#paint6_linear_2675_11879&quot;)"></path><path d="M1.94007 30.4888C1.94007 28.2787 2.19008 26.1187 2.6801 24.0386C3.95015 18.4984 6.83026 13.5182 11.0104 9.60803C13.3005 7.46794 15.8706 5.75788 18.6607 4.49783L17.8107 6.17789C17.5707 6.65791 17.7607 7.23793 18.2407 7.47794C18.3807 7.54795 18.5307 7.58795 18.6807 7.58795C19.0307 7.58795 19.3707 7.39794 19.5508 7.05793L21.5508 3.11778C21.6708 2.87777 21.6908 2.59776 21.6008 2.34775C21.5108 2.09774 21.3108 1.88773 21.0608 1.78773L16.9807 0.07766C16.4806 -0.132348 15.9106 0.0976606 15.7006 0.59768C15.4906 1.0877 15.7306 1.65772 16.2206 1.86773L18.0707 2.63776C15.0006 3.99781 12.1905 5.85788 9.69037 8.19797C5.2202 12.3681 2.15008 17.6983 0.800031 23.5986C0.27001 25.8086 0 28.1287 0 30.4888C0 32.8489 0.27001 35.169 0.79003 37.3791C0.900035 37.8291 1.29005 38.1291 1.73007 38.1291C1.80007 38.1291 1.88007 38.1191 1.95008 38.0991C2.4701 37.9791 2.79011 37.4491 2.6701 36.9291C2.19008 34.859 1.94007 32.6889 1.94007 30.4888Z" fill="url(&quot;#paint7_linear_2675_11879&quot;)"></path><defs><linearGradient id="paint0_linear_2675_11879" x1="17.0884" y1="41.202" x2="40.2445" y2="16.0641" gradientUnits="userSpaceOnUse"><stop stop-color="#52D8EA"></stop><stop offset="1" stop-color="#916AFF"></stop></linearGradient><linearGradient id="paint1_linear_2675_11879" x1="22.9575" y1="40.9039" x2="27.4184" y2="39.3756" gradientUnits="userSpaceOnUse"><stop stop-color="#52D8EA"></stop><stop offset="1" stop-color="#916AFF"></stop></linearGradient><linearGradient id="paint2_linear_2675_11879" x1="38.0921" y1="40.9144" x2="42.5497" y2="39.3881" gradientUnits="userSpaceOnUse"><stop stop-color="#52D8EA"></stop><stop offset="1" stop-color="#916AFF"></stop></linearGradient><linearGradient id="paint3_linear_2675_11879" x1="28.3403" y1="40.9046" x2="31.7223" y2="40.0702" gradientUnits="userSpaceOnUse"><stop stop-color="#52D8EA"></stop><stop offset="1" stop-color="#916AFF"></stop></linearGradient><linearGradient id="paint4_linear_2675_11879" x1="33.5415" y1="40.9049" x2="36.9235" y2="40.0704" gradientUnits="userSpaceOnUse"><stop stop-color="#52D8EA"></stop><stop offset="1" stop-color="#916AFF"></stop></linearGradient><linearGradient id="paint5_linear_2675_11879" x1="13.112" y1="59.395" x2="16.4151" y2="45.6413" gradientUnits="userSpaceOnUse"><stop stop-color="#52D8EA"></stop><stop offset="1" stop-color="#916AFF"></stop></linearGradient><linearGradient id="paint6_linear_2675_11879" x1="39.8461" y1="31.0737" x2="64.6943" y2="13.0188" gradientUnits="userSpaceOnUse"><stop stop-color="#52D8EA"></stop><stop offset="1" stop-color="#916AFF"></stop></linearGradient><linearGradient id="paint7_linear_2675_11879" x1="1.42373" y1="31.9508" x2="25.4697" y2="18.293" gradientUnits="userSpaceOnUse"><stop stop-color="#52D8EA"></stop><stop offset="1" stop-color="#916AFF"></stop></linearGradient><linearGradient id="paint0_linear_2675_11879" x1="17.0884" y1="41.202" x2="40.2445" y2="16.0641" gradientUnits="userSpaceOnUse"><stop stop-color="#52D8EA"></stop><stop offset="1" stop-color="#916AFF"></stop></linearGradient><linearGradient id="paint1_linear_2675_11879" x1="22.9575" y1="40.9039" x2="27.4184" y2="39.3756" gradientUnits="userSpaceOnUse"><stop stop-color="#52D8EA"></stop><stop offset="1" stop-color="#916AFF"></stop></linearGradient><linearGradient id="paint2_linear_2675_11879" x1="38.0921" y1="40.9144" x2="42.5497" y2="39.3881" gradientUnits="userSpaceOnUse"><stop stop-color="#52D8EA"></stop><stop offset="1" stop-color="#916AFF"></stop></linearGradient><linearGradient id="paint3_linear_2675_11879" x1="28.3403" y1="40.9046" x2="31.7223" y2="40.0702" gradientUnits="userSpaceOnUse"><stop stop-color="#52D8EA"></stop><stop offset="1" stop-color="#916AFF"></stop></linearGradient><linearGradient id="paint4_linear_2675_11879" x1="33.5415" y1="40.9049" x2="36.9235" y2="40.0704" gradientUnits="userSpaceOnUse"><stop stop-color="#52D8EA"></stop><stop offset="1" stop-color="#916AFF"></stop></linearGradient><linearGradient id="paint5_linear_2675_11879" x1="13.112" y1="59.395" x2="16.4151" y2="45.6413" gradientUnits="userSpaceOnUse"><stop stop-color="#52D8EA"></stop><stop offset="1" stop-color="#916AFF"></stop></linearGradient><linearGradient id="paint6_linear_2675_11879" x1="39.8461" y1="31.0737" x2="64.6943" y2="13.0188" gradientUnits="userSpaceOnUse"><stop stop-color="#52D8EA"></stop><stop offset="1" stop-color="#916AFF"></stop></linearGradient><linearGradient id="paint7_linear_2675_11879" x1="1.42373" y1="31.9508" x2="25.4697" y2="18.293" gradientUnits="userSpaceOnUse"><stop stop-color="#52D8EA"></stop><stop offset="1" stop-color="#916AFF"></stop></linearGradient></defs></svg>