<svg xmlns:xlink="http://www.w3.org/1999/xlink" xmlns="http://www.w3.org/2000/svg" width="66" height="61" viewBox="0 0 66 61" fill="none"><path d="M61.118 0H56.1951C55.6622 0 55.2304 0.431954 55.2304 0.964758C55.2304 1.49769 55.6622 1.92952 56.1951 1.92952H61.118C62.3591 1.92952 63.3691 2.93943 63.3691 4.18062V21.3437H45.1104V1.92952H51.9906C52.5235 1.92952 52.9553 1.49769 52.9553 0.964758C52.9553 0.431954 52.5235 0 51.9906 0H4.18062C1.87536 0 0 1.87536 0 4.18062V40.4362C0 42.7415 1.87536 44.6169 4.18062 44.6169H22.5798V51.9621H19.2422C16.937 51.9621 15.0615 53.8375 15.0615 56.1428V59.3921C15.0615 60.2787 15.7828 61 16.6695 61H48.6292C49.5159 61 50.2371 60.2787 50.2371 59.3921V56.1428C50.2371 53.8375 48.3618 51.9621 46.0565 51.9621H42.719V44.6169H61.1181C63.4233 44.6169 65.2987 42.7415 65.2987 40.4362V4.18062C65.2986 1.87536 63.4232 0 61.118 0ZM4.18062 1.92952H20.1881V9.84632C20.1881 10.3791 20.6201 10.8111 21.1529 10.8111C21.6857 10.8111 22.1177 10.3791 22.1177 9.84632V1.92952H43.1809V21.3437H22.1177V14.051C22.1177 13.5181 21.6857 13.0862 21.1529 13.0862C20.6201 13.0862 20.1881 13.5181 20.1881 14.051V21.3437H1.92952V4.18062C1.92952 2.93943 2.93943 1.92952 4.18062 1.92952ZM22.1177 42.6873V23.2732H43.1809V42.6873H22.1177ZM1.92952 40.4362V23.2732H20.1881V42.6873H4.18062C2.93943 42.6873 1.92952 41.6774 1.92952 40.4362ZM40.7893 51.962H31.6132C31.0804 51.962 30.6484 52.3938 30.6484 52.9268C30.6484 53.4597 31.0804 53.8915 31.6132 53.8915H46.0564C47.2976 53.8915 48.3075 54.9014 48.3075 56.1426V59.0704H16.9911V56.1426C16.9911 54.9014 18.001 53.8915 19.2422 53.8915H27.4087C27.9415 53.8915 28.3734 53.4597 28.3734 52.9268C28.3734 52.3938 27.9415 51.962 27.4087 51.962H24.5094V44.6167H40.7893V51.962ZM61.118 42.6873H45.1104V23.2732H63.3691V40.4362C63.3691 41.6774 62.3593 42.6873 61.118 42.6873Z" fill="url(&quot;#paint0_linear_2675_11829&quot;)"></path><defs><linearGradient id="paint0_linear_2675_11829" x1="4.29279" y1="51.1157" x2="48.9789" y2="3.28052" gradientUnits="userSpaceOnUse"><stop stop-color="#52D8EA"></stop><stop offset="1" stop-color="#916AFF"></stop></linearGradient><linearGradient id="paint0_linear_2675_11829" x1="4.29279" y1="51.1157" x2="48.9789" y2="3.28052" gradientUnits="userSpaceOnUse"><stop stop-color="#52D8EA"></stop><stop offset="1" stop-color="#916AFF"></stop></linearGradient></defs></svg>