<svg xmlns:xlink="http://www.w3.org/1999/xlink" xmlns="http://www.w3.org/2000/svg" width="63" height="61" viewBox="0 0 63 61" fill="none"><path d="M47.0831 22.4966L35.6046 31.6797C33.4359 33.3725 30.3847 33.3725 28.216 31.6797L16.6406 22.4966" stroke="url(&quot;#paint0_linear_1662_5222&quot;)" stroke-width="2px" stroke-linecap="round" stroke-linejoin="round" fill="none"></path><path fill-rule="evenodd" clip-rule="evenodd" d="M44.5155 53.3749C52.3724 53.3963 57.6676 47.0451 57.6676 39.2392V21.7821C57.6676 13.9762 52.3724 7.625 44.5155 7.625H19.1531C11.2963 7.625 6.00098 13.9762 6.00098 21.7821V39.2392C6.00098 47.0451 11.2963 53.3963 19.1531 53.3749H44.5155Z" stroke="url(&quot;#paint1_linear_1662_5222&quot;)" stroke-width="2px" stroke-linecap="round" stroke-linejoin="round" fill="none"></path><defs><linearGradient id="paint0_linear_1662_5222" x1="18.6419" y1="31.2556" x2="23.3567" y2="17.5244" gradientUnits="userSpaceOnUse"><stop stop-color="#52D8EA"></stop><stop offset="1" stop-color="#916AFF"></stop></linearGradient><linearGradient id="paint1_linear_1662_5222" x1="9.39758" y1="45.9618" x2="42.743" y2="8.30389" gradientUnits="userSpaceOnUse"><stop stop-color="#52D8EA"></stop><stop offset="1" stop-color="#916AFF"></stop></linearGradient><linearGradient id="paint0_linear_1662_5222" x1="18.6419" y1="31.2556" x2="23.3567" y2="17.5244" gradientUnits="userSpaceOnUse"><stop stop-color="#52D8EA"></stop><stop offset="1" stop-color="#916AFF"></stop></linearGradient><linearGradient id="paint1_linear_1662_5222" x1="9.39758" y1="45.9618" x2="42.743" y2="8.30389" gradientUnits="userSpaceOnUse"><stop stop-color="#52D8EA"></stop><stop offset="1" stop-color="#916AFF"></stop></linearGradient></defs></svg>