<svg xmlns:xlink="http://www.w3.org/1999/xlink" xmlns="http://www.w3.org/2000/svg" width="63" height="61" viewBox="0 0 63 61" fill="none"><path d="M14.5764 40.4185C14.5309 40.4185 14.4844 40.4156 14.4369 40.409C12.2234 40.0944 10.0999 39.411 8.12748 38.3769C7.6557 38.1291 7.47648 37.5515 7.72835 37.0864C7.9812 36.6231 8.56535 36.4468 9.04004 36.6937C10.8129 37.6249 12.7223 38.2387 14.713 38.5208C15.2429 38.5961 15.6101 39.0793 15.5345 39.6007C15.4648 40.0763 15.0502 40.4185 14.5764 40.4185Z" fill="url(&quot;#paint0_linear_1662_5074&quot;)"></path><path d="M49.091 40.4185C48.6173 40.4185 48.2027 40.0763 48.1329 39.6017C48.0573 39.0803 48.4245 38.5971 48.9544 38.5218C50.9461 38.2397 52.8546 37.6259 54.6274 36.6947C55.1031 36.4478 55.6862 36.6241 55.9391 37.0873C56.191 37.5515 56.0117 38.1301 55.54 38.3779C53.5676 39.412 51.4441 40.0954 49.2305 40.4099C49.183 40.4157 49.1365 40.4185 49.091 40.4185Z" fill="url(&quot;#paint1_linear_1662_5074&quot;)"></path><path d="M38.9576 31.8624C38.7754 31.8624 38.5923 31.8119 38.4296 31.708C37.9811 31.4201 37.8542 30.8302 38.1467 30.3889C39.5194 28.3177 41.8386 27.0806 44.3516 27.0806C44.8873 27.0806 45.3203 27.5066 45.3203 28.0337C45.3203 28.5608 44.8873 28.9868 44.3516 28.9868C42.4954 28.9868 40.7827 29.8999 39.7703 31.4297C39.5853 31.7099 39.2753 31.8624 38.9576 31.8624Z" fill="url(&quot;#paint2_linear_1662_5074&quot;)"></path><path d="M46.4997 28.9865C43.0655 28.9865 40.165 26.1328 40.165 22.755C40.165 19.3771 43.0655 16.5234 46.4997 16.5234C49.9329 16.5234 52.8334 19.3771 52.8334 22.755C52.8334 26.1328 49.9329 28.9865 46.4997 28.9865ZM46.4997 18.4297C44.1166 18.4297 42.1025 20.4103 42.1025 22.755C42.1025 25.0997 44.1166 27.0803 46.4997 27.0803C48.8828 27.0803 50.8959 25.0997 50.8959 22.755C50.8959 20.4103 48.8828 18.4297 46.4997 18.4297Z" fill="url(&quot;#paint3_linear_1662_5074&quot;)"></path><path d="M55.0838 35.3223C54.5481 35.3223 54.1151 34.8962 54.1151 34.3691C54.1151 31.4021 51.6612 28.9878 48.6455 28.9878C48.1098 28.9878 47.6768 28.5617 47.6768 28.0347C47.6768 27.5076 48.1098 27.0815 48.6455 27.0815C52.7298 27.0815 56.0526 30.3517 56.0526 34.3691C56.0526 34.8953 55.6195 35.3223 55.0838 35.3223Z" fill="url(&quot;#paint4_linear_1662_5074&quot;)"></path><path d="M48.6451 28.9868H44.3525C43.8168 28.9868 43.3838 28.5608 43.3838 28.0337C43.3838 27.5066 43.8168 27.0806 44.3525 27.0806H48.6451C49.1808 27.0806 49.6138 27.5066 49.6138 28.0337C49.6138 28.5608 49.1798 28.9868 48.6451 28.9868Z" fill="url(&quot;#paint5_linear_1662_5074&quot;)"></path><path d="M55.084 38.4895C54.5483 38.4895 54.1152 38.0635 54.1152 37.5364V34.3691C54.1152 33.8421 54.5483 33.416 55.084 33.416C55.6197 33.416 56.0527 33.8421 56.0527 34.3691V37.5364C56.0527 38.0635 55.6197 38.4895 55.084 38.4895Z" fill="url(&quot;#paint6_linear_1662_5074&quot;)"></path><path d="M20.3877 39.1927C19.852 39.1927 19.4189 38.7667 19.4189 38.2396C19.4189 33.0565 23.7047 28.8408 28.9718 28.8408C29.5075 28.8408 29.9405 29.2669 29.9405 29.7939C29.9405 30.321 29.5075 30.7471 28.9718 30.7471C24.7723 30.7471 21.3564 34.1078 21.3564 38.2396C21.3564 38.7667 20.9224 39.1927 20.3877 39.1927Z" fill="url(&quot;#paint7_linear_1662_5074&quot;)"></path><path d="M34.6951 30.7471H28.9717C28.436 30.7471 28.0029 30.321 28.0029 29.7939C28.0029 29.2669 28.436 28.8408 28.9717 28.8408H34.6951C35.2308 28.8408 35.6638 29.2669 35.6638 29.7939C35.6638 30.321 35.2308 30.7471 34.6951 30.7471Z" fill="url(&quot;#paint8_linear_1662_5074&quot;)"></path><path d="M24.7094 31.8624C24.3926 31.8624 24.0826 31.7099 23.8966 31.4297C22.8833 29.9009 21.1716 28.9868 19.3154 28.9868C18.7797 28.9868 18.3467 28.5608 18.3467 28.0337C18.3467 27.5066 18.7797 27.0806 19.3154 27.0806C21.8293 27.0806 24.1476 28.3177 25.5203 30.3889C25.8128 30.8302 25.6859 31.4201 25.2374 31.708C25.0737 31.8119 24.8906 31.8624 24.7094 31.8624Z" fill="url(&quot;#paint9_linear_1662_5074&quot;)"></path><path d="M20.3877 43.4162C19.852 43.4162 19.4189 42.9901 19.4189 42.463V38.2397C19.4189 37.7127 19.852 37.2866 20.3877 37.2866C20.9234 37.2866 21.3564 37.7127 21.3564 38.2397V42.463C21.3564 42.9901 20.9224 43.4162 20.3877 43.4162Z" fill="url(&quot;#paint10_linear_1662_5074&quot;)"></path><path d="M31.8339 30.7471C27.4309 30.7471 23.7109 27.0871 23.7109 22.7551C23.7109 18.4232 27.4309 14.7632 31.8339 14.7632C36.2369 14.7632 39.9569 18.4232 39.9569 22.7551C39.9569 27.0871 36.2369 30.7471 31.8339 30.7471ZM31.8339 16.6694C28.4811 16.6694 25.6484 19.4564 25.6484 22.7551C25.6484 26.0539 28.4811 28.8408 31.8339 28.8408C35.1867 28.8408 38.0194 26.0539 38.0194 22.7551C38.0194 19.4564 35.1867 16.6694 31.8339 16.6694Z" fill="url(&quot;#paint11_linear_1662_5074&quot;)"></path><path d="M43.2794 39.1927C42.7437 39.1927 42.3107 38.7667 42.3107 38.2396C42.3107 34.1078 38.8948 30.7471 34.6953 30.7471C34.1596 30.7471 33.7266 30.321 33.7266 29.7939C33.7266 29.2669 34.1596 28.8408 34.6953 28.8408C39.9634 28.8408 44.2482 33.0574 44.2482 38.2396C44.2482 38.7667 43.8151 39.1927 43.2794 39.1927Z" fill="url(&quot;#paint12_linear_1662_5074&quot;)"></path><path d="M43.2793 43.4162C42.7436 43.4162 42.3105 42.9901 42.3105 42.463V38.2397C42.3105 37.7127 42.7436 37.2866 43.2793 37.2866C43.815 37.2866 44.248 37.7127 44.248 38.2397V42.463C44.248 42.9901 43.815 43.4162 43.2793 43.4162Z" fill="url(&quot;#paint13_linear_1662_5074&quot;)"></path><path d="M31.8342 46.2374C27.7461 46.2374 23.6589 45.2595 19.9322 43.3046C19.4604 43.0559 19.2812 42.4792 19.533 42.0141C19.7859 41.5509 20.3691 41.3746 20.8447 41.6214C27.7267 45.2328 35.9437 45.2328 42.8247 41.6214C43.2994 41.3746 43.8845 41.5509 44.1364 42.0141C44.3883 42.4783 44.209 43.0559 43.7373 43.3046C40.0095 45.2585 35.9224 46.2374 31.8342 46.2374Z" fill="url(&quot;#paint14_linear_1662_5074&quot;)"></path><path d="M17.1677 28.9865C13.7344 28.9865 10.834 26.1328 10.834 22.755C10.834 19.3771 13.7344 16.5234 17.1677 16.5234C20.6009 16.5234 23.5014 19.3771 23.5014 22.755C23.5014 26.1328 20.6009 28.9865 17.1677 28.9865ZM17.1677 18.4297C14.7845 18.4297 12.7715 20.4103 12.7715 22.755C12.7715 25.0997 14.7845 27.0803 17.1677 27.0803C19.5508 27.0803 21.5639 25.0997 21.5639 22.755C21.5639 20.4103 19.5508 18.4297 17.1677 18.4297Z" fill="url(&quot;#paint15_linear_1662_5074&quot;)"></path><path d="M8.58398 35.3223C8.04827 35.3223 7.61523 34.8962 7.61523 34.3691C7.61523 30.3508 10.939 27.0815 15.0223 27.0815C15.558 27.0815 15.991 27.5076 15.991 28.0347C15.991 28.5617 15.558 28.9878 15.0223 28.9878C12.0066 28.9868 9.55273 31.4011 9.55273 34.3691C9.55273 34.8953 9.1197 35.3223 8.58398 35.3223Z" fill="url(&quot;#paint16_linear_1662_5074&quot;)"></path><path d="M19.315 28.9868H15.0225C14.4867 28.9868 14.0537 28.5608 14.0537 28.0337C14.0537 27.5066 14.4867 27.0806 15.0225 27.0806H19.315C19.8507 27.0806 20.2837 27.5066 20.2837 28.0337C20.2837 28.5608 19.8507 28.9868 19.315 28.9868Z" fill="url(&quot;#paint17_linear_1662_5074&quot;)"></path><path d="M8.58398 38.4895C8.04827 38.4895 7.61523 38.0635 7.61523 37.5364V34.3691C7.61523 33.8421 8.04827 33.416 8.58398 33.416C9.1197 33.416 9.55273 33.8421 9.55273 34.3691V37.5364C9.55273 38.0635 9.1197 38.4895 8.58398 38.4895Z" fill="url(&quot;#paint18_linear_1662_5074&quot;)"></path><defs><linearGradient id="paint0_linear_1662_5074" x1="8.13559" y1="39.7968" x2="10.3442" y2="35.2314" gradientUnits="userSpaceOnUse"><stop stop-color="#52D8EA"></stop><stop offset="1" stop-color="#916AFF"></stop></linearGradient><linearGradient id="paint1_linear_1662_5074" x1="48.6444" y1="39.797" x2="50.8522" y2="35.2323" gradientUnits="userSpaceOnUse"><stop stop-color="#52D8EA"></stop><stop offset="1" stop-color="#916AFF"></stop></linearGradient><linearGradient id="paint2_linear_1662_5074" x1="38.4712" y1="31.0876" x2="41.6845" y2="26.1613" gradientUnits="userSpaceOnUse"><stop stop-color="#52D8EA"></stop><stop offset="1" stop-color="#916AFF"></stop></linearGradient><linearGradient id="paint3_linear_1662_5074" x1="40.9979" y1="26.967" x2="50.1478" y2="17.6664" gradientUnits="userSpaceOnUse"><stop stop-color="#52D8EA"></stop><stop offset="1" stop-color="#916AFF"></stop></linearGradient><linearGradient id="paint4_linear_1662_5074" x1="48.2274" y1="33.987" x2="54.2774" y2="27.8378" gradientUnits="userSpaceOnUse"><stop stop-color="#52D8EA"></stop><stop offset="1" stop-color="#916AFF"></stop></linearGradient><linearGradient id="paint5_linear_1662_5074" x1="43.7934" y1="28.6779" x2="44.5766" y2="26.1182" gradientUnits="userSpaceOnUse"><stop stop-color="#52D8EA"></stop><stop offset="1" stop-color="#916AFF"></stop></linearGradient><linearGradient id="paint6_linear_1662_5074" x1="54.2426" y1="37.6674" x2="56.7257" y2="36.7191" gradientUnits="userSpaceOnUse"><stop stop-color="#52D8EA"></stop><stop offset="1" stop-color="#916AFF"></stop></linearGradient><linearGradient id="paint7_linear_1662_5074" x1="20.1106" y1="37.5153" x2="27.7106" y2="29.7908" gradientUnits="userSpaceOnUse"><stop stop-color="#52D8EA"></stop><stop offset="1" stop-color="#916AFF"></stop></linearGradient><linearGradient id="paint8_linear_1662_5074" x1="28.5066" y1="30.4382" x2="29.1625" y2="27.802" gradientUnits="userSpaceOnUse"><stop stop-color="#52D8EA"></stop><stop offset="1" stop-color="#916AFF"></stop></linearGradient><linearGradient id="paint9_linear_1662_5074" x1="18.8286" y1="31.0876" x2="22.0419" y2="26.1613" gradientUnits="userSpaceOnUse"><stop stop-color="#52D8EA"></stop><stop offset="1" stop-color="#916AFF"></stop></linearGradient><linearGradient id="paint10_linear_1662_5074" x1="19.5463" y1="42.423" x2="22.1331" y2="41.6053" gradientUnits="userSpaceOnUse"><stop stop-color="#52D8EA"></stop><stop offset="1" stop-color="#916AFF"></stop></linearGradient><linearGradient id="paint11_linear_1662_5074" x1="24.779" y1="28.1571" x2="36.5137" y2="16.23" gradientUnits="userSpaceOnUse"><stop stop-color="#52D8EA"></stop><stop offset="1" stop-color="#916AFF"></stop></linearGradient><linearGradient id="paint12_linear_1662_5074" x1="34.4183" y1="37.5153" x2="42.0182" y2="29.7908" gradientUnits="userSpaceOnUse"><stop stop-color="#52D8EA"></stop><stop offset="1" stop-color="#916AFF"></stop></linearGradient><linearGradient id="paint13_linear_1662_5074" x1="42.4379" y1="42.423" x2="45.0247" y2="41.6053" gradientUnits="userSpaceOnUse"><stop stop-color="#52D8EA"></stop><stop offset="1" stop-color="#916AFF"></stop></linearGradient><linearGradient id="paint14_linear_1662_5074" x1="21.0514" y1="45.4713" x2="22.3269" y2="38.7716" gradientUnits="userSpaceOnUse"><stop stop-color="#52D8EA"></stop><stop offset="1" stop-color="#916AFF"></stop></linearGradient><linearGradient id="paint15_linear_1662_5074" x1="11.6667" y1="26.967" x2="20.8167" y2="17.6671" gradientUnits="userSpaceOnUse"><stop stop-color="#52D8EA"></stop><stop offset="1" stop-color="#916AFF"></stop></linearGradient><linearGradient id="paint16_linear_1662_5074" x1="8.16587" y1="33.987" x2="14.2159" y2="27.8378" gradientUnits="userSpaceOnUse"><stop stop-color="#52D8EA"></stop><stop offset="1" stop-color="#916AFF"></stop></linearGradient><linearGradient id="paint17_linear_1662_5074" x1="14.4633" y1="28.6779" x2="15.2465" y2="26.1182" gradientUnits="userSpaceOnUse"><stop stop-color="#52D8EA"></stop><stop offset="1" stop-color="#916AFF"></stop></linearGradient><linearGradient id="paint18_linear_1662_5074" x1="7.74261" y1="37.6674" x2="10.2257" y2="36.7191" gradientUnits="userSpaceOnUse"><stop stop-color="#52D8EA"></stop><stop offset="1" stop-color="#916AFF"></stop></linearGradient><linearGradient id="paint0_linear_1662_5074" x1="8.13559" y1="39.7968" x2="10.3442" y2="35.2314" gradientUnits="userSpaceOnUse"><stop stop-color="#52D8EA"></stop><stop offset="1" stop-color="#916AFF"></stop></linearGradient><linearGradient id="paint1_linear_1662_5074" x1="48.6444" y1="39.797" x2="50.8522" y2="35.2323" gradientUnits="userSpaceOnUse"><stop stop-color="#52D8EA"></stop><stop offset="1" stop-color="#916AFF"></stop></linearGradient><linearGradient id="paint2_linear_1662_5074" x1="38.4712" y1="31.0876" x2="41.6845" y2="26.1613" gradientUnits="userSpaceOnUse"><stop stop-color="#52D8EA"></stop><stop offset="1" stop-color="#916AFF"></stop></linearGradient><linearGradient id="paint3_linear_1662_5074" x1="40.9979" y1="26.967" x2="50.1478" y2="17.6664" gradientUnits="userSpaceOnUse"><stop stop-color="#52D8EA"></stop><stop offset="1" stop-color="#916AFF"></stop></linearGradient><linearGradient id="paint4_linear_1662_5074" x1="48.2274" y1="33.987" x2="54.2774" y2="27.8378" gradientUnits="userSpaceOnUse"><stop stop-color="#52D8EA"></stop><stop offset="1" stop-color="#916AFF"></stop></linearGradient><linearGradient id="paint5_linear_1662_5074" x1="43.7934" y1="28.6779" x2="44.5766" y2="26.1182" gradientUnits="userSpaceOnUse"><stop stop-color="#52D8EA"></stop><stop offset="1" stop-color="#916AFF"></stop></linearGradient><linearGradient id="paint6_linear_1662_5074" x1="54.2426" y1="37.6674" x2="56.7257" y2="36.7191" gradientUnits="userSpaceOnUse"><stop stop-color="#52D8EA"></stop><stop offset="1" stop-color="#916AFF"></stop></linearGradient><linearGradient id="paint7_linear_1662_5074" x1="20.1106" y1="37.5153" x2="27.7106" y2="29.7908" gradientUnits="userSpaceOnUse"><stop stop-color="#52D8EA"></stop><stop offset="1" stop-color="#916AFF"></stop></linearGradient><linearGradient id="paint8_linear_1662_5074" x1="28.5066" y1="30.4382" x2="29.1625" y2="27.802" gradientUnits="userSpaceOnUse"><stop stop-color="#52D8EA"></stop><stop offset="1" stop-color="#916AFF"></stop></linearGradient><linearGradient id="paint9_linear_1662_5074" x1="18.8286" y1="31.0876" x2="22.0419" y2="26.1613" gradientUnits="userSpaceOnUse"><stop stop-color="#52D8EA"></stop><stop offset="1" stop-color="#916AFF"></stop></linearGradient><linearGradient id="paint10_linear_1662_5074" x1="19.5463" y1="42.423" x2="22.1331" y2="41.6053" gradientUnits="userSpaceOnUse"><stop stop-color="#52D8EA"></stop><stop offset="1" stop-color="#916AFF"></stop></linearGradient><linearGradient id="paint11_linear_1662_5074" x1="24.779" y1="28.1571" x2="36.5137" y2="16.23" gradientUnits="userSpaceOnUse"><stop stop-color="#52D8EA"></stop><stop offset="1" stop-color="#916AFF"></stop></linearGradient><linearGradient id="paint12_linear_1662_5074" x1="34.4183" y1="37.5153" x2="42.0182" y2="29.7908" gradientUnits="userSpaceOnUse"><stop stop-color="#52D8EA"></stop><stop offset="1" stop-color="#916AFF"></stop></linearGradient><linearGradient id="paint13_linear_1662_5074" x1="42.4379" y1="42.423" x2="45.0247" y2="41.6053" gradientUnits="userSpaceOnUse"><stop stop-color="#52D8EA"></stop><stop offset="1" stop-color="#916AFF"></stop></linearGradient><linearGradient id="paint14_linear_1662_5074" x1="21.0514" y1="45.4713" x2="22.3269" y2="38.7716" gradientUnits="userSpaceOnUse"><stop stop-color="#52D8EA"></stop><stop offset="1" stop-color="#916AFF"></stop></linearGradient><linearGradient id="paint15_linear_1662_5074" x1="11.6667" y1="26.967" x2="20.8167" y2="17.6671" gradientUnits="userSpaceOnUse"><stop stop-color="#52D8EA"></stop><stop offset="1" stop-color="#916AFF"></stop></linearGradient><linearGradient id="paint16_linear_1662_5074" x1="8.16587" y1="33.987" x2="14.2159" y2="27.8378" gradientUnits="userSpaceOnUse"><stop stop-color="#52D8EA"></stop><stop offset="1" stop-color="#916AFF"></stop></linearGradient><linearGradient id="paint17_linear_1662_5074" x1="14.4633" y1="28.6779" x2="15.2465" y2="26.1182" gradientUnits="userSpaceOnUse"><stop stop-color="#52D8EA"></stop><stop offset="1" stop-color="#916AFF"></stop></linearGradient><linearGradient id="paint18_linear_1662_5074" x1="7.74261" y1="37.6674" x2="10.2257" y2="36.7191" gradientUnits="userSpaceOnUse"><stop stop-color="#52D8EA"></stop><stop offset="1" stop-color="#916AFF"></stop></linearGradient></defs></svg>