<svg xmlns:xlink="http://www.w3.org/1999/xlink" xmlns="http://www.w3.org/2000/svg" width="63" height="61" viewBox="0 0 63 61" fill="none"><g clip-path="url(#clip0_1662_5036)" fill="none"><mask id="mask0_1662_5036" style="mask-type:luminance" maskUnits="userSpaceOnUse" x="0" y="0" width="63" height="61" fill="none"><path d="M0.833984 7.62939e-06H62.834V61H0.833984V7.62939e-06Z" fill="#FFFFFF"></path></mask><g mask="url(#mask0_1662_5036)" fill="none"><path d="M10.5098 25.001L12.8732 18.8959C12.9215 18.7797 13.0886 18.7795 13.1371 18.8955L15.479 25.001" stroke="url(&quot;#paint0_linear_1662_5036&quot;)" stroke-width="2px" stroke-miterlimit="10" stroke-linecap="round" stroke-linejoin="round" fill="none"></path><path d="M11.2461 23.4805H14.753" stroke="url(&quot;#paint1_linear_1662_5036&quot;)" stroke-width="2px" stroke-miterlimit="10" stroke-linecap="round" stroke-linejoin="round" fill="none"></path><path d="M45.6719 25.001V18.8202L49.9192 24.8714C49.9979 24.9832 50.0822 24.9284 50.0822 24.7924L50.0235 18.8086" stroke="url(&quot;#paint2_linear_1662_5036&quot;)" stroke-width="2px" stroke-miterlimit="10" stroke-linecap="round" stroke-linejoin="round" fill="none"></path><path d="M32.7949 18.8086V25.001" stroke="url(&quot;#paint3_linear_1662_5036&quot;)" stroke-width="2px" stroke-miterlimit="10" stroke-linecap="round" stroke-linejoin="round" fill="none"></path><path d="M22.9143 19.3374C22.4121 19.0036 21.8066 18.8086 21.1548 18.8086C19.4167 18.8086 18.0078 20.1948 18.0078 21.9048C18.0078 23.6148 19.4167 25.001 21.1548 25.001C21.8607 25.001 22.4413 24.7723 22.882 24.3862C22.9731 24.3064 23.0583 24.2197 23.1373 24.127" stroke="url(&quot;#paint4_linear_1662_5036&quot;)" stroke-width="2px" stroke-miterlimit="10" stroke-linecap="round" stroke-linejoin="round" fill="none"></path><path d="M26.127 18.8086H29.6028" stroke="url(&quot;#paint5_linear_1662_5036&quot;)" stroke-width="2px" stroke-miterlimit="10" stroke-linecap="round" stroke-linejoin="round" fill="none"></path><path d="M27.8584 19.0063V25.001" stroke="url(&quot;#paint6_linear_1662_5036&quot;)" stroke-width="2px" stroke-miterlimit="10" stroke-linecap="round" stroke-linejoin="round" fill="none"></path><path d="M42.4013 21.9047C42.4013 23.6148 40.9923 25.001 39.2543 25.001C37.5163 25.001 36.1074 23.6148 36.1074 21.9047C36.1074 20.1947 37.5163 18.8085 39.2543 18.8085C40.9923 18.8085 42.4013 20.1947 42.4013 21.9047Z" stroke="url(&quot;#paint7_linear_1662_5036&quot;)" stroke-width="2px" stroke-miterlimit="10" stroke-linecap="round" stroke-linejoin="round" fill="none"></path><path d="M61.9262 38.1791L47.8604 28.5349L49.3164 45.3419L53.4919 41.9072L57.4201 49.6011L61.6234 47.2134L56.8152 40.0194L61.9262 38.1791Z" stroke="url(&quot;#paint8_linear_1662_5036&quot;)" stroke-width="2px" stroke-miterlimit="10" stroke-linecap="round" stroke-linejoin="round" fill="none"></path><path d="M58.7666 31.3566C59.5131 30.6605 59.9844 29.6818 59.9844 28.59V15.2194C59.9844 13.1095 58.246 11.3991 56.1015 11.3991H5.62494C3.48049 11.3991 1.74219 13.1095 1.74219 15.2194V28.59C1.74219 30.6998 3.48049 32.4102 5.62494 32.4102H44.299" stroke="url(&quot;#paint9_linear_1662_5036&quot;)" stroke-width="2px" stroke-miterlimit="10" stroke-linecap="round" stroke-linejoin="round" fill="none"></path></g></g><defs><linearGradient id="paint0_linear_1662_5036" x1="10.8364" y1="19.812" x2="15.2753" y2="23.3741" gradientUnits="userSpaceOnUse"><stop stop-color="#52D8EA"></stop><stop offset="1" stop-color="#916AFF"></stop></linearGradient><linearGradient id="paint1_linear_1662_5036" x1="11.4766" y1="22.6425" x2="11.8639" y2="24.0006" gradientUnits="userSpaceOnUse"><stop stop-color="#52D8EA"></stop><stop offset="1" stop-color="#916AFF"></stop></linearGradient><linearGradient id="paint2_linear_1662_5036" x1="45.9618" y1="19.812" x2="50.2588" y2="22.8725" gradientUnits="userSpaceOnUse"><stop stop-color="#52D8EA"></stop><stop offset="1" stop-color="#916AFF"></stop></linearGradient><linearGradient id="paint3_linear_1662_5036" x1="32.8607" y1="19.812" x2="34.2919" y2="20.0432" gradientUnits="userSpaceOnUse"><stop stop-color="#52D8EA"></stop><stop offset="1" stop-color="#916AFF"></stop></linearGradient><linearGradient id="paint4_linear_1662_5036" x1="18.345" y1="19.812" x2="22.8124" y2="23.5126" gradientUnits="userSpaceOnUse"><stop stop-color="#52D8EA"></stop><stop offset="1" stop-color="#916AFF"></stop></linearGradient><linearGradient id="paint5_linear_1662_5036" x1="26.3555" y1="17.9706" x2="26.7457" y2="19.3269" gradientUnits="userSpaceOnUse"><stop stop-color="#52D8EA"></stop><stop offset="1" stop-color="#916AFF"></stop></linearGradient><linearGradient id="paint6_linear_1662_5036" x1="27.9241" y1="19.9777" x2="29.3529" y2="20.216" gradientUnits="userSpaceOnUse"><stop stop-color="#52D8EA"></stop><stop offset="1" stop-color="#916AFF"></stop></linearGradient><linearGradient id="paint7_linear_1662_5036" x1="36.5212" y1="19.8119" x2="41.0675" y2="24.4326" gradientUnits="userSpaceOnUse"><stop stop-color="#52D8EA"></stop><stop offset="1" stop-color="#916AFF"></stop></linearGradient><linearGradient id="paint8_linear_1662_5036" x1="48.7851" y1="31.9484" x2="63.0717" y2="41.4876" gradientUnits="userSpaceOnUse"><stop stop-color="#52D8EA"></stop><stop offset="1" stop-color="#916AFF"></stop></linearGradient><linearGradient id="paint9_linear_1662_5036" x1="5.57107" y1="14.8037" x2="15.4203" y2="42.1056" gradientUnits="userSpaceOnUse"><stop stop-color="#52D8EA"></stop><stop offset="1" stop-color="#916AFF"></stop></linearGradient><clipPath id="clip0_1662_5036"><rect width="62" height="61" fill="white" transform="translate(0.833984)"></rect></clipPath><linearGradient id="paint0_linear_1662_5036" x1="10.8364" y1="19.812" x2="15.2753" y2="23.3741" gradientUnits="userSpaceOnUse"><stop stop-color="#52D8EA"></stop><stop offset="1" stop-color="#916AFF"></stop></linearGradient><linearGradient id="paint1_linear_1662_5036" x1="11.4766" y1="22.6425" x2="11.8639" y2="24.0006" gradientUnits="userSpaceOnUse"><stop stop-color="#52D8EA"></stop><stop offset="1" stop-color="#916AFF"></stop></linearGradient><linearGradient id="paint2_linear_1662_5036" x1="45.9618" y1="19.812" x2="50.2588" y2="22.8725" gradientUnits="userSpaceOnUse"><stop stop-color="#52D8EA"></stop><stop offset="1" stop-color="#916AFF"></stop></linearGradient><linearGradient id="paint3_linear_1662_5036" x1="32.8607" y1="19.812" x2="34.2919" y2="20.0432" gradientUnits="userSpaceOnUse"><stop stop-color="#52D8EA"></stop><stop offset="1" stop-color="#916AFF"></stop></linearGradient><linearGradient id="paint4_linear_1662_5036" x1="18.345" y1="19.812" x2="22.8124" y2="23.5126" gradientUnits="userSpaceOnUse"><stop stop-color="#52D8EA"></stop><stop offset="1" stop-color="#916AFF"></stop></linearGradient><linearGradient id="paint5_linear_1662_5036" x1="26.3555" y1="17.9706" x2="26.7457" y2="19.3269" gradientUnits="userSpaceOnUse"><stop stop-color="#52D8EA"></stop><stop offset="1" stop-color="#916AFF"></stop></linearGradient><linearGradient id="paint6_linear_1662_5036" x1="27.9241" y1="19.9777" x2="29.3529" y2="20.216" gradientUnits="userSpaceOnUse"><stop stop-color="#52D8EA"></stop><stop offset="1" stop-color="#916AFF"></stop></linearGradient><linearGradient id="paint7_linear_1662_5036" x1="36.5212" y1="19.8119" x2="41.0675" y2="24.4326" gradientUnits="userSpaceOnUse"><stop stop-color="#52D8EA"></stop><stop offset="1" stop-color="#916AFF"></stop></linearGradient><linearGradient id="paint8_linear_1662_5036" x1="48.7851" y1="31.9484" x2="63.0717" y2="41.4876" gradientUnits="userSpaceOnUse"><stop stop-color="#52D8EA"></stop><stop offset="1" stop-color="#916AFF"></stop></linearGradient><linearGradient id="paint9_linear_1662_5036" x1="5.57107" y1="14.8037" x2="15.4203" y2="42.1056" gradientUnits="userSpaceOnUse"><stop stop-color="#52D8EA"></stop><stop offset="1" stop-color="#916AFF"></stop></linearGradient></defs></svg>