<svg xmlns:xlink="http://www.w3.org/1999/xlink" xmlns="http://www.w3.org/2000/svg" width="63" height="61" viewBox="0 0 63 61" fill="none"><path d="M32.7022 44.4746C22.5272 44.4746 14.5566 40.4326 14.5566 35.2729V24.0292C14.5566 23.5358 14.9633 23.1357 15.4648 23.1357C15.9664 23.1357 16.373 23.5358 16.373 24.0292V35.2729C16.373 39.292 23.8508 42.6875 32.7022 42.6875C41.5539 42.6875 49.032 39.292 49.032 35.2729V23.8232C49.032 23.3298 49.4387 22.9297 49.9402 22.9297C50.4418 22.9297 50.8484 23.3298 50.8484 23.8232V35.2729C50.8484 40.4326 42.8776 44.4746 32.7022 44.4746Z" fill="url(&quot;#paint0_linear_1662_5612&quot;)"></path><path d="M8.09782 56.3493L3.44116 52.9533C2.91634 52.5707 2.96223 51.7818 3.52919 51.4609C6.83772 49.5888 8.94826 45.1451 9.03714 39.8637C9.03787 39.8233 9.04126 39.7835 9.04719 39.7447C9.03605 39.4069 9.03218 39.0639 9.03714 38.7162C9.04417 38.2226 9.46012 37.8262 9.95794 37.8351C10.4595 37.842 10.8603 38.2476 10.8534 38.7411C10.8201 41.0816 11.207 43.149 11.5813 45.1484C12.3241 49.117 13.0256 52.8653 9.25451 56.2882C8.93663 56.5765 8.45141 56.607 8.09782 56.3493ZM5.55388 52.2695L8.55204 54.4559C10.8979 51.9602 10.5169 49.3515 9.87281 45.8885C9.0461 48.366 7.62156 50.69 5.55388 52.2695Z" fill="url(&quot;#paint1_linear_1662_5612&quot;)"></path><path d="M30.3572 31.9015L10.6963 22.8116L5.61838 20.5653C3.92573 19.8173 3.78308 17.2374 5.3751 16.499L30.581 4.804C31.6506 4.30789 33.1911 4.37688 34.5052 4.97925L59.2552 16.32C60.0658 16.691 60.5913 17.5431 60.5937 18.4908C60.5959 19.3399 60.172 20.0645 59.4873 20.382L34.2805 32.0771C33.1098 32.6195 31.5384 32.4432 30.3572 31.9015ZM31.3558 6.42038L6.14986 18.1152C6.1346 18.1222 6.07551 18.2115 6.07708 18.3858C6.07902 18.5969 6.17795 18.8534 6.36298 18.9351C13.0893 21.9107 11.0747 21.0151 11.4619 21.1908L31.127 30.2828C31.9304 30.6512 32.9319 30.7264 33.506 30.4603L58.7127 18.7653C58.7376 18.7421 58.7995 18.5932 58.7688 18.384C58.7572 18.3047 58.7027 18.0381 58.4885 17.9401L33.7379 6.59909C33.0464 6.28205 32.0214 6.11156 31.3558 6.42038Z" fill="url(&quot;#paint2_linear_1662_5612&quot;)"></path><path d="M10.4458 34.5289C9.94422 34.52 9.54509 34.1128 9.55405 33.6193C9.60685 30.731 9.28607 24.3305 9.55248 21.6195C9.6008 21.1284 10.0446 20.7699 10.5439 20.816C11.0431 20.8635 11.4087 21.3002 11.3605 21.7914C11.1085 24.3559 11.4234 30.7504 11.3702 33.6514C11.3611 34.1489 10.9414 34.5392 10.4458 34.5289Z" fill="url(&quot;#paint3_linear_1662_5612&quot;)"></path><path d="M10.2789 39.6477C8.34387 39.6477 6.76953 38.0987 6.76953 36.195C6.76953 34.2911 8.34387 32.7422 10.2789 32.7422C12.214 32.7422 13.7884 34.2911 13.7884 36.195C13.7884 38.0987 12.214 39.6477 10.2789 39.6477ZM10.2789 34.5292C9.34544 34.5292 8.58594 35.2764 8.58594 36.1949C8.58594 37.1133 9.34544 37.8605 10.2789 37.8605C11.2125 37.8605 11.972 37.1133 11.972 36.1949C11.972 35.2764 11.2125 34.5292 10.2789 34.5292Z" fill="url(&quot;#paint4_linear_1662_5612&quot;)"></path><defs><linearGradient id="paint0_linear_1662_5612" x1="16.9425" y1="40.9835" x2="30.8307" y2="17.5893" gradientUnits="userSpaceOnUse"><stop stop-color="#52D8EA"></stop><stop offset="1" stop-color="#916AFF"></stop></linearGradient><linearGradient id="paint1_linear_1662_5612" x1="3.67213" y1="53.4965" x2="14.4711" y2="48.2414" gradientUnits="userSpaceOnUse"><stop stop-color="#52D8EA"></stop><stop offset="1" stop-color="#916AFF"></stop></linearGradient><linearGradient id="paint2_linear_1662_5612" x1="7.96412" y1="27.8804" x2="24.2889" y2="-5.04355" gradientUnits="userSpaceOnUse"><stop stop-color="#52D8EA"></stop><stop offset="1" stop-color="#916AFF"></stop></linearGradient><linearGradient id="paint3_linear_1662_5612" x1="9.57226" y1="32.3064" x2="12.353" y2="31.9149" gradientUnits="userSpaceOnUse"><stop stop-color="#52D8EA"></stop><stop offset="1" stop-color="#916AFF"></stop></linearGradient><linearGradient id="paint4_linear_1662_5612" x1="7.23095" y1="38.5287" x2="12.3007" y2="33.3758" gradientUnits="userSpaceOnUse"><stop stop-color="#52D8EA"></stop><stop offset="1" stop-color="#916AFF"></stop></linearGradient><linearGradient id="paint0_linear_1662_5612" x1="16.9425" y1="40.9835" x2="30.8307" y2="17.5893" gradientUnits="userSpaceOnUse"><stop stop-color="#52D8EA"></stop><stop offset="1" stop-color="#916AFF"></stop></linearGradient><linearGradient id="paint1_linear_1662_5612" x1="3.67213" y1="53.4965" x2="14.4711" y2="48.2414" gradientUnits="userSpaceOnUse"><stop stop-color="#52D8EA"></stop><stop offset="1" stop-color="#916AFF"></stop></linearGradient><linearGradient id="paint2_linear_1662_5612" x1="7.96412" y1="27.8804" x2="24.2889" y2="-5.04355" gradientUnits="userSpaceOnUse"><stop stop-color="#52D8EA"></stop><stop offset="1" stop-color="#916AFF"></stop></linearGradient><linearGradient id="paint3_linear_1662_5612" x1="9.57226" y1="32.3064" x2="12.353" y2="31.9149" gradientUnits="userSpaceOnUse"><stop stop-color="#52D8EA"></stop><stop offset="1" stop-color="#916AFF"></stop></linearGradient><linearGradient id="paint4_linear_1662_5612" x1="7.23095" y1="38.5287" x2="12.3007" y2="33.3758" gradientUnits="userSpaceOnUse"><stop stop-color="#52D8EA"></stop><stop offset="1" stop-color="#916AFF"></stop></linearGradient></defs></svg>