<svg xmlns:xlink="http://www.w3.org/1999/xlink" xmlns="http://www.w3.org/2000/svg" width="63" height="61" viewBox="0 0 63 61" fill="none"><g clip-path="url(#clip0_1662_5007)" fill="none"><path d="M11.5951 12.2871C7.13025 17.087 4.40625 23.4805 4.40625 30.4999C4.40625 44.5192 15.272 56.0413 29.1699 57.359" stroke="url(&quot;#paint0_linear_1662_5007&quot;)" stroke-width="2px" stroke-miterlimit="10" stroke-linecap="round" stroke-linejoin="round" fill="none"></path><path d="M29.1701 3.64111C23.6999 4.15973 18.6995 6.25923 14.6465 9.46959" stroke="url(&quot;#paint1_linear_1662_5007&quot;)" stroke-width="2px" stroke-miterlimit="10" stroke-linecap="round" stroke-linejoin="round" fill="none"></path><path d="M34.498 3.64111C48.396 4.95881 59.2617 16.4809 59.2617 30.5002C59.2617 44.5195 48.396 56.0415 34.498 57.3592" stroke="url(&quot;#paint2_linear_1662_5007&quot;)" stroke-width="2px" stroke-miterlimit="10" stroke-linecap="round" stroke-linejoin="round" fill="none"></path><path d="M31.8335 51.3931C43.5617 51.3931 53.0694 42.0388 53.0694 30.4998C53.0694 18.9607 43.5617 9.60645 31.8335 9.60645C20.1053 9.60645 10.5977 18.9607 10.5977 30.4998C10.5977 42.0388 20.1053 51.3931 31.8335 51.3931Z" stroke="url(&quot;#paint3_linear_1662_5007&quot;)" stroke-width="2px" stroke-miterlimit="10" stroke-linecap="round" stroke-linejoin="round" fill="none"></path><path d="M15.4111 26.6226V34.3705C15.4982 34.3852 18.171 34.3705 18.171 34.3705" stroke="url(&quot;#paint4_linear_1662_5007&quot;)" stroke-width="2px" stroke-miterlimit="10" stroke-linecap="round" stroke-linejoin="round" fill="none"></path><path d="M36.4175 27.2847C35.7885 26.8667 35.0304 26.6226 34.2142 26.6226C32.0378 26.6226 30.2734 28.3584 30.2734 30.4998C30.2734 32.6411 32.0378 34.3769 34.2142 34.3769C36.3906 34.3769 37.6161 32.6411 37.6161 30.4998H35.2584" stroke="url(&quot;#paint5_linear_1662_5007&quot;)" stroke-width="2px" stroke-miterlimit="10" stroke-linecap="round" stroke-linejoin="round" fill="none"></path><path d="M23.5736 34.3769C25.75 34.3769 27.5143 32.6411 27.5143 30.4998C27.5143 28.3584 25.75 26.6226 23.5736 26.6226C21.3971 26.6226 19.6328 28.3584 19.6328 30.4998C19.6328 32.6411 21.3971 34.3769 23.5736 34.3769Z" stroke="url(&quot;#paint6_linear_1662_5007&quot;)" stroke-width="2px" stroke-miterlimit="10" stroke-linecap="round" stroke-linejoin="round" fill="none"></path><path d="M44.3158 34.3769C46.4922 34.3769 48.2565 32.6411 48.2565 30.4998C48.2565 28.3584 46.4922 26.6226 44.3158 26.6226C42.1393 26.6226 40.375 28.3584 40.375 30.4998C40.375 32.6411 42.1393 34.3769 44.3158 34.3769Z" stroke="url(&quot;#paint7_linear_1662_5007&quot;)" stroke-width="2px" stroke-miterlimit="10" stroke-linecap="round" stroke-linejoin="round" fill="none"></path><path d="M56.5977 3.51465H34.498" stroke="url(&quot;#paint8_linear_1662_5007&quot;)" stroke-width="2px" stroke-miterlimit="10" stroke-linecap="round" stroke-linejoin="round" fill="none"></path><path d="M29.1699 3.51465H7.07031" stroke="url(&quot;#paint9_linear_1662_5007&quot;)" stroke-width="2px" stroke-miterlimit="10" stroke-linecap="round" stroke-linejoin="round" fill="none"></path><path d="M1.74219 3.51465C1.74219 2.06709 2.93496 0.893555 4.40625 0.893555C5.87754 0.893555 7.07031 2.06709 7.07031 3.51465C7.07031 4.96221 5.87754 6.13574 4.40625 6.13574C2.93496 6.13574 1.74219 4.96221 1.74219 3.51465Z" stroke="url(&quot;#paint10_linear_1662_5007&quot;)" stroke-width="2px" stroke-miterlimit="10" stroke-linecap="round" stroke-linejoin="round" fill="none"></path><path d="M56.5977 3.51465C56.5977 2.06709 57.7904 0.893555 59.2617 0.893555C60.733 0.893555 61.9258 2.06709 61.9258 3.51465C61.9258 4.96221 60.733 6.13574 59.2617 6.13574C57.7904 6.13574 56.5977 4.96221 56.5977 3.51465Z" stroke="url(&quot;#paint11_linear_1662_5007&quot;)" stroke-width="2px" stroke-miterlimit="10" stroke-linecap="round" stroke-linejoin="round" fill="none"></path><path d="M29.1699 5.54004V1.48926C29.1699 1.16031 29.4411 0.893555 29.7754 0.893555H33.8926C34.2269 0.893555 34.498 1.16031 34.498 1.48926V5.54004C34.498 5.86899 34.2269 6.13574 33.8926 6.13574H29.7754C29.4411 6.13574 29.1699 5.86899 29.1699 5.54004Z" stroke="url(&quot;#paint12_linear_1662_5007&quot;)" stroke-width="2px" stroke-miterlimit="10" stroke-linecap="round" stroke-linejoin="round" fill="none"></path><path d="M46.2193 57.4854H34.498" stroke="url(&quot;#paint13_linear_1662_5007&quot;)" stroke-width="2px" stroke-miterlimit="10" stroke-linecap="round" stroke-linejoin="round" fill="none"></path><path d="M56.5981 57.4854H50.458" stroke="url(&quot;#paint14_linear_1662_5007&quot;)" stroke-width="2px" stroke-miterlimit="10" stroke-linecap="round" stroke-linejoin="round" fill="none"></path><path d="M29.1699 57.4854H7.07031" stroke="url(&quot;#paint15_linear_1662_5007&quot;)" stroke-width="2px" stroke-miterlimit="10" stroke-linecap="round" stroke-linejoin="round" fill="none"></path><path d="M1.74219 57.4854C1.74219 56.0378 2.93496 54.8643 4.40625 54.8643C5.87754 54.8643 7.07031 56.0378 7.07031 57.4854C7.07031 58.9329 5.87754 60.1064 4.40625 60.1064C2.93496 60.1064 1.74219 58.9329 1.74219 57.4854Z" stroke="url(&quot;#paint16_linear_1662_5007&quot;)" stroke-width="2px" stroke-miterlimit="10" stroke-linecap="round" stroke-linejoin="round" fill="none"></path><path d="M56.5977 57.4854C56.5977 56.0378 57.7904 54.8643 59.2617 54.8643C60.733 54.8643 61.9258 56.0378 61.9258 57.4854C61.9258 58.9329 60.733 60.1064 59.2617 60.1064C57.7904 60.1064 56.5977 58.9329 56.5977 57.4854Z" stroke="url(&quot;#paint17_linear_1662_5007&quot;)" stroke-width="2px" stroke-miterlimit="10" stroke-linecap="round" stroke-linejoin="round" fill="none"></path><path d="M29.1699 59.5107V55.46C29.1699 55.131 29.4411 54.8643 29.7754 54.8643H33.8926C34.2269 54.8643 34.498 55.131 34.498 55.46V59.5107C34.498 59.8397 34.2269 60.1064 33.8926 60.1064H29.7754C29.4411 60.1064 29.1699 59.8397 29.1699 59.5107Z" stroke="url(&quot;#paint18_linear_1662_5007&quot;)" stroke-width="2px" stroke-miterlimit="10" stroke-linecap="round" stroke-linejoin="round" fill="none"></path></g><defs><linearGradient id="paint0_linear_1662_5007" x1="6.03423" y1="50.0556" x2="33.9678" y2="34.7082" gradientUnits="userSpaceOnUse"><stop stop-color="#52D8EA"></stop><stop offset="1" stop-color="#916AFF"></stop></linearGradient><linearGradient id="paint1_linear_1662_5007" x1="15.6013" y1="8.52516" x2="18.5597" y2="1.15319" gradientUnits="userSpaceOnUse"><stop stop-color="#52D8EA"></stop><stop offset="1" stop-color="#916AFF"></stop></linearGradient><linearGradient id="paint2_linear_1662_5007" x1="36.126" y1="48.6549" x2="66.1182" y2="34.8287" gradientUnits="userSpaceOnUse"><stop stop-color="#52D8EA"></stop><stop offset="1" stop-color="#916AFF"></stop></linearGradient><linearGradient id="paint3_linear_1662_5007" x1="13.3898" y1="44.6221" x2="44.068" y2="13.441" gradientUnits="userSpaceOnUse"><stop stop-color="#52D8EA"></stop><stop offset="1" stop-color="#916AFF"></stop></linearGradient><linearGradient id="paint4_linear_1662_5007" x1="15.5926" y1="33.1205" x2="19.1898" y2="31.8402" gradientUnits="userSpaceOnUse"><stop stop-color="#52D8EA"></stop><stop offset="1" stop-color="#916AFF"></stop></linearGradient><linearGradient id="paint5_linear_1662_5007" x1="30.7561" y1="33.1204" x2="36.4414" y2="27.7371" gradientUnits="userSpaceOnUse"><stop stop-color="#52D8EA"></stop><stop offset="1" stop-color="#916AFF"></stop></linearGradient><linearGradient id="paint6_linear_1662_5007" x1="20.1509" y1="33.1204" x2="25.8439" y2="27.3341" gradientUnits="userSpaceOnUse"><stop stop-color="#52D8EA"></stop><stop offset="1" stop-color="#916AFF"></stop></linearGradient><linearGradient id="paint7_linear_1662_5007" x1="40.8931" y1="33.1204" x2="46.5861" y2="27.3341" gradientUnits="userSpaceOnUse"><stop stop-color="#52D8EA"></stop><stop offset="1" stop-color="#916AFF"></stop></linearGradient><linearGradient id="paint8_linear_1662_5007" x1="35.9509" y1="4.35261" x2="36.0172" y2="2.88709" gradientUnits="userSpaceOnUse"><stop stop-color="#52D8EA"></stop><stop offset="1" stop-color="#916AFF"></stop></linearGradient><linearGradient id="paint9_linear_1662_5007" x1="8.52316" y1="4.35261" x2="8.58947" y2="2.88709" gradientUnits="userSpaceOnUse"><stop stop-color="#52D8EA"></stop><stop offset="1" stop-color="#916AFF"></stop></linearGradient><linearGradient id="paint10_linear_1662_5007" x1="2.09246" y1="5.28631" x2="5.94108" y2="1.37461" gradientUnits="userSpaceOnUse"><stop stop-color="#52D8EA"></stop><stop offset="1" stop-color="#916AFF"></stop></linearGradient><linearGradient id="paint11_linear_1662_5007" x1="56.9479" y1="5.28631" x2="60.7965" y2="1.37461" gradientUnits="userSpaceOnUse"><stop stop-color="#52D8EA"></stop><stop offset="1" stop-color="#916AFF"></stop></linearGradient><linearGradient id="paint12_linear_1662_5007" x1="29.5202" y1="5.28631" x2="33.3688" y2="1.37461" gradientUnits="userSpaceOnUse"><stop stop-color="#52D8EA"></stop><stop offset="1" stop-color="#916AFF"></stop></linearGradient><linearGradient id="paint13_linear_1662_5007" x1="35.2686" y1="58.3233" x2="35.393" y2="56.8654" gradientUnits="userSpaceOnUse"><stop stop-color="#52D8EA"></stop><stop offset="1" stop-color="#916AFF"></stop></linearGradient><linearGradient id="paint14_linear_1662_5007" x1="50.8617" y1="58.3233" x2="51.0946" y2="56.8927" gradientUnits="userSpaceOnUse"><stop stop-color="#52D8EA"></stop><stop offset="1" stop-color="#916AFF"></stop></linearGradient><linearGradient id="paint15_linear_1662_5007" x1="8.52316" y1="58.3233" x2="8.58947" y2="56.8578" gradientUnits="userSpaceOnUse"><stop stop-color="#52D8EA"></stop><stop offset="1" stop-color="#916AFF"></stop></linearGradient><linearGradient id="paint16_linear_1662_5007" x1="2.09246" y1="59.257" x2="5.94108" y2="55.3453" gradientUnits="userSpaceOnUse"><stop stop-color="#52D8EA"></stop><stop offset="1" stop-color="#916AFF"></stop></linearGradient><linearGradient id="paint17_linear_1662_5007" x1="56.9479" y1="59.257" x2="60.7965" y2="55.3453" gradientUnits="userSpaceOnUse"><stop stop-color="#52D8EA"></stop><stop offset="1" stop-color="#916AFF"></stop></linearGradient><linearGradient id="paint18_linear_1662_5007" x1="29.5202" y1="59.257" x2="33.3688" y2="55.3453" gradientUnits="userSpaceOnUse"><stop stop-color="#52D8EA"></stop><stop offset="1" stop-color="#916AFF"></stop></linearGradient><clipPath id="clip0_1662_5007"><rect width="62" height="61" fill="white" transform="translate(0.833984)"></rect></clipPath><linearGradient id="paint0_linear_1662_5007" x1="6.03423" y1="50.0556" x2="33.9678" y2="34.7082" gradientUnits="userSpaceOnUse"><stop stop-color="#52D8EA"></stop><stop offset="1" stop-color="#916AFF"></stop></linearGradient><linearGradient id="paint1_linear_1662_5007" x1="15.6013" y1="8.52516" x2="18.5597" y2="1.15319" gradientUnits="userSpaceOnUse"><stop stop-color="#52D8EA"></stop><stop offset="1" stop-color="#916AFF"></stop></linearGradient><linearGradient id="paint2_linear_1662_5007" x1="36.126" y1="48.6549" x2="66.1182" y2="34.8287" gradientUnits="userSpaceOnUse"><stop stop-color="#52D8EA"></stop><stop offset="1" stop-color="#916AFF"></stop></linearGradient><linearGradient id="paint3_linear_1662_5007" x1="13.3898" y1="44.6221" x2="44.068" y2="13.441" gradientUnits="userSpaceOnUse"><stop stop-color="#52D8EA"></stop><stop offset="1" stop-color="#916AFF"></stop></linearGradient><linearGradient id="paint4_linear_1662_5007" x1="15.5926" y1="33.1205" x2="19.1898" y2="31.8402" gradientUnits="userSpaceOnUse"><stop stop-color="#52D8EA"></stop><stop offset="1" stop-color="#916AFF"></stop></linearGradient><linearGradient id="paint5_linear_1662_5007" x1="30.7561" y1="33.1204" x2="36.4414" y2="27.7371" gradientUnits="userSpaceOnUse"><stop stop-color="#52D8EA"></stop><stop offset="1" stop-color="#916AFF"></stop></linearGradient><linearGradient id="paint6_linear_1662_5007" x1="20.1509" y1="33.1204" x2="25.8439" y2="27.3341" gradientUnits="userSpaceOnUse"><stop stop-color="#52D8EA"></stop><stop offset="1" stop-color="#916AFF"></stop></linearGradient><linearGradient id="paint7_linear_1662_5007" x1="40.8931" y1="33.1204" x2="46.5861" y2="27.3341" gradientUnits="userSpaceOnUse"><stop stop-color="#52D8EA"></stop><stop offset="1" stop-color="#916AFF"></stop></linearGradient><linearGradient id="paint8_linear_1662_5007" x1="35.9509" y1="4.35261" x2="36.0172" y2="2.88709" gradientUnits="userSpaceOnUse"><stop stop-color="#52D8EA"></stop><stop offset="1" stop-color="#916AFF"></stop></linearGradient><linearGradient id="paint9_linear_1662_5007" x1="8.52316" y1="4.35261" x2="8.58947" y2="2.88709" gradientUnits="userSpaceOnUse"><stop stop-color="#52D8EA"></stop><stop offset="1" stop-color="#916AFF"></stop></linearGradient><linearGradient id="paint10_linear_1662_5007" x1="2.09246" y1="5.28631" x2="5.94108" y2="1.37461" gradientUnits="userSpaceOnUse"><stop stop-color="#52D8EA"></stop><stop offset="1" stop-color="#916AFF"></stop></linearGradient><linearGradient id="paint11_linear_1662_5007" x1="56.9479" y1="5.28631" x2="60.7965" y2="1.37461" gradientUnits="userSpaceOnUse"><stop stop-color="#52D8EA"></stop><stop offset="1" stop-color="#916AFF"></stop></linearGradient><linearGradient id="paint12_linear_1662_5007" x1="29.5202" y1="5.28631" x2="33.3688" y2="1.37461" gradientUnits="userSpaceOnUse"><stop stop-color="#52D8EA"></stop><stop offset="1" stop-color="#916AFF"></stop></linearGradient><linearGradient id="paint13_linear_1662_5007" x1="35.2686" y1="58.3233" x2="35.393" y2="56.8654" gradientUnits="userSpaceOnUse"><stop stop-color="#52D8EA"></stop><stop offset="1" stop-color="#916AFF"></stop></linearGradient><linearGradient id="paint14_linear_1662_5007" x1="50.8617" y1="58.3233" x2="51.0946" y2="56.8927" gradientUnits="userSpaceOnUse"><stop stop-color="#52D8EA"></stop><stop offset="1" stop-color="#916AFF"></stop></linearGradient><linearGradient id="paint15_linear_1662_5007" x1="8.52316" y1="58.3233" x2="8.58947" y2="56.8578" gradientUnits="userSpaceOnUse"><stop stop-color="#52D8EA"></stop><stop offset="1" stop-color="#916AFF"></stop></linearGradient><linearGradient id="paint16_linear_1662_5007" x1="2.09246" y1="59.257" x2="5.94108" y2="55.3453" gradientUnits="userSpaceOnUse"><stop stop-color="#52D8EA"></stop><stop offset="1" stop-color="#916AFF"></stop></linearGradient><linearGradient id="paint17_linear_1662_5007" x1="56.9479" y1="59.257" x2="60.7965" y2="55.3453" gradientUnits="userSpaceOnUse"><stop stop-color="#52D8EA"></stop><stop offset="1" stop-color="#916AFF"></stop></linearGradient><linearGradient id="paint18_linear_1662_5007" x1="29.5202" y1="59.257" x2="33.3688" y2="55.3453" gradientUnits="userSpaceOnUse"><stop stop-color="#52D8EA"></stop><stop offset="1" stop-color="#916AFF"></stop></linearGradient></defs></svg>