<svg xmlns:xlink="http://www.w3.org/1999/xlink" xmlns="http://www.w3.org/2000/svg" width="63" height="61" viewBox="0 0 63 61" fill="none"><g clip-path="url(#clip0_1662_6311)" fill="none"><mask id="mask0_1662_6311" style="mask-type:luminance" maskUnits="userSpaceOnUse" x="0" y="0" width="63" height="61" fill="none"><path d="M0.833984 7.62939e-06H62.834V61H0.833984V7.62939e-06Z" fill="#FFFFFF"></path></mask><g mask="url(#mask0_1662_6311)" fill="none"><path d="M50.7246 57.3066C50.7246 51.3842 55.6035 46.584 61.623 46.584C55.6035 46.584 50.7246 41.7838 50.7246 35.8613C50.7246 41.7838 45.8457 46.584 39.8262 46.584C45.8457 46.584 50.7246 51.3842 50.7246 57.3066Z" stroke="url(&quot;#paint0_linear_1662_6311&quot;)" stroke-width="2px" stroke-miterlimit="10" stroke-linecap="round" stroke-linejoin="round" fill="none"></path><path d="M2.04492 10.8418C6.05797 10.8418 9.31055 7.64168 9.31055 3.69336C9.31055 7.64168 12.5631 10.8418 16.5762 10.8418C12.5631 10.8418 9.31055 14.0419 9.31055 17.9902C9.31055 14.0419 6.05797 10.8418 2.04492 10.8418Z" stroke="url(&quot;#paint1_linear_1662_6311&quot;)" stroke-width="2px" stroke-miterlimit="10" stroke-linecap="round" stroke-linejoin="round" fill="none"></path><path d="M34.6191 36.2188C33.9509 36.2188 33.4082 35.6848 33.4082 35.0273C33.4082 34.3699 33.9509 33.8359 34.6191 33.8359C35.2873 33.8359 35.8301 34.3699 35.8301 35.0273C35.8301 35.6848 35.2873 36.2188 34.6191 36.2188Z" fill="url(&quot;#paint2_linear_1662_6311&quot;)"></path><path d="M31.2395 39.2303C29.3094 42.4305 28.2012 46.1671 28.2012 50.1582C28.2012 38.3144 18.4422 28.7129 6.4043 28.7129C18.4422 28.7129 28.2012 19.1113 28.2012 7.26758C28.2012 19.1113 37.9601 28.7129 49.998 28.7129C45.9415 28.7129 42.1438 29.8031 38.8911 31.7021" stroke="url(&quot;#paint3_linear_1662_6311&quot;)" stroke-width="2px" stroke-miterlimit="10" stroke-linecap="round" stroke-linejoin="round" fill="none"></path></g></g><defs><linearGradient id="paint0_linear_1662_6311" x1="41.2591" y1="39.3363" x2="57.0035" y2="55.3387" gradientUnits="userSpaceOnUse"><stop stop-color="#52D8EA"></stop><stop offset="1" stop-color="#916AFF"></stop></linearGradient><linearGradient id="paint1_linear_1662_6311" x1="3.00022" y1="6.00998" x2="13.4964" y2="16.6783" gradientUnits="userSpaceOnUse"><stop stop-color="#52D8EA"></stop><stop offset="1" stop-color="#916AFF"></stop></linearGradient><linearGradient id="paint2_linear_1662_6311" x1="33.5674" y1="34.222" x2="35.3168" y2="36.0001" gradientUnits="userSpaceOnUse"><stop stop-color="#52D8EA"></stop><stop offset="1" stop-color="#916AFF"></stop></linearGradient><linearGradient id="paint3_linear_1662_6311" x1="9.27018" y1="14.2174" x2="40.7589" y2="46.2223" gradientUnits="userSpaceOnUse"><stop stop-color="#52D8EA"></stop><stop offset="1" stop-color="#916AFF"></stop></linearGradient><clipPath id="clip0_1662_6311"><rect width="62" height="61" fill="white" transform="translate(0.833984)"></rect></clipPath><linearGradient id="paint0_linear_1662_6311" x1="41.2591" y1="39.3363" x2="57.0035" y2="55.3387" gradientUnits="userSpaceOnUse"><stop stop-color="#52D8EA"></stop><stop offset="1" stop-color="#916AFF"></stop></linearGradient><linearGradient id="paint1_linear_1662_6311" x1="3.00022" y1="6.00998" x2="13.4964" y2="16.6783" gradientUnits="userSpaceOnUse"><stop stop-color="#52D8EA"></stop><stop offset="1" stop-color="#916AFF"></stop></linearGradient><linearGradient id="paint2_linear_1662_6311" x1="33.5674" y1="34.222" x2="35.3168" y2="36.0001" gradientUnits="userSpaceOnUse"><stop stop-color="#52D8EA"></stop><stop offset="1" stop-color="#916AFF"></stop></linearGradient><linearGradient id="paint3_linear_1662_6311" x1="9.27018" y1="14.2174" x2="40.7589" y2="46.2223" gradientUnits="userSpaceOnUse"><stop stop-color="#52D8EA"></stop><stop offset="1" stop-color="#916AFF"></stop></linearGradient></defs></svg>