<svg xmlns="http://www.w3.org/2000/svg" width="180" height="272" viewBox="0 0 180 272" fill="none"><path d="M0.5 215C0.5 193.185 18.1848 175.5 40 175.5C61.8152 175.5 79.5 193.185 79.5 215V266.862C79.5 268.871 77.8712 270.5 75.8621 270.5H4.13793C2.12876 270.5 0.5 268.871 0.5 266.862V215Z" fill="#1A1525" fill-opacity="0.7"></path><path d="M0.5 215C0.5 193.185 18.1848 175.5 40 175.5C61.8152 175.5 79.5 193.185 79.5 215V266.862C79.5 268.871 77.8712 270.5 75.8621 270.5H4.13793C2.12876 270.5 0.5 268.871 0.5 266.862V215Z" stroke="#1A1525"></path><path d="M26.4367 208.192C25.4234 208.192 24.5487 207.947 23.8127 207.456C23.0767 206.965 22.5114 206.288 22.1167 205.424C21.7327 204.549 21.5407 203.541 21.5407 202.4C21.5407 201.259 21.7327 200.256 22.1167 199.392C22.5114 198.517 23.0714 197.835 23.7967 197.344C24.5327 196.853 25.4127 196.608 26.4367 196.608C27.4607 196.608 28.3354 196.853 29.0607 197.344C29.7967 197.835 30.3567 198.517 30.7407 199.392C31.1354 200.256 31.3327 201.259 31.3327 202.4C31.3327 203.541 31.1354 204.549 30.7407 205.424C30.3567 206.288 29.7967 206.965 29.0607 207.456C28.3354 207.947 27.4607 208.192 26.4367 208.192ZM26.4367 206.256C26.97 206.256 27.4394 206.101 27.8447 205.792C28.25 205.472 28.5647 205.024 28.7887 204.448C29.0234 203.872 29.1407 203.189 29.1407 202.4C29.1407 201.6 29.0234 200.917 28.7887 200.352C28.5647 199.776 28.25 199.333 27.8447 199.024C27.4394 198.715 26.97 198.56 26.4367 198.56C25.9034 198.56 25.434 198.715 25.0287 199.024C24.6234 199.333 24.3034 199.776 24.0687 200.352C23.8447 200.917 23.7327 201.6 23.7327 202.4C23.7327 203.189 23.8447 203.872 24.0687 204.448C24.3034 205.024 24.6234 205.472 25.0287 205.792C25.434 206.101 25.9034 206.256 26.4367 206.256ZM31.9379 209.968L32.8499 205.904H34.9299L33.3459 209.968H31.9379ZM36.3234 208V206.416C37.0061 205.872 37.6674 205.328 38.3074 204.784C38.9581 204.24 39.5394 203.701 40.0514 203.168C40.5634 202.624 40.9688 202.096 41.2674 201.584C41.5661 201.072 41.7154 200.576 41.7154 200.096C41.7154 199.797 41.6621 199.525 41.5554 199.28C41.4488 199.024 41.2781 198.821 41.0434 198.672C40.8194 198.512 40.5208 198.432 40.1474 198.432C39.7741 198.432 39.4594 198.517 39.2034 198.688C38.9474 198.859 38.7554 199.088 38.6274 199.376C38.4994 199.653 38.4354 199.968 38.4354 200.32H36.3394C36.3714 199.499 36.5581 198.811 36.8994 198.256C37.2408 197.701 37.6994 197.291 38.2754 197.024C38.8514 196.747 39.4968 196.608 40.2114 196.608C41.0008 196.608 41.6674 196.757 42.2114 197.056C42.7554 197.344 43.1661 197.739 43.4434 198.24C43.7314 198.741 43.8754 199.317 43.8754 199.968C43.8754 200.459 43.7848 200.939 43.6034 201.408C43.4328 201.877 43.1874 202.336 42.8674 202.784C42.5581 203.221 42.2061 203.643 41.8114 204.048C41.4168 204.453 41.0061 204.843 40.5794 205.216C40.1528 205.579 39.7368 205.92 39.3314 206.24H44.1474V208H36.3234ZM47.7498 208L54.0378 196.8H56.1338L49.8458 208H47.7498ZM55.7498 208.192C55.2271 208.192 54.7525 208.08 54.3258 207.856C53.9098 207.621 53.5791 207.291 53.3338 206.864C53.0885 206.427 52.9658 205.915 52.9658 205.328C52.9658 204.731 53.0885 204.219 53.3338 203.792C53.5791 203.365 53.9098 203.04 54.3258 202.816C54.7525 202.581 55.2271 202.464 55.7498 202.464C56.2725 202.464 56.7418 202.581 57.1578 202.816C57.5738 203.04 57.9045 203.365 58.1498 203.792C58.3951 204.219 58.5178 204.731 58.5178 205.328C58.5178 205.915 58.3951 206.427 58.1498 206.864C57.9045 207.291 57.5738 207.621 57.1578 207.856C56.7418 208.08 56.2725 208.192 55.7498 208.192ZM55.7338 206.704C55.9471 206.704 56.1338 206.651 56.2938 206.544C56.4538 206.437 56.5818 206.283 56.6778 206.08C56.7738 205.877 56.8218 205.627 56.8218 205.328C56.8218 205.019 56.7738 204.763 56.6778 204.56C56.5925 204.347 56.4645 204.187 56.2938 204.08C56.1338 203.973 55.9471 203.92 55.7338 203.92C55.5311 203.92 55.3445 203.973 55.1738 204.08C55.0138 204.187 54.8858 204.347 54.7898 204.56C54.6938 204.763 54.6458 205.019 54.6458 205.328C54.6458 205.627 54.6938 205.877 54.7898 206.08C54.8858 206.283 55.0138 206.437 55.1738 206.544C55.3445 206.651 55.5311 206.704 55.7338 206.704ZM48.2138 202.352C47.7018 202.352 47.2325 202.235 46.8058 202C46.3791 201.765 46.0431 201.435 45.7978 201.008C45.5525 200.581 45.4298 200.075 45.4298 199.488C45.4298 198.88 45.5525 198.368 45.7978 197.952C46.0538 197.525 46.3898 197.195 46.8058 196.96C47.2325 196.725 47.7071 196.608 48.2298 196.608C48.7525 196.608 49.2165 196.725 49.6218 196.96C50.0378 197.195 50.3685 197.525 50.6138 197.952C50.8698 198.368 50.9978 198.88 50.9978 199.488C50.9978 200.075 50.8698 200.581 50.6138 201.008C50.3685 201.435 50.0378 201.765 49.6218 202C49.2058 202.235 48.7365 202.352 48.2138 202.352ZM48.2138 200.864C48.4165 200.864 48.5978 200.811 48.7578 200.704C48.9285 200.597 49.0618 200.443 49.1578 200.24C49.2538 200.037 49.3018 199.787 49.3018 199.488C49.3018 199.168 49.2538 198.907 49.1578 198.704C49.0618 198.501 48.9285 198.347 48.7578 198.24C48.5978 198.133 48.4165 198.08 48.2138 198.08C48.0111 198.08 47.8245 198.133 47.6538 198.24C47.4938 198.347 47.3658 198.507 47.2698 198.72C47.1738 198.923 47.1258 199.179 47.1258 199.488C47.1258 199.787 47.1738 200.037 47.2698 200.24C47.3658 200.443 47.4938 200.597 47.6538 200.704C47.8245 200.811 48.0111 200.864 48.2138 200.864Z" fill="white"></path><path d="M20.7212 256V244.8H25.3132C26.0919 244.8 26.7479 244.923 27.2812 245.168C27.8145 245.413 28.2145 245.755 28.4812 246.192C28.7585 246.619 28.8972 247.115 28.8972 247.68C28.8972 248.245 28.7745 248.72 28.5292 249.104C28.2839 249.488 27.9585 249.787 27.5532 250C27.1585 250.203 26.7212 250.32 26.2412 250.352L26.4972 250.176C27.0092 250.197 27.4625 250.336 27.8572 250.592C28.2625 250.837 28.5772 251.168 28.8012 251.584C29.0359 252 29.1532 252.453 29.1532 252.944C29.1532 253.541 29.0092 254.069 28.7212 254.528C28.4332 254.987 28.0172 255.349 27.4732 255.616C26.9292 255.872 26.2625 256 25.4732 256H20.7212ZM22.8812 254.24H25.1212C25.7079 254.24 26.1612 254.107 26.4812 253.84C26.8012 253.573 26.9612 253.189 26.9612 252.688C26.9612 252.187 26.7959 251.797 26.4652 251.52C26.1345 251.232 25.6759 251.088 25.0892 251.088H22.8812V254.24ZM22.8812 249.472H24.9612C25.5265 249.472 25.9532 249.344 26.2412 249.088C26.5399 248.832 26.6892 248.469 26.6892 248C26.6892 247.541 26.5399 247.184 26.2412 246.928C25.9532 246.661 25.5212 246.528 24.9452 246.528H22.8812V249.472ZM33.3359 256V252.064L29.5599 244.8H32.0079L34.6479 250.336H34.2159L36.8399 244.8H39.2719L35.4959 252.064V256H33.3359ZM39.8602 251.744V249.952L44.7402 248.352V250.144L39.8602 251.744ZM40.9802 256V244.8H43.1402V254.32H48.0522V256H40.9802ZM54.1079 256.192C53.0199 256.192 52.0599 255.947 51.2279 255.456C50.3959 254.965 49.7453 254.288 49.2759 253.424C48.8066 252.549 48.5719 251.541 48.5719 250.4C48.5719 249.259 48.8066 248.256 49.2759 247.392C49.7453 246.517 50.3959 245.835 51.2279 245.344C52.0599 244.853 53.0199 244.608 54.1079 244.608C55.2066 244.608 56.1719 244.853 57.0039 245.344C57.8359 245.835 58.4813 246.517 58.9399 247.392C59.4093 248.256 59.6439 249.259 59.6439 250.4C59.6439 251.541 59.4093 252.549 58.9399 253.424C58.4813 254.288 57.8359 254.965 57.0039 255.456C56.1719 255.947 55.2066 256.192 54.1079 256.192ZM54.1079 254.256C54.7906 254.256 55.3773 254.101 55.8679 253.792C56.3693 253.472 56.7586 253.024 57.0359 252.448C57.3133 251.872 57.4519 251.189 57.4519 250.4C57.4519 249.6 57.3133 248.917 57.0359 248.352C56.7586 247.776 56.3693 247.333 55.8679 247.024C55.3773 246.715 54.7906 246.56 54.1079 246.56C53.4359 246.56 52.8493 246.715 52.3479 247.024C51.8466 247.333 51.4573 247.776 51.1799 248.352C50.9026 248.917 50.7639 249.6 50.7639 250.4C50.7639 251.189 50.9026 251.872 51.1799 252.448C51.4573 253.024 51.8466 253.472 52.3479 253.792C52.8493 254.101 53.4359 254.256 54.1079 254.256Z" fill="white"></path><path d="M100.408 40.2031C100.408 18.3879 118.093 0.703125 139.908 0.703125C161.723 0.703125 179.408 18.3879 179.408 40.2031V266.203C179.408 268.688 177.393 270.703 174.908 270.703H104.908C102.423 270.703 100.408 268.688 100.408 266.203V40.2031Z" fill="url(#paint0_linear_1648_20240)" fill-opacity="0.8"></path><path d="M100.408 40.2031C100.408 18.3879 118.093 0.703125 139.908 0.703125C161.723 0.703125 179.408 18.3879 179.408 40.2031V266.203C179.408 268.688 177.393 270.703 174.908 270.703H104.908C102.423 270.703 100.408 268.688 100.408 266.203V40.2031Z" stroke="url(#paint1_linear_1648_20240)"></path><path d="M132.908 22.7031L139.908 15.7031L146.908 22.7031" stroke="white" stroke-linecap="round" stroke-linejoin="round"></path><g opacity="0.7"><path d="M135.241 41.5366L139.908 36.87L144.574 41.5366" stroke="white" stroke-linecap="round" stroke-linejoin="round"></path></g><g opacity="0.5"><path d="M135.826 56.2446L139.909 52.1613L143.992 56.2446" stroke="white" stroke-linecap="round" stroke-linejoin="round"></path></g><path d="M115.118 86.2031V75.4231L112.618 76.0831V73.8431L116.318 72.2031H117.998V86.2031H115.118ZM119.861 88.6631L121.001 83.5231H123.681L121.681 88.6631H119.861ZM130.82 86.4431C129.793 86.4431 128.907 86.2631 128.16 85.9031C127.427 85.5431 126.847 85.0498 126.42 84.4231C126.007 83.7965 125.773 83.0765 125.72 82.2631H128.44C128.547 82.7698 128.813 83.1965 129.24 83.5431C129.667 83.8898 130.2 84.0631 130.84 84.0631C131.293 84.0631 131.693 83.9498 132.04 83.7231C132.387 83.4831 132.66 83.1631 132.86 82.7631C133.06 82.3631 133.16 81.9165 133.16 81.4231C133.16 80.8898 133.06 80.4365 132.86 80.0631C132.66 79.6898 132.387 79.4031 132.04 79.2031C131.693 79.0031 131.3 78.9031 130.86 78.9031C130.327 78.9031 129.86 79.0365 129.46 79.3031C129.06 79.5698 128.773 79.8898 128.6 80.2631H125.9L127.06 72.2031H134.96V74.6631H129.14L128.58 77.6431C128.86 77.3498 129.24 77.1098 129.72 76.9231C130.213 76.7231 130.76 76.6231 131.36 76.6231C132.12 76.6231 132.78 76.7565 133.34 77.0231C133.9 77.2898 134.367 77.6498 134.74 78.1031C135.113 78.5431 135.393 79.0498 135.58 79.6231C135.767 80.1831 135.86 80.7698 135.86 81.3831C135.86 82.1298 135.733 82.8165 135.48 83.4431C135.24 84.0565 134.893 84.5898 134.44 85.0431C133.987 85.4831 133.453 85.8298 132.84 86.0831C132.227 86.3231 131.553 86.4431 130.82 86.4431ZM144.661 86.2031V83.7231H137.801V81.4831L144.301 72.2031H147.461V81.2831H149.241V83.7231H147.461V86.2031H144.661ZM140.781 81.2831H144.841V75.2831L140.781 81.2831ZM153.377 86.2031L161.217 72.2031H163.937L156.097 86.2031H153.377ZM163.497 86.4431C162.843 86.4431 162.25 86.2965 161.717 86.0031C161.183 85.7098 160.757 85.2965 160.437 84.7631C160.13 84.2165 159.977 83.5765 159.977 82.8431C159.977 82.0831 160.13 81.4365 160.437 80.9031C160.757 80.3698 161.183 79.9631 161.717 79.6831C162.25 79.3898 162.843 79.2431 163.497 79.2431C164.15 79.2431 164.737 79.3898 165.257 79.6831C165.79 79.9631 166.21 80.3698 166.517 80.9031C166.823 81.4365 166.977 82.0831 166.977 82.8431C166.977 83.5765 166.823 84.2165 166.517 84.7631C166.21 85.2965 165.79 85.7098 165.257 86.0031C164.737 86.2965 164.15 86.4431 163.497 86.4431ZM163.477 84.5431C163.73 84.5431 163.957 84.4765 164.157 84.3431C164.357 84.2098 164.51 84.0165 164.617 83.7631C164.737 83.5098 164.797 83.2031 164.797 82.8431C164.797 82.4565 164.737 82.1431 164.617 81.9031C164.51 81.6498 164.357 81.4565 164.157 81.3231C163.957 81.1898 163.73 81.1231 163.477 81.1231C163.223 81.1231 162.997 81.1898 162.797 81.3231C162.597 81.4565 162.437 81.6498 162.317 81.9031C162.21 82.1431 162.157 82.4565 162.157 82.8431C162.157 83.2031 162.21 83.5098 162.317 83.7631C162.437 84.0165 162.597 84.2098 162.797 84.3431C162.997 84.4765 163.223 84.5431 163.477 84.5431ZM153.917 79.1831C153.263 79.1831 152.67 79.0365 152.137 78.7431C151.603 78.4498 151.177 78.0365 150.857 77.5031C150.55 76.9565 150.397 76.3165 150.397 75.5831C150.397 74.8231 150.55 74.1765 150.857 73.6431C151.177 73.1098 151.603 72.6965 152.137 72.4031C152.67 72.1098 153.263 71.9631 153.917 71.9631C154.57 71.9631 155.157 72.1098 155.677 72.4031C156.21 72.6965 156.63 73.1098 156.937 73.6431C157.243 74.1765 157.397 74.8231 157.397 75.5831C157.397 76.3165 157.243 76.9565 156.937 77.5031C156.63 78.0365 156.21 78.4498 155.677 78.7431C155.157 79.0365 154.57 79.1831 153.917 79.1831ZM153.897 77.2831C154.15 77.2831 154.377 77.2165 154.577 77.0831C154.777 76.9498 154.93 76.7565 155.037 76.5031C155.157 76.2498 155.217 75.9431 155.217 75.5831C155.217 75.1965 155.157 74.8765 155.037 74.6231C154.93 74.3698 154.777 74.1765 154.577 74.0431C154.377 73.9098 154.157 73.8431 153.917 73.8431C153.663 73.8431 153.43 73.9098 153.217 74.0431C153.017 74.1765 152.857 74.3698 152.737 74.6231C152.63 74.8765 152.577 75.1965 152.577 75.5831C152.577 75.9431 152.63 76.2498 152.737 76.5031C152.857 76.7565 153.017 76.9498 153.217 77.0831C153.417 77.2165 153.643 77.2831 153.897 77.2831Z" fill="white"></path><path d="M125.465 256.395C124.74 256.395 124.1 256.256 123.545 255.979C123.001 255.702 122.58 255.296 122.281 254.763C121.982 254.219 121.833 253.563 121.833 252.795H123.993C123.993 253.136 124.041 253.435 124.137 253.691C124.244 253.936 124.398 254.128 124.601 254.267C124.814 254.395 125.086 254.459 125.417 254.459C125.737 254.459 125.993 254.4 126.185 254.283C126.388 254.155 126.532 253.979 126.617 253.755C126.713 253.52 126.761 253.243 126.761 252.923V245.003H128.921V252.923C128.921 254.043 128.606 254.902 127.977 255.499C127.358 256.096 126.521 256.395 125.465 256.395ZM131.129 256.203V245.003H138.489V246.747H133.289V249.675H138.009V251.355H133.289V254.459H138.489V256.203H131.129ZM144.314 256.395C143.503 256.395 142.778 256.256 142.138 255.979C141.508 255.702 141.007 255.296 140.634 254.763C140.271 254.23 140.084 253.584 140.074 252.827H142.362C142.372 253.158 142.458 253.456 142.618 253.723C142.778 253.99 142.996 254.203 143.274 254.363C143.562 254.512 143.903 254.587 144.298 254.587C144.639 254.587 144.932 254.534 145.178 254.427C145.434 254.31 145.631 254.15 145.77 253.947C145.908 253.744 145.978 253.504 145.978 253.227C145.978 252.907 145.898 252.64 145.738 252.427C145.588 252.214 145.375 252.032 145.098 251.883C144.831 251.734 144.516 251.6 144.154 251.483C143.802 251.355 143.428 251.222 143.034 251.083C142.148 250.795 141.471 250.411 141.002 249.931C140.543 249.451 140.314 248.816 140.314 248.027C140.314 247.355 140.474 246.779 140.794 246.299C141.124 245.819 141.578 245.451 142.154 245.195C142.73 244.939 143.386 244.811 144.122 244.811C144.879 244.811 145.54 244.944 146.106 245.211C146.682 245.467 147.135 245.84 147.466 246.331C147.807 246.822 147.983 247.398 147.994 248.059H145.69C145.679 247.814 145.604 247.584 145.466 247.371C145.338 247.147 145.156 246.971 144.922 246.843C144.687 246.704 144.41 246.635 144.09 246.635C143.812 246.624 143.556 246.667 143.322 246.763C143.098 246.859 142.916 247.003 142.778 247.195C142.65 247.376 142.586 247.606 142.586 247.883C142.586 248.15 142.65 248.374 142.778 248.555C142.916 248.736 143.103 248.896 143.338 249.035C143.572 249.163 143.85 249.286 144.17 249.403C144.49 249.51 144.836 249.622 145.21 249.739C145.764 249.931 146.276 250.16 146.746 250.427C147.215 250.683 147.588 251.019 147.866 251.435C148.143 251.851 148.282 252.4 148.282 253.083C148.282 253.67 148.127 254.214 147.818 254.715C147.508 255.216 147.06 255.622 146.474 255.931C145.898 256.24 145.178 256.395 144.314 256.395ZM152.612 256.203V246.747H149.332V245.003H158.02V246.747H154.756V256.203H152.612Z" fill="white"></path><defs><linearGradient id="paint0_linear_1648_20240" x1="163.908" y1="271.203" x2="163.908" y2="0.203125" gradientUnits="userSpaceOnUse"><stop stop-color="#52D8EA"></stop><stop offset="1" stop-color="#916AFF"></stop></linearGradient><linearGradient id="paint1_linear_1648_20240" x1="163.908" y1="271.203" x2="163.908" y2="0.203125" gradientUnits="userSpaceOnUse"><stop stop-color="#52D8EA"></stop><stop offset="1" stop-color="#916AFF"></stop></linearGradient></defs></svg>