<svg xmlns:xlink="http://www.w3.org/1999/xlink" xmlns="http://www.w3.org/2000/svg" width="74" height="61" viewBox="0 0 74 61" fill="none"><path d="M28.7376 53.298C28.0641 53.298 27.5176 52.7527 27.5176 52.078V31.7369C27.5176 31.0622 28.0641 30.5168 28.7376 30.5168C29.411 30.5168 29.9576 31.0622 29.9576 31.7369V52.078C29.9576 52.7514 29.411 53.298 28.7376 53.298Z" fill="url(&quot;#paint0_linear_2675_11878&quot;)"></path><path d="M20.8743 53.298C20.2009 53.298 19.6543 52.7527 19.6543 52.078V31.7369C19.6543 31.0622 20.2009 30.5168 20.8743 30.5168C21.5477 30.5168 22.0943 31.0622 22.0943 31.7369V52.078C22.0943 52.7514 21.549 53.298 20.8743 53.298Z" fill="url(&quot;#paint1_linear_2675_11878&quot;)"></path><path d="M52.3255 53.298C51.652 53.298 51.1055 52.7527 51.1055 52.078V31.7369C51.1055 31.0622 51.652 30.5168 52.3255 30.5168C52.9989 30.5168 53.5455 31.0622 53.5455 31.7369V52.078C53.5455 52.7514 52.9989 53.298 52.3255 53.298Z" fill="url(&quot;#paint2_linear_2675_11878&quot;)"></path><path d="M44.4622 53.298C43.7887 53.298 43.2422 52.7527 43.2422 52.078V31.7369C43.2422 31.0622 43.7887 30.5168 44.4622 30.5168C45.1356 30.5168 45.6822 31.0622 45.6822 31.7369V52.078C45.6822 52.7514 45.1369 53.298 44.4622 53.298Z" fill="url(&quot;#paint3_linear_2675_11878&quot;)"></path><path d="M36.5989 53.298C35.9255 53.298 35.3789 52.7527 35.3789 52.078V31.7369C35.3789 31.0622 35.9255 30.5168 36.5989 30.5168C37.2724 30.5168 37.8189 31.0622 37.8189 31.7369V52.078C37.8189 52.7514 37.2724 53.298 36.5989 53.298Z" fill="url(&quot;#paint4_linear_2675_11878&quot;)"></path><path d="M71.9803 12.7586H52.2455L47.6509 0.782997C47.4094 0.153474 46.7054 -0.160067 46.0747 0.0814936C45.4452 0.323055 45.1316 1.02822 45.3732 1.65774L49.6322 12.7598H23.5681L27.8271 1.65774C28.0687 1.02822 27.7539 0.323055 27.1256 0.0814936C26.4948 -0.160067 25.7897 0.154694 25.5493 0.782997L20.9548 12.7586H1.22C0.546562 12.7586 0 13.3039 0 13.9786V24.0326C0 24.7073 0.546562 25.2526 1.22 25.2526H2.77917L7.61527 59.9471C7.69945 60.551 8.21429 61 8.82307 61H64.3772C64.986 61 65.5008 60.551 65.585 59.9484L70.4211 25.2539H71.9803C72.6537 25.2539 73.2003 24.7085 73.2003 24.0339V13.9798C73.2003 13.3039 72.6537 12.7586 71.9803 12.7586ZM63.3158 58.56H9.88448L5.24236 25.2526H67.9579L63.3158 58.56ZM70.7603 22.8126H2.44001V15.1986H20.0191L19.1651 17.4239C18.6026 18.8915 20.884 19.7565 21.4428 18.2986L22.6323 15.1986H50.568L51.7575 18.2986C52.3175 19.7553 54.5989 18.894 54.0352 17.4239L53.1812 15.1986H70.7603V22.8126Z" fill="url(&quot;#paint5_linear_2675_11878&quot;)"></path><defs><linearGradient id="paint0_linear_2675_11878" x1="27.678" y1="49.6066" x2="31.2205" y2="49.2272" gradientUnits="userSpaceOnUse"><stop stop-color="#52D8EA"></stop><stop offset="1" stop-color="#916AFF"></stop></linearGradient><linearGradient id="paint1_linear_2675_11878" x1="19.8147" y1="49.6066" x2="23.3573" y2="49.2272" gradientUnits="userSpaceOnUse"><stop stop-color="#52D8EA"></stop><stop offset="1" stop-color="#916AFF"></stop></linearGradient><linearGradient id="paint2_linear_2675_11878" x1="51.2659" y1="49.6066" x2="54.8084" y2="49.2272" gradientUnits="userSpaceOnUse"><stop stop-color="#52D8EA"></stop><stop offset="1" stop-color="#916AFF"></stop></linearGradient><linearGradient id="paint3_linear_2675_11878" x1="43.4026" y1="49.6066" x2="46.9452" y2="49.2272" gradientUnits="userSpaceOnUse"><stop stop-color="#52D8EA"></stop><stop offset="1" stop-color="#916AFF"></stop></linearGradient><linearGradient id="paint4_linear_2675_11878" x1="35.5393" y1="49.6066" x2="39.0819" y2="49.2272" gradientUnits="userSpaceOnUse"><stop stop-color="#52D8EA"></stop><stop offset="1" stop-color="#916AFF"></stop></linearGradient><linearGradient id="paint5_linear_2675_11878" x1="4.81224" y1="51.1157" x2="48.8678" y2="-1.7511" gradientUnits="userSpaceOnUse"><stop stop-color="#52D8EA"></stop><stop offset="1" stop-color="#916AFF"></stop></linearGradient><linearGradient id="paint0_linear_2675_11878" x1="27.678" y1="49.6066" x2="31.2205" y2="49.2272" gradientUnits="userSpaceOnUse"><stop stop-color="#52D8EA"></stop><stop offset="1" stop-color="#916AFF"></stop></linearGradient><linearGradient id="paint1_linear_2675_11878" x1="19.8147" y1="49.6066" x2="23.3573" y2="49.2272" gradientUnits="userSpaceOnUse"><stop stop-color="#52D8EA"></stop><stop offset="1" stop-color="#916AFF"></stop></linearGradient><linearGradient id="paint2_linear_2675_11878" x1="51.2659" y1="49.6066" x2="54.8084" y2="49.2272" gradientUnits="userSpaceOnUse"><stop stop-color="#52D8EA"></stop><stop offset="1" stop-color="#916AFF"></stop></linearGradient><linearGradient id="paint3_linear_2675_11878" x1="43.4026" y1="49.6066" x2="46.9452" y2="49.2272" gradientUnits="userSpaceOnUse"><stop stop-color="#52D8EA"></stop><stop offset="1" stop-color="#916AFF"></stop></linearGradient><linearGradient id="paint4_linear_2675_11878" x1="35.5393" y1="49.6066" x2="39.0819" y2="49.2272" gradientUnits="userSpaceOnUse"><stop stop-color="#52D8EA"></stop><stop offset="1" stop-color="#916AFF"></stop></linearGradient><linearGradient id="paint5_linear_2675_11878" x1="4.81224" y1="51.1157" x2="48.8678" y2="-1.7511" gradientUnits="userSpaceOnUse"><stop stop-color="#52D8EA"></stop><stop offset="1" stop-color="#916AFF"></stop></linearGradient></defs></svg>