<svg xmlns:xlink="http://www.w3.org/1999/xlink" xmlns="http://www.w3.org/2000/svg" width="61" height="61" viewBox="0 0 61 61" fill="none"><g clip-path="url(#clip0_2675_11872)" fill="none"><path d="M52.151 9.13409C46.4445 3.42773 38.8567 0.285156 30.785 0.285156C22.7134 0.285156 15.1256 3.42773 9.41908 9.13409C3.71273 14.8404 0.570154 22.4284 0.570154 30.5001C0.570154 38.0427 3.32993 45.1853 8.36207 50.7405L0.333898 58.7685C0.00792898 59.0946 -0.0896472 59.585 0.0868001 60.0111C0.263247 60.4372 0.679048 60.7149 1.14012 60.7149H30.785C38.8568 60.7149 46.4445 57.5724 52.151 51.8659C57.8574 46.1595 60.9999 38.5716 60.9999 30.5001C60.9999 22.4285 57.8574 14.8404 52.151 9.13409ZM30.785 58.4347H3.89275L10.7545 51.5731C10.7544 51.5729 10.7543 51.5727 10.7542 51.5726C11.1948 51.132 11.2008 50.4183 10.7647 49.9708C5.66115 44.7363 2.85051 37.8215 2.85051 30.5001C2.85051 15.097 15.382 2.56551 30.785 2.56551C46.1881 2.56551 58.7196 15.0968 58.7196 30.5001C58.7196 45.9033 46.1881 58.4347 30.785 58.4347Z" fill="url(&quot;#paint0_linear_2675_11872&quot;)"></path><path d="M35.3457 23.6589H22.2335C20.9761 23.6589 19.9531 24.6819 19.9531 25.9393V30.5001C19.9531 31.7575 20.9761 32.7805 22.2335 32.7805H26.2242V49.3131C26.2242 50.5705 27.2472 51.5935 28.5046 51.5935H35.3456C36.603 51.5935 37.626 50.5705 37.626 49.3131V25.9394C37.626 24.6819 36.603 23.6589 35.3457 23.6589ZM35.3457 49.3133L28.5047 49.3131V31.6403C28.5047 31.0106 27.9943 30.5001 27.3645 30.5001H22.2335V25.9393L35.3456 25.9394L35.347 49.3133H35.3457Z" fill="url(&quot;#paint1_linear_2675_11872&quot;)"></path><path d="M30.2144 21.3786C33.6723 21.3786 36.4854 18.5655 36.4854 15.1076C36.4854 11.6498 33.6723 8.83667 30.2144 8.83667C26.7566 8.83667 23.9434 11.6498 23.9434 15.1076C23.9434 18.5655 26.7565 21.3786 30.2144 21.3786ZM30.2144 11.1169C32.415 11.1169 34.2051 12.9071 34.2051 15.1075C34.2051 17.308 32.415 19.0983 30.2144 19.0983C28.0139 19.0983 26.2237 17.308 26.2237 15.1075C26.2236 12.9071 28.0139 11.1169 30.2144 11.1169Z" fill="url(&quot;#paint2_linear_2675_11872&quot;)"></path></g><defs><linearGradient id="paint0_linear_2675_11872" x1="4.01018" y1="50.9231" x2="48.3794" y2="6.13528" gradientUnits="userSpaceOnUse"><stop stop-color="#52D8EA"></stop><stop offset="1" stop-color="#916AFF"></stop></linearGradient><linearGradient id="paint1_linear_2675_11872" x1="21.115" y1="47.067" x2="39.6494" y2="35.3412" gradientUnits="userSpaceOnUse"><stop stop-color="#52D8EA"></stop><stop offset="1" stop-color="#916AFF"></stop></linearGradient><linearGradient id="paint2_linear_2675_11872" x1="24.7679" y1="19.3463" x2="33.9769" y2="10.1372" gradientUnits="userSpaceOnUse"><stop stop-color="#52D8EA"></stop><stop offset="1" stop-color="#916AFF"></stop></linearGradient><clipPath id="clip0_2675_11872"><rect width="61" height="61" fill="white"></rect></clipPath><linearGradient id="paint0_linear_2675_11872" x1="4.01018" y1="50.9231" x2="48.3794" y2="6.13528" gradientUnits="userSpaceOnUse"><stop stop-color="#52D8EA"></stop><stop offset="1" stop-color="#916AFF"></stop></linearGradient><linearGradient id="paint1_linear_2675_11872" x1="21.115" y1="47.067" x2="39.6494" y2="35.3412" gradientUnits="userSpaceOnUse"><stop stop-color="#52D8EA"></stop><stop offset="1" stop-color="#916AFF"></stop></linearGradient><linearGradient id="paint2_linear_2675_11872" x1="24.7679" y1="19.3463" x2="33.9769" y2="10.1372" gradientUnits="userSpaceOnUse"><stop stop-color="#52D8EA"></stop><stop offset="1" stop-color="#916AFF"></stop></linearGradient></defs></svg>