<svg xmlns:xlink="http://www.w3.org/1999/xlink" xmlns="http://www.w3.org/2000/svg" width="73" height="61" viewBox="0 0 73 61" fill="none"><path d="M52.9433 53.4623H39.2189L37.7829 52.0263L41.3864 48.4229C41.7822 48.0269 41.9475 47.4638 41.8282 46.9166C41.7089 46.3696 41.3244 45.9264 40.7999 45.7313L21.9907 38.7311C21.3305 38.4852 20.6103 38.642 20.112 39.1406C19.6136 39.639 19.4568 40.3589 19.7026 41.0193L24.3335 53.4623H5.47542C3.63348 53.4623 2.13517 51.964 2.13517 50.1222V27.092C2.13517 26.5023 1.65732 26.0244 1.06758 26.0244C0.47785 26.0244 0 26.5023 0 27.092V50.1222C0 53.1413 2.4563 55.5976 5.47542 55.5976H25.1282L26.7027 59.8282C26.8978 60.3532 27.3411 60.7377 27.8883 60.857C28.4353 60.9764 28.9987 60.811 29.3943 60.4151L32.9977 56.8118L36.6659 60.48C37.0128 60.8268 37.4683 60.9999 37.9238 60.9999C38.3795 60.9999 38.8351 60.8265 39.182 60.4799L41.4511 58.2109C42.1446 57.5171 42.1445 56.3883 41.451 55.6947C41.451 55.6947 41.451 55.6947 41.4508 55.6947L41.354 55.5979H52.9432C53.5329 55.5979 54.0108 55.12 54.0108 54.5303C54.0108 53.9406 53.5329 53.4623 52.9433 53.4623ZM37.924 58.7179L33.7527 54.5467C33.5442 54.3383 33.271 54.2341 32.9977 54.2341C32.7246 54.2341 32.4513 54.3383 32.2427 54.5467L28.433 58.3564L21.9749 41.0035L39.3276 47.4618L35.5179 51.2715C35.101 51.6885 35.101 52.3644 35.5181 52.7813L39.6893 56.9524L37.924 58.7179Z" fill="url(&quot;#paint0_linear_2675_11700&quot;)"></path><path d="M67.4049 0H63.6724C63.0826 0 62.6048 0.47785 62.6048 1.06758C62.6048 1.65732 63.0826 2.13517 63.6724 2.13517H67.4049C69.2467 2.13517 70.7452 3.63348 70.7452 5.47542V12.1643H2.13517V5.47542C2.13517 3.63363 3.63348 2.13517 5.47542 2.13517H58.7349C59.3246 2.13517 59.8025 1.65732 59.8025 1.06758C59.8025 0.47785 59.3246 0 58.7349 0H5.47542C2.4563 0 0 2.4563 0 5.47542V22.288C0 22.8777 0.47785 23.3556 1.06758 23.3556C1.65732 23.3556 2.13517 22.8777 2.13517 22.288V14.2996H70.7452V50.1223C70.7452 51.9641 69.2469 53.4626 67.4049 53.4626H58.0587C57.469 53.4626 56.9912 53.9404 56.9912 54.5302C56.9912 55.1199 57.469 55.5977 58.0587 55.5977H67.4049C70.4241 55.5977 72.8804 53.1414 72.8804 50.1223V5.47542C72.8804 2.4563 70.4241 0 67.4049 0Z" fill="url(&quot;#paint1_linear_2675_11700&quot;)"></path><path d="M7.07422 7.14981C7.07422 8.24202 7.9596 9.1274 9.05167 9.1274C10.1437 9.1274 11.0291 8.24202 11.0291 7.14981C11.0291 6.0576 10.1437 5.17236 9.05167 5.17236C7.9596 5.17236 7.07422 6.0576 7.07422 7.14981Z" fill="url(&quot;#paint2_linear_2675_11700&quot;)"></path><path d="M13.1582 7.14981C13.1582 8.24202 14.0436 9.1274 15.1357 9.1274C16.2277 9.1274 17.1131 8.24202 17.1131 7.14981C17.1131 6.0576 16.2277 5.17236 15.1357 5.17236C14.0436 5.17236 13.1582 6.0576 13.1582 7.14981Z" fill="url(&quot;#paint3_linear_2675_11700&quot;)"></path><path d="M19.2402 7.14981C19.2402 8.24202 20.1256 9.1274 21.2177 9.1274C22.3097 9.1274 23.1951 8.24202 23.1951 7.14981C23.1951 6.0576 22.3097 5.17236 21.2177 5.17236C20.1256 5.17236 19.2402 6.0576 19.2402 7.14981Z" fill="url(&quot;#paint4_linear_2675_11700&quot;)"></path><path d="M13.0681 37.8035H13.0742C13.5255 37.8035 13.9283 37.5196 14.0798 37.0943L16.7242 29.6736L19.2511 37.0808C19.398 37.5114 19.802 37.8016 20.2571 37.8036H20.2615C20.7149 37.8036 21.1188 37.5172 21.269 37.089L24.8538 26.8622C25.0488 26.3059 24.7559 25.6966 24.1993 25.5015C23.6433 25.3065 23.0338 25.5994 22.8387 26.156L20.275 33.4695L17.7567 26.0868C17.4711 25.1486 16.0383 25.1399 15.7406 26.0731L13.0925 33.5042L10.5735 26.1739C10.3819 25.6162 9.7747 25.3191 9.217 25.5113C8.65944 25.7029 8.36265 26.3103 8.55439 26.8679L12.0646 37.0828C12.2119 37.5118 12.6145 37.8008 13.0681 37.8035Z" fill="url(&quot;#paint5_linear_2675_11700&quot;)"></path><path d="M32.822 37.8035H32.8282C33.2794 37.8035 33.6822 37.5197 33.8337 37.0944L36.4782 29.6737L39.005 37.0808C39.1519 37.5114 39.5559 37.8017 40.011 37.8037H40.0154C40.4688 37.8037 40.8727 37.5173 41.0229 37.0891L44.6077 26.8622C44.8027 26.3059 44.5098 25.6967 43.9532 25.5015C43.3972 25.3065 42.7877 25.5995 42.5926 26.156L40.0289 33.4696L37.5106 26.0869C37.2249 25.1485 35.7922 25.14 35.4946 26.0732L32.8464 33.5043L30.3274 26.1741C30.1359 25.6164 29.5283 25.3193 28.9709 25.5115C28.4133 25.7031 28.1166 26.3105 28.3083 26.868L31.8185 37.083C31.966 37.5119 32.3685 37.8008 32.822 37.8035Z" fill="url(&quot;#paint6_linear_2675_11700&quot;)"></path><path d="M52.254 37.8035H52.2599C52.7112 37.8035 53.114 37.5196 53.2655 37.0943L55.9099 29.6736L58.4368 37.0808C58.5837 37.5114 58.9877 37.8016 59.4428 37.8036H59.4472C59.9006 37.8036 60.3045 37.5172 60.4547 37.089L64.0394 26.8622C64.2344 26.3059 63.9414 25.6966 63.3849 25.5015C62.8287 25.3065 62.2194 25.5994 62.0242 26.156L59.4607 33.4695L56.9424 26.0868C56.657 25.1486 55.2238 25.1399 54.9263 26.0731L52.2782 33.5042L49.7591 26.1741C49.5675 25.6165 48.961 25.3196 48.4025 25.5115C47.845 25.703 47.5482 26.3104 47.7399 26.868L51.2503 37.0829C51.3978 37.5118 51.8002 37.8008 52.254 37.8035Z" fill="url(&quot;#paint7_linear_2675_11700&quot;)"></path><defs><linearGradient id="paint0_linear_2675_11700" x1="3.55071" y1="55.3325" x2="26.9843" y2="19.1452" gradientUnits="userSpaceOnUse"><stop stop-color="#52D8EA"></stop><stop offset="1" stop-color="#916AFF"></stop></linearGradient><linearGradient id="paint1_linear_2675_11700" x1="4.79121" y1="46.5888" x2="44.1632" y2="-5.022" gradientUnits="userSpaceOnUse"><stop stop-color="#52D8EA"></stop><stop offset="1" stop-color="#916AFF"></stop></linearGradient><linearGradient id="paint2_linear_2675_11700" x1="7.33422" y1="8.48654" x2="10.2382" y2="5.58262" gradientUnits="userSpaceOnUse"><stop stop-color="#52D8EA"></stop><stop offset="1" stop-color="#916AFF"></stop></linearGradient><linearGradient id="paint3_linear_2675_11700" x1="13.4182" y1="8.48654" x2="16.3222" y2="5.58262" gradientUnits="userSpaceOnUse"><stop stop-color="#52D8EA"></stop><stop offset="1" stop-color="#916AFF"></stop></linearGradient><linearGradient id="paint4_linear_2675_11700" x1="19.5002" y1="8.48654" x2="22.4043" y2="5.58262" gradientUnits="userSpaceOnUse"><stop stop-color="#52D8EA"></stop><stop offset="1" stop-color="#916AFF"></stop></linearGradient><linearGradient id="paint5_linear_2675_11700" x1="9.57543" y1="35.7902" x2="18.3559" y2="24.1884" gradientUnits="userSpaceOnUse"><stop stop-color="#52D8EA"></stop><stop offset="1" stop-color="#916AFF"></stop></linearGradient><linearGradient id="paint6_linear_2675_11700" x1="29.3293" y1="35.7903" x2="38.1098" y2="24.1884" gradientUnits="userSpaceOnUse"><stop stop-color="#52D8EA"></stop><stop offset="1" stop-color="#916AFF"></stop></linearGradient><linearGradient id="paint7_linear_2675_11700" x1="48.761" y1="35.7902" x2="57.5414" y2="24.1884" gradientUnits="userSpaceOnUse"><stop stop-color="#52D8EA"></stop><stop offset="1" stop-color="#916AFF"></stop></linearGradient><linearGradient id="paint0_linear_2675_11700" x1="3.55071" y1="55.3325" x2="26.9843" y2="19.1452" gradientUnits="userSpaceOnUse"><stop stop-color="#52D8EA"></stop><stop offset="1" stop-color="#916AFF"></stop></linearGradient><linearGradient id="paint1_linear_2675_11700" x1="4.79121" y1="46.5888" x2="44.1632" y2="-5.022" gradientUnits="userSpaceOnUse"><stop stop-color="#52D8EA"></stop><stop offset="1" stop-color="#916AFF"></stop></linearGradient><linearGradient id="paint2_linear_2675_11700" x1="7.33422" y1="8.48654" x2="10.2382" y2="5.58262" gradientUnits="userSpaceOnUse"><stop stop-color="#52D8EA"></stop><stop offset="1" stop-color="#916AFF"></stop></linearGradient><linearGradient id="paint3_linear_2675_11700" x1="13.4182" y1="8.48654" x2="16.3222" y2="5.58262" gradientUnits="userSpaceOnUse"><stop stop-color="#52D8EA"></stop><stop offset="1" stop-color="#916AFF"></stop></linearGradient><linearGradient id="paint4_linear_2675_11700" x1="19.5002" y1="8.48654" x2="22.4043" y2="5.58262" gradientUnits="userSpaceOnUse"><stop stop-color="#52D8EA"></stop><stop offset="1" stop-color="#916AFF"></stop></linearGradient><linearGradient id="paint5_linear_2675_11700" x1="9.57543" y1="35.7902" x2="18.3559" y2="24.1884" gradientUnits="userSpaceOnUse"><stop stop-color="#52D8EA"></stop><stop offset="1" stop-color="#916AFF"></stop></linearGradient><linearGradient id="paint6_linear_2675_11700" x1="29.3293" y1="35.7903" x2="38.1098" y2="24.1884" gradientUnits="userSpaceOnUse"><stop stop-color="#52D8EA"></stop><stop offset="1" stop-color="#916AFF"></stop></linearGradient><linearGradient id="paint7_linear_2675_11700" x1="48.761" y1="35.7902" x2="57.5414" y2="24.1884" gradientUnits="userSpaceOnUse"><stop stop-color="#52D8EA"></stop><stop offset="1" stop-color="#916AFF"></stop></linearGradient></defs></svg>